<svg width="380" height="160" viewBox="0 0 380 160" fill="none" xmlns="http://www.w3.org/2000/svg">
<g clip-path="url(#clip0_7754_14042)">
<path d="M112.223 69.0325C111.47 68.654 110.891 68.1078 110.484 67.3988H110.167V69.2816H107.432V51H110.455V55.7476C110.455 56.4183 110.445 57.1178 110.426 57.846H110.747C111.174 57.1753 111.758 56.6387 112.5 56.2411C113.243 55.8435 114.081 55.6423 115.02 55.6423C116.17 55.6423 117.181 55.9153 118.058 56.4663C118.935 57.0172 119.615 57.8125 120.099 58.8569C120.587 59.9012 120.827 61.1565 120.827 62.6272C120.827 64.098 120.563 65.3292 120.032 66.3832C119.5 67.4371 118.776 68.2372 117.857 68.7834C116.937 69.3295 115.902 69.6073 114.752 69.6073C113.813 69.6073 112.97 69.4157 112.218 69.0373L112.223 69.0325ZM116.774 65.9424C117.392 65.1999 117.703 64.0932 117.703 62.6272C117.703 61.1612 117.406 60.1408 116.812 59.3647C116.218 58.5886 115.346 58.1957 114.196 58.1957C113.152 58.1957 112.266 58.5215 111.542 59.1779C110.814 59.8342 110.455 60.7061 110.455 61.8032V63.6093C110.455 64.6537 110.776 65.4873 111.423 66.1149C112.069 66.7425 112.937 67.0587 114.039 67.0587C115.241 67.0587 116.151 66.685 116.774 65.9424Z" fill="#003C2D"/>
<path d="M133.36 67.164V66.8718C133.748 66.57 134.021 66.1484 134.169 65.5974C134.318 65.0513 134.395 64.4476 134.395 63.7913V60.3946C134.395 58.8903 133.867 57.7214 132.814 56.8926C131.76 56.059 130.217 55.647 128.186 55.647C126.504 55.647 124.947 55.9392 123.515 56.5237V58.967C124.205 58.6843 124.952 58.4687 125.757 58.3155C126.562 58.1669 127.338 58.0903 128.08 58.0903C129.264 58.0903 130.121 58.3106 130.643 58.7514C131.166 59.1922 131.424 59.8197 131.424 60.6342V61.1659C130.543 61.027 129.699 60.9551 128.904 60.9551C126.801 60.9551 125.216 61.3336 124.152 62.0953C123.093 62.8571 122.562 63.9446 122.562 65.3579C122.562 66.6657 122.978 67.7006 123.807 68.4623C124.64 69.224 125.762 69.6025 127.175 69.6025C128.167 69.6025 129.01 69.3917 129.709 68.9653C130.409 68.539 130.979 67.9114 131.419 67.0826H131.63V67.509C131.63 68.2515 131.841 68.7881 132.268 69.1138C132.694 69.4396 133.302 69.6025 134.098 69.6025C134.716 69.6025 135.281 69.4875 135.798 69.2576V66.9245C135.017 67.1017 134.208 67.1831 133.355 67.164H133.36ZM130.399 66.3017C129.719 66.9101 128.875 67.2167 127.865 67.2167C127.122 67.2167 126.557 67.0347 126.169 66.6706C125.781 66.3065 125.584 65.8322 125.584 65.2525C125.584 64.5434 125.876 63.9973 126.461 63.6093C127.045 63.2212 127.98 63.0247 129.273 63.0247C129.963 63.0247 130.682 63.0967 131.424 63.226V63.8967C131.424 64.8884 131.084 65.6884 130.404 66.2969L130.399 66.3017Z" fill="#003C2D"/>
<path d="M137.79 55.9632H140.497V58.1382H140.814C141.307 57.3094 141.934 56.6818 142.696 56.265C143.458 55.8482 144.325 55.6422 145.297 55.6422C146.874 55.6422 148.067 56.0638 148.881 56.9022C149.696 57.7406 150.103 58.9143 150.103 60.4186V69.2815H147.075V60.7635C147.075 59.0485 146.174 58.1909 144.368 58.1909C143.324 58.1909 142.471 58.5023 141.81 59.1203C141.144 59.7383 140.814 60.5623 140.814 61.5876V69.2815H137.79V55.9584V55.9632Z" fill="#003C2D"/>
<path d="M154.348 67.8778C153.073 66.728 152.436 65.013 152.436 62.7277C152.436 61.1899 152.762 59.8868 153.418 58.828C154.07 57.7645 154.951 56.9692 156.058 56.4423C157.164 55.9105 158.405 55.647 159.785 55.647C161.165 55.647 162.358 55.9057 163.421 56.4183V58.8855C162.344 58.4065 161.184 58.1669 159.943 58.1669C158.635 58.1669 157.576 58.531 156.772 59.2544C155.967 59.9778 155.565 61.1037 155.565 62.6224C155.565 64.141 155.933 65.3339 156.666 66.0334C157.399 66.7328 158.458 67.0826 159.838 67.0826C161.217 67.0826 162.506 66.843 163.661 66.3639V68.8312C162.511 69.3438 161.184 69.6025 159.68 69.6025C157.399 69.6025 155.617 69.0276 154.348 67.8778Z" fill="#003C2D"/>
<path d="M166.981 67.8395C165.778 66.661 165.174 64.9267 165.174 62.6271C165.174 61.1228 165.462 59.8485 166.037 58.8041C166.612 57.7597 167.397 56.974 168.399 56.4423C169.395 55.9105 170.535 55.647 171.81 55.647C173.846 55.647 175.456 56.2363 176.653 57.41C177.846 58.5885 178.445 60.3228 178.445 62.6224C178.445 64.1267 178.157 65.4058 177.583 66.455C177.008 67.509 176.217 68.2946 175.221 68.8168C174.22 69.339 173.084 69.5977 171.81 69.5977C169.793 69.5977 168.183 69.0084 166.981 67.8347V67.8395ZM174.406 66.0334C175.024 65.3339 175.336 64.1985 175.336 62.6224C175.336 61.0462 175.019 59.9539 174.392 59.2401C173.764 58.5262 172.902 58.1669 171.805 58.1669C170.708 58.1669 169.826 58.5166 169.218 59.2161C168.61 59.9155 168.303 61.051 168.303 62.6271C168.303 64.2033 168.614 65.2956 169.232 66.0094C169.85 66.7281 170.708 67.0826 171.805 67.0826C172.902 67.0826 173.783 66.7328 174.406 66.0334Z" fill="#003C2D"/>
<path d="M187.691 68.7834C186.834 68.2373 186.158 67.4372 185.66 66.3976C185.166 65.3532 184.917 64.098 184.917 62.6273C184.917 61.1565 185.176 59.9253 185.698 58.8713C186.22 57.8173 186.934 57.0172 187.849 56.4711C188.759 55.925 189.79 55.6471 190.939 55.6471C191.84 55.6471 192.645 55.8195 193.354 56.1645C194.063 56.5094 194.609 56.9933 194.997 57.6113H195.313C195.294 56.9023 195.284 56.222 195.284 55.5705V51.0096H198.312V69.2912H195.577V67.1929H195.261C194.801 67.9546 194.163 68.5487 193.349 68.9703C192.535 69.3966 191.634 69.6074 190.642 69.6074C189.526 69.6074 188.544 69.3343 187.682 68.7834H187.691ZM194.231 66.1437C194.939 65.5353 195.289 64.7065 195.289 63.6621V61.6739C195.289 60.6295 194.968 59.7911 194.322 59.154C193.675 58.5168 192.803 58.2006 191.706 58.2006C190.518 58.2006 189.612 58.5743 188.985 59.3264C188.357 60.0786 188.041 61.1804 188.041 62.632C188.041 64.0836 188.333 65.1376 188.918 65.9089C189.502 66.6802 190.383 67.0635 191.572 67.0635C192.635 67.0635 193.517 66.7569 194.226 66.1485L194.231 66.1437Z" fill="#003C2D"/>
<path d="M211.612 67.164V66.8718C212 66.57 212.273 66.1484 212.422 65.5974C212.571 65.0513 212.647 64.4476 212.647 63.7913V60.3946C212.647 58.8903 212.12 57.7214 211.066 56.8926C210.012 56.059 208.47 55.647 206.438 55.647C204.757 55.647 203.2 55.9392 201.767 56.5237V58.967C202.457 58.6843 203.205 58.4687 204.009 58.3155C204.814 58.1669 205.586 58.0903 206.333 58.0903C207.516 58.0903 208.374 58.3106 208.896 58.7514C209.418 59.1922 209.677 59.8197 209.677 60.6342V61.1659C208.795 61.027 207.952 60.9551 207.157 60.9551C205.054 60.9551 203.468 61.3336 202.404 62.0953C201.346 62.8571 200.814 63.9446 200.814 65.3579C200.814 66.6657 201.231 67.7006 202.059 68.4623C202.893 69.224 204.014 69.6025 205.427 69.6025C206.419 69.6025 207.262 69.3917 207.962 68.9653C208.661 68.539 209.231 67.9114 209.672 67.0826H209.883V67.509C209.883 68.2515 210.094 68.7881 210.52 69.1138C210.946 69.4396 211.555 69.6025 212.35 69.6025C212.968 69.6025 213.533 69.4875 214.051 69.2576V66.9245C213.27 67.1017 212.46 67.1831 211.608 67.164H211.612ZM208.651 66.3017C207.971 66.9101 207.123 67.2167 206.117 67.2167C205.375 67.2167 204.809 67.0347 204.421 66.6706C204.033 66.3065 203.837 65.8322 203.837 65.2525C203.837 64.5434 204.129 63.9973 204.714 63.6093C205.298 63.2212 206.232 63.0247 207.526 63.0247C208.215 63.0247 208.934 63.0967 209.677 63.226V63.8967C209.677 64.8884 209.337 65.6884 208.656 66.2969L208.651 66.3017Z" fill="#003C2D"/>
<path d="M128.803 104.302V103.67C129.646 103.018 130.236 102.094 130.561 100.906C130.887 99.7174 131.05 98.4095 131.05 96.9868V89.6137C131.05 86.3511 129.905 83.8169 127.625 82.0108C125.34 80.2046 121.986 79.304 117.574 79.304C113.923 79.304 110.546 79.9363 107.436 81.2059V86.5045C108.936 85.8913 110.555 85.4217 112.304 85.0912C114.053 84.7654 115.729 84.6025 117.344 84.6025C119.917 84.6025 121.771 85.0816 122.901 86.0445C124.032 87.0074 124.602 88.3679 124.602 90.1359V91.2856C122.69 90.9838 120.86 90.8258 119.131 90.8258C114.56 90.8258 111.125 91.6498 108.821 93.3027C106.517 94.9553 105.367 97.3174 105.367 100.388C105.367 103.229 106.267 105.476 108.074 107.129C109.88 108.782 112.318 109.606 115.389 109.606C117.54 109.606 119.37 109.146 120.889 108.221C122.407 107.301 123.643 105.936 124.602 104.13H125.062V105.049C125.062 106.664 125.522 107.824 126.446 108.532C127.366 109.241 128.693 109.596 130.422 109.596C131.764 109.596 132.995 109.347 134.111 108.849V103.78C132.42 104.163 130.657 104.336 128.813 104.297L128.803 104.302ZM122.379 102.429C120.898 103.756 119.068 104.417 116.879 104.417C115.265 104.417 114.038 104.024 113.19 103.239C112.347 102.453 111.926 101.423 111.926 100.158C111.926 98.6204 112.558 97.4321 113.827 96.5892C115.097 95.7459 117.128 95.3195 119.936 95.3195C121.43 95.3195 122.992 95.4729 124.602 95.7603V97.2216C124.602 99.3724 123.864 101.112 122.384 102.434L122.379 102.429Z" fill="#003C2D"/>
<path d="M180.73 82.0395C179.058 80.2142 176.61 79.304 173.386 79.304C171.234 79.304 169.323 79.7734 167.656 80.7172C165.984 81.661 164.671 83.0503 163.708 84.8948H163.066C162.52 83.3138 161.624 82.0395 160.369 81.0909C158.793 79.9028 156.742 79.304 154.203 79.304C152.206 79.304 150.409 79.7543 148.818 80.6597C147.223 81.5604 145.949 82.9162 144.991 84.7223H144.301V79.9986H138.427V108.916H144.995V92.2103C144.995 90.0591 145.676 88.2914 147.041 86.9116C148.402 85.5272 150.122 84.8373 152.196 84.8373C155.77 84.8373 157.552 86.701 157.552 90.4233V108.916H164.12V92.2103C164.12 89.9826 164.791 88.1956 166.137 86.8544C167.478 85.508 169.208 84.8373 171.321 84.8373C174.89 84.8373 176.677 86.701 176.677 90.4233V108.916H183.245V89.6758C183.245 86.4136 182.411 83.8695 180.739 82.0443L180.73 82.0395Z" fill="#003C2D"/>
<path d="M211.808 104.302V103.67C212.651 103.018 213.235 102.094 213.566 100.906C213.892 99.7174 214.054 98.4095 214.054 96.9868V89.6137C214.054 86.3511 212.91 83.8169 210.629 82.0108C208.344 80.2046 204.991 79.304 200.578 79.304C196.928 79.304 193.55 79.9363 190.441 81.2059V86.5045C191.94 85.8913 193.56 85.4217 195.308 85.0912C197.057 84.7654 198.734 84.6025 200.348 84.6025C202.921 84.6025 204.775 85.0816 205.905 86.0445C207.036 87.0074 207.606 88.3679 207.606 90.1359V91.2856C205.694 90.9838 203.864 90.8258 202.135 90.8258C197.565 90.8258 194.13 91.6498 191.825 93.3027C189.521 94.9553 188.371 97.3174 188.371 100.388C188.371 103.229 189.272 105.476 191.078 107.129C192.884 108.782 195.323 109.606 198.393 109.606C200.545 109.606 202.375 109.146 203.893 108.221C205.412 107.301 206.648 105.936 207.606 104.13H208.066V105.049C208.066 106.664 208.526 107.824 209.451 108.532C210.37 109.241 211.698 109.596 213.427 109.596C214.768 109.596 216 109.347 217.111 108.849V103.78C215.42 104.163 213.657 104.336 211.812 104.297L211.808 104.302ZM205.388 102.429C203.908 103.756 202.077 104.417 199.888 104.417C198.274 104.417 197.047 104.024 196.204 103.239C195.361 102.453 194.939 101.423 194.939 100.158C194.939 98.6204 195.572 97.4321 196.841 96.5892C198.111 95.7459 200.142 95.3195 202.95 95.3195C204.444 95.3195 206.006 95.4729 207.616 95.7603V97.2216C207.616 99.3724 206.878 101.112 205.398 102.434L205.388 102.429Z" fill="#003C2D"/>
<path d="M227.847 103.665L245.171 85.3499V80.1088H220.633V85.3499H237.257L220.11 103.665V108.911H245.228V103.665H227.847Z" fill="#003C2D"/>
<path d="M252.534 105.768C249.923 103.215 248.615 99.4394 248.615 94.4474C248.615 91.1851 249.238 88.4205 250.488 86.1545C251.734 83.8886 253.444 82.1783 255.615 81.0285C257.785 79.8787 260.252 79.2991 263.016 79.2991C267.433 79.2991 270.936 80.5782 273.527 83.1317C276.119 85.6852 277.417 89.4603 277.417 94.4523C277.417 97.7149 276.794 100.494 275.544 102.774C274.294 105.059 272.588 106.769 270.418 107.9C268.248 109.031 265.781 109.601 263.016 109.601C258.637 109.601 255.145 108.326 252.534 105.768ZM268.665 101.854C270.011 100.335 270.681 97.8683 270.681 94.4523C270.681 91.0363 270.001 88.6651 268.636 87.108C267.27 85.551 265.402 84.7749 263.021 84.7749C260.64 84.7749 258.728 85.5318 257.406 87.0505C256.079 88.5693 255.418 91.0363 255.418 94.4523C255.418 97.8683 256.089 100.24 257.435 101.797C258.781 103.354 260.64 104.13 263.021 104.13C265.402 104.13 267.323 103.373 268.665 101.854Z" fill="#003C2D"/>
<path d="M282.779 79.9937H288.657V84.7174H289.347C290.421 82.9113 291.786 81.5603 293.439 80.6548C295.087 79.7542 296.969 79.2991 299.082 79.2991C302.498 79.2991 305.09 80.2141 306.857 82.0346C308.625 83.8598 309.507 86.4037 309.507 89.6663V108.906H302.939V90.4138C302.939 86.6911 300.979 84.8276 297.06 84.8276C294.795 84.8276 292.94 85.4983 291.503 86.8445C290.061 88.1906 289.342 89.973 289.342 92.2007V108.906H282.774V79.9889L282.779 79.9937Z" fill="#003C2D"/>
<path d="M316.923 74.3071C317.584 74.8628 318.49 75.1407 319.639 75.1407C320.789 75.1407 321.632 74.8628 322.274 74.3071C322.921 73.7514 323.242 72.8795 323.242 71.6962C323.242 69.363 322.02 68.1989 319.582 68.1989C318.432 68.1989 317.536 68.4863 316.889 69.0612C316.243 69.6361 315.922 70.5128 315.922 71.6962C315.922 72.8795 316.252 73.7514 316.918 74.3071H316.923Z" fill="#003C2D"/>
<path d="M320.793 104.264V103.66C321.483 103.114 321.996 102.343 322.322 101.337C322.724 100.091 322.925 98.6779 322.925 97.1015V79.9938H316.357V103.67C316.357 105.783 316.913 107.301 318.029 108.221C319.141 109.141 320.717 109.606 322.753 109.606C324.406 109.606 325.9 109.337 327.247 108.801V103.732C325.028 104.182 322.877 104.36 320.793 104.274V104.264Z" fill="#003C2D"/>
<path d="M353.572 104.302V103.67C354.415 103.018 354.999 102.094 355.33 100.906C355.656 99.7174 355.819 98.4095 355.819 96.9868V89.6137C355.819 86.3511 354.674 83.8169 352.393 82.0108C350.108 80.2046 346.754 79.304 342.342 79.304C338.692 79.304 335.314 79.9363 332.205 81.2059V86.5045C333.705 85.8913 335.324 85.4217 337.072 85.0912C338.821 84.7654 340.498 84.6025 342.112 84.6025C344.685 84.6025 346.539 85.0816 347.67 86.0445C348.8 87.0074 349.37 88.3679 349.37 90.1359V91.2856C347.459 90.9838 345.629 90.8258 343.899 90.8258C339.329 90.8258 335.894 91.6498 333.589 93.3027C331.285 94.9553 330.135 97.3174 330.135 100.388C330.135 103.229 331.036 105.476 332.842 107.129C334.648 108.782 337.087 109.606 340.158 109.606C342.309 109.606 344.139 109.146 345.657 108.221C347.176 107.301 348.412 105.936 349.375 104.13H349.835V105.049C349.835 106.664 350.295 107.824 351.22 108.532C352.139 109.241 353.466 109.596 355.196 109.596C356.537 109.596 357.768 109.347 358.88 108.849V103.78C357.189 104.163 355.426 104.336 353.581 104.297L353.572 104.302ZM347.147 102.429C345.667 103.756 343.837 104.417 341.648 104.417C340.033 104.417 338.807 104.024 337.963 103.239C337.12 102.453 336.694 101.423 336.694 100.158C336.694 98.6204 337.326 97.4321 338.596 96.5892C339.866 95.7459 341.897 95.3195 344.704 95.3195C346.199 95.3195 347.76 95.4729 349.37 95.7603V97.2216C349.37 99.3724 348.633 101.112 347.152 102.434L347.147 102.429Z" fill="#003C2D"/>
<path d="M263.05 72.9609L257.718 77.0522L255.562 74.4652L262.188 68.1989H263.851L270.476 74.4652L268.32 77.0522L263.05 72.9609Z" fill="#003C2D"/>
<path d="M69.0817 51.005C64.4297 51.005 60.0652 53.2567 57.3679 57.051L20 109.601H42.4592L83.473 51.9248L68.1187 109.601H85.2505V51.005H69.0817Z" fill="#003C2D"/>
<path d="M50.4687 98.3327L42.4585 109.601C62.9392 89.5225 87.4342 103.229 92.522 65.7987C80.2671 77.1385 68.851 72.6399 50.4687 98.3327Z" fill="#00E12D"/>
</g>
<defs>
<clipPath id="clip0_7754_14042">
<rect width="339" height="58.6056" fill="white" transform="translate(20 51)"/>
</clipPath>
</defs>
</svg>
