<svg width="380" height="160" viewBox="0 0 380 160" fill="none" xmlns="http://www.w3.org/2000/svg">
<g clip-path="url(#clip0_7461_20835)">
<path d="M105.276 50.051C105.486 50.007 105.627 50.0113 105.84 50.002C106.134 50.4627 105.988 66.9342 106.011 69.0206C113.943 63.837 129.523 64.5235 134.146 73.9487C136.331 78.4037 136.519 83.3108 136.448 88.1631C136.332 96.0082 135.205 102.426 127.74 106.231C119.535 109.682 102.623 109.863 97.8304 100.519C95.051 95.3904 95.344 89.4106 95.3807 83.712C95.4495 73.021 95.2674 62.2787 95.405 51.578C96.9981 51.2483 98.6795 51.0636 100.294 50.814C101.934 50.5607 103.632 50.1993 105.276 50.051ZM116.537 99.9774C124.58 99.5671 125.623 95.9933 125.758 88.8233C125.89 81.7721 126.162 74.4569 116.811 74.2471C116.381 74.2394 115.849 74.1798 115.408 74.2278C106.307 74.6817 105.927 78.6868 105.931 86.4639C105.935 94.9294 106.047 100.163 116.537 99.9774Z" fill="white"/>
<path d="M240.991 68.883C244.456 68.415 250.194 69.506 252.929 71.7892C257.554 75.6513 257.494 81.2616 257.634 86.674C257.861 95.4524 255.693 103.324 245.704 104.252C240.739 104.706 235.937 104.288 231.892 100.982C231.292 100.479 231.084 100.199 230.605 99.5955C230.417 104.138 230.593 110.318 230.611 114.93C229.475 114.916 228.339 114.921 227.204 114.946C227.379 107.593 227.126 100.211 227.237 92.8344C227.352 85.123 225.862 74.3501 234.349 70.3878C236.587 69.3427 238.588 69.1233 240.991 68.883ZM244.187 101.143C253.118 100.176 253.853 95.9401 254.198 87.9347C254.623 78.0953 252.69 71.4186 241.312 72.0853C238.148 72.4484 235.235 72.8637 233.092 75.5816C230.623 78.7832 230.767 83.1333 230.74 86.9697C230.728 88.7429 230.693 90.4616 230.918 92.2107C231.874 99.6816 237.591 101.401 244.187 101.143Z" fill="white"/>
<path d="M153.966 55.6572L154.463 55.6666C154.654 55.9735 154.555 65.9906 154.516 67.1503L169.46 67.1232C169.053 69.4783 168.327 73.4746 167.667 75.7562L154.524 75.7645C154.705 79.8348 154.437 84.1427 154.536 88.2496C154.655 93.2318 153.618 98.6302 160.563 98.8376C163.316 98.9198 166.113 98.8739 168.877 98.8593C168.667 99.7124 168.466 100.568 168.276 101.425C167.914 103.338 167.354 105.494 167.146 107.395C161.201 107.408 152.043 107.988 147.49 103.746C142.812 99.3859 143.986 89.4504 143.903 83.5913C143.778 74.8122 144.044 66.0343 143.862 57.2813C146.279 56.6618 151.335 56.0556 153.966 55.6572Z" fill="white"/>
<path d="M266.611 69.4021C269.108 69.3866 271.605 69.3836 274.102 69.3931C278.509 69.4333 284.249 69.6179 287.513 73.0042C290.618 76.2804 290.467 81.7587 290.346 86.0296C290.213 90.8007 291.374 97.6355 287.553 101.27C284.34 104.326 279.521 104.487 275.367 104.426C271.477 104.369 267.804 103.927 264.985 100.995C263.308 99.0908 262.775 96.8519 262.603 94.404C261.995 85.7907 267.203 81.6942 275.489 81.8771C279.7 81.9701 283.706 82.2409 287.01 85.1793C287.006 81.1109 287.446 75.6295 282.819 73.7783C279.495 72.4481 275.648 72.5804 272.123 72.5795L265.61 72.5852C265.86 71.9107 266.291 69.687 266.611 69.4021ZM280.34 100.991C286.361 100.27 287.346 97.1924 286.918 91.6887C286.399 84.9861 277.959 84.6207 272.846 85.1614C270.893 85.5027 268.461 86.1109 267.322 87.9139C265.327 91.0687 265.128 97.3749 268.612 99.6129C271.439 101.429 277.103 101.498 280.34 100.991Z" fill="white"/>
<path d="M121.264 9H128.876C130.289 9.3698 131.994 9.26112 133.546 9.46026C136.887 9.86177 140.196 10.4995 143.448 11.3685C161.583 16.2017 177.084 27.9799 186.594 44.153C187.894 46.4049 189.09 48.7148 190.179 51.0757C189.105 51.0793 187.99 51.0668 186.92 51.0893C178.581 34.078 165.038 21.6712 147.011 15.496C129.953 9.71606 111.299 10.9209 95.1272 18.8473C78.7598 26.9164 66.2716 41.1566 60.412 58.4329C54.6714 75.5019 55.9236 94.1485 63.8949 110.298C71.9751 126.678 86.2541 139.164 103.571 144.991C120.731 150.694 139.454 149.365 155.636 141.295C161.919 138.132 167.687 134.039 172.746 129.153C175.602 126.361 178.214 123.33 180.553 120.093C181.256 119.109 183.213 115.989 183.819 115.329C184.371 114.719 185.073 114.266 185.856 114.014C187.055 113.633 188.648 113.681 189.891 113.682C194.549 113.689 200.364 114.118 202.131 108.61C202.72 106.775 202.665 104.746 202.694 102.815C199.034 105.525 195.402 105.882 191.155 105.856C176.255 105.767 172.56 97.9402 172.901 84.4015C173.297 68.6477 182.4 65.1765 196.895 66.01C214.652 67.625 213.511 80.4607 213.313 94.4902C213.204 102.305 214.779 113.25 207.322 118.458C200.733 123.061 190.505 121.818 182.799 121.964C171.739 137.264 155.04 147.533 136.391 150.501C135.086 150.7 133.775 150.865 132.461 150.993C131.484 151.08 130.066 151.125 129.161 151.359H121.49C120.419 151.071 118.848 151.145 117.702 151.01C115.965 150.804 114.21 150.569 112.49 150.256C102.447 148.442 92.9144 144.48 84.5454 138.64C70.3168 128.761 60.1693 114.045 55.996 97.2375C55.2596 94.1203 54.6992 90.9642 54.3175 87.7841C54.1882 86.7128 54.1772 84.8319 54.0219 84.0128L54 83.9019V76.469C54.1989 75.6314 54.1146 74.3195 54.2177 73.3962C54.3936 71.8199 54.602 70.2378 54.8664 68.6747C56.3308 59.651 59.5345 50.9974 64.2994 43.1945C73.6425 27.8501 89.169 15.8961 106.621 11.3986C109.922 10.5224 113.28 9.87431 116.67 9.45895C118.214 9.25665 119.825 9.34929 121.264 9ZM194.048 97.6152C201.05 97.5823 202.942 94.2851 202.763 87.6439C202.662 83.9622 203.276 79.2095 200.479 76.2964C198.805 74.5516 194.939 74.0568 192.624 74.2272C184.901 74.6283 183.525 77.3348 183.481 84.8544C183.46 88.4013 183.124 93.076 185.847 95.8199C187.95 97.7547 191.376 97.6524 194.048 97.6152Z" fill="white"/>
<path d="M323.753 70.1731L327.616 70.1885V104.697C327.072 107.381 326.487 110.138 324.386 112.097C320.755 115.483 315.108 115.316 310.488 115.322C307.645 115.325 304.877 115.219 302.054 115.149C302.274 113.932 302.468 113.044 302.791 111.85C305.419 111.757 308.139 111.953 310.788 111.929C314.266 111.897 318.795 112.204 321.475 109.523C324.064 106.932 323.724 102.473 323.728 99.1188C320.793 102.072 318.173 102.534 314.1 102.601C311.164 102.65 308.432 102.558 305.658 101.448C299.029 98.7933 300.074 90.8098 300.075 84.9866L300.086 70.179L303.964 70.1729C304.046 77.9203 303.753 85.7436 304.119 93.4641C304.241 96.0382 306.203 98.0917 308.62 98.6853C310.4 99.1227 311.662 99.227 313.456 99.2602C324.894 99.4726 323.777 93.3259 323.778 84.7374L323.753 70.1731Z" fill="white"/>
</g>
<defs>
<clipPath id="clip0_7461_20835">
<rect width="273.616" height="142.359" fill="white" transform="translate(54 9)"/>
</clipPath>
</defs>
</svg>
