<svg width="380" height="160" viewBox="0 0 380 160" fill="none" xmlns="http://www.w3.org/2000/svg">
<path d="M347.721 72.8699H353.464V67.1044H347.721V72.8699ZM336.186 49.8106H341.953V44.0451H336.186V49.8106ZM336.186 61.339H341.953V55.576H336.186V61.339ZM359.232 49.8106H365V44.0451H359.232V49.8106ZM347.721 61.339H353.464V55.576H347.721V61.339ZM336.186 72.8699H341.953V67.1044H336.186V72.8699ZM347.721 49.8106H353.464V44.0451H347.721V49.8106ZM359.232 61.339H365V55.576H359.232V61.339ZM359.232 72.8699H365V67.1044H359.232V72.8699ZM94.8283 84.2789C95.7531 75.5573 99.9597 70.9265 107.958 70.9265C115.747 70.9265 120.284 75.8559 120.284 84.2789H94.8283ZM108.584 61.4883C90.6193 61.4883 83.5487 73.6165 83.5487 88.9072C83.5487 106.47 92.6803 116.956 111.57 116.956C117.626 116.956 123.058 116.028 128.192 113.669C128.908 110.294 129.535 106.38 129.923 103.394C124.282 105.962 118.017 107.306 111.868 107.306C101.812 107.306 96.4692 102.887 95.0372 93.7471H131.056C131.474 90.761 131.683 88.1905 131.683 85.0255C131.649 72.0612 124.669 61.4883 108.584 61.4883ZM169.015 72.8699C169.522 69.8814 169.82 66.7162 170.029 63.2227H152.183V43.8062C148.693 43.8062 144.394 44.3138 140.904 45.451V99.3632C140.904 111.877 147.887 116.923 158.869 116.923C162.061 116.923 165.345 116.506 168.418 115.281C169.044 112.295 169.432 108.801 169.76 105.723C167.284 106.649 164.211 107.276 160.927 107.276C155.497 107.276 152.213 104.708 152.213 98.0469V72.8699H169.015ZM317.887 72.8699C318.409 69.8814 318.732 66.7162 318.907 63.2227H301.056V43.8062C297.576 43.8062 293.275 44.3138 289.794 45.451V99.3632C289.794 111.877 296.78 116.923 307.744 116.923C310.951 116.923 314.233 116.506 317.291 115.281C317.937 112.295 318.31 108.801 318.633 105.723C316.172 106.649 313.089 107.276 309.807 107.276C304.388 107.276 301.106 104.708 301.106 98.0469V72.8699H317.887ZM243.711 84.2789C244.636 75.5573 248.842 70.9265 256.84 70.9265C264.634 70.9265 269.159 75.8559 269.159 84.2789H243.711ZM257.467 61.4883C239.502 61.4883 232.429 73.6165 232.429 88.9072C232.429 106.47 241.56 116.956 260.45 116.956C266.499 116.956 271.943 116.028 277.065 113.669C277.786 110.294 278.407 106.38 278.805 103.394C273.162 105.962 266.897 107.306 260.748 107.306C250.692 107.306 245.352 102.887 243.92 93.7471H279.949C280.346 90.761 280.57 88.1905 280.57 85.0255C280.544 72.0612 273.584 61.4883 257.467 61.4883ZM61.7918 106.052C58.7189 106.679 55.3178 107.067 52.3618 107.067C36.7548 107.067 26.9069 98.017 26.9069 79.6482C26.9069 62.8022 36.0387 53.2444 52.869 53.2444C60.0614 53.2444 65.7025 54.4712 70.7145 56.1135C71.7288 52.916 72.5642 49.1237 72.773 45.7496C67.4328 43.9257 60.7475 43 52.869 43C28.8466 43 15 56.3524 15 80.0662C15 101.842 27.6232 117.344 51.5265 117.344C59.226 117.344 67.4328 115.908 73.2827 113.549V76.9906H61.7918V106.052ZM198.768 61.4883C193.336 61.4883 185.428 62.623 178.235 64.3574V115.699H189.515V71.9717C192.59 71.4641 195.782 71.1658 198.438 71.1658C209.72 71.1658 212.405 75.08 212.405 83.1745V115.729H223.684L223.684 81.2037C223.71 68.777 217.658 61.4883 198.768 61.4883Z" fill="#ED1C24"/>
</svg>
