<svg width="380" height="160" viewBox="0 0 380 160" fill="none" xmlns="http://www.w3.org/2000/svg">
<path d="M9 99.3677H32.9418L33.0691 98.7031L9.45886 93.7954L9.91768 91.1628L33.5279 96.2749L33.7319 95.3546L11.4221 85.6415L12.391 82.9577L34.752 92.3894L35.2108 91.7249L15.4 76.9762L17.4396 73.7556L37.1234 88.5038L37.7097 87.7115L22.2076 67.9786L26.0067 64.8857L41.3813 83.6986L42.0442 83.1108L33.0947 60.285L38.5256 57.9845L46.9653 80.3501L47.6282 80.1456V55.3519H56.297V101.258H9.00013L9 99.3677ZM146.785 91.2393H156.142V101.336H148.366C140.181 101.336 135.158 98.4988 135.158 88.0955V65.5507H129.6C128.631 65.5507 128.121 64.3749 128.784 63.6592L144.872 45.3578C145.561 44.6166 146.81 45.1022 146.81 46.1247V55.4541H156.091V65.5505H146.81V91.239L146.785 91.2393ZM113.435 54.7131C107.851 54.7131 103.67 57.9338 101.63 62.9947H101.247V55.4287H90.1559V101.335H101.808V65.7547H109.585C112.976 65.7547 114.225 66.4705 114.225 70.1V101.335H125.878V67.8249C125.853 58.5977 121.441 54.7131 113.435 54.7131ZM70.0134 101.336H81.6653V55.4292H70.0134V101.336ZM222.46 63.5567H221.977V55.4283H210.4V101.335H222.741V66.3933H233.604V54.7122H232.098C226.387 54.7122 223.863 57.2432 222.46 63.5567ZM204.996 77.2061V80.6823H170.065C170.702 87.507 174.959 92.0315 181.538 92.0315C187.428 92.0315 191.686 88.8874 192.552 85.0023H204.97C202.369 94.6897 193.497 102.103 181.359 102.103C167.208 102.103 157.597 92.0062 157.597 78.7657C157.597 65.5251 166.878 54.7132 181.666 54.7132C195.638 54.7132 204.996 64.3493 204.996 77.2061ZM170.421 72.2219H192.961C191.201 67.6209 187.479 64.3236 181.716 64.3236C176.668 64.3491 172.232 67.0074 170.421 72.2219Z" fill="#EA7100"/>
<path fill-rule="evenodd" clip-rule="evenodd" d="M261.462 52.6596C262.934 52.6558 264.825 52.7975 265.666 52.9813C266.507 53.1614 268.142 53.5673 269.296 53.8852C270.45 54.2031 272.086 54.8542 272.927 55.3368C273.767 55.8194 275.212 56.8267 276.14 57.5774C277.065 58.3242 278.517 59.8869 279.366 61.0436C280.21 62.2002 281.299 64.0118 281.777 65.0651C282.259 66.1183 282.836 67.8419 283.065 68.8951C283.29 69.9484 283.657 71.76 283.875 72.9167C284.093 74.0733 284.173 76.5743 284.051 78.4702C283.929 80.3661 283.569 82.779 283.26 83.8322C282.946 84.8855 282.129 86.8618 281.437 88.2253C280.646 89.7956 279.14 91.7604 277.321 93.6026C275.609 95.3377 273.53 96.9884 272.162 97.7046C270.901 98.3672 268.494 99.2864 266.812 99.746C264.195 100.466 263.121 100.558 259.361 100.378C256.086 100.225 254.286 99.9337 252.291 99.2366C250.82 98.7196 248.97 97.9306 246.75 96.6628V114.281H243.31L242.42 114.281V112.845C242.42 112.845 242.267 100.815 242.164 53.7665H246.368V55.873C246.368 57.0297 246.456 57.9795 246.559 57.9795C246.662 57.9795 247.74 57.3131 248.947 56.5011C250.155 55.6853 251.916 54.7393 252.864 54.3946C253.812 54.0499 255.531 53.5214 256.686 53.2188C257.84 52.9162 259.991 52.6635 261.462 52.6596ZM253.246 58.7417C252.092 59.2013 250.155 60.1627 248.947 60.8827L246.75 62.1926L246.941 92.2583C250.495 94.1657 252.818 95.0083 254.393 95.3568C256.449 95.8126 258.505 95.9543 261.661 95.8509C265.666 95.7168 266.289 95.5981 268.54 94.4989C269.9 93.8363 271.964 92.4383 273.118 91.4004C274.428 90.2207 275.751 88.5125 276.63 86.8618C277.405 85.4064 278.323 83.0088 278.67 81.5342C279.088 79.7469 279.237 77.8957 279.117 75.9807C279.018 74.3989 278.678 71.9898 278.365 70.6186C278.051 69.2475 277.36 67.2674 276.828 66.2141C276.297 65.1608 275.2 63.5369 274.394 62.6024C273.588 61.6679 272.025 60.3312 270.92 59.6341C269.816 58.9332 267.924 58.1021 266.717 57.7842C265.509 57.4701 263.144 57.2288 261.462 57.2518C259.781 57.2786 257.717 57.4357 256.877 57.6042C256.036 57.7727 254.4 58.2859 253.246 58.7417ZM352.986 52.7975C355.305 52.8894 357.583 53.2456 359.291 53.7857C360.762 54.2491 362.998 55.2832 364.259 56.0837C365.52 56.8841 366.406 57.0525 366.406 57.0525V53.7857H371.699V77.8957C371.688 92.9784 371.562 97.9114 371.134 100.301C370.824 102.04 370.049 104.442 369.342 105.855C368.657 107.226 367.232 109.191 366.177 110.229C365.096 111.294 363.258 112.561 361.966 113.14C360.705 113.699 358.726 114.384 357.572 114.66C356.066 115.02 354.117 115.085 350.693 114.898C348.064 114.752 345.186 114.469 344.292 114.266C343.398 114.063 341.506 113.346 340.088 112.676C338.59 111.964 336.748 110.677 335.694 109.612C334.696 108.597 333.554 107.038 333.16 106.142C332.763 105.246 332.335 103.611 331.968 100.493H334.261C335.763 100.493 336.603 100.658 336.703 100.972C336.783 101.236 337.066 102.224 337.329 103.174C337.654 104.327 338.392 105.476 339.573 106.64C340.895 107.954 342.087 108.662 344.388 109.501C347.124 110.497 347.907 110.612 351.839 110.589C355.416 110.57 356.605 110.413 358.24 109.742C359.345 109.29 360.892 108.494 361.68 107.977C362.467 107.46 363.667 106.123 364.343 105.008C365.023 103.894 365.682 102.366 365.842 101.658L366.293 100.081C366.293 100.081 366.743 98.214 366.743 91.6838L364.546 93.3192C363.338 94.2193 361.232 95.4066 359.864 95.9581C358.496 96.5135 356.005 97.1684 354.323 97.4212C352.069 97.7544 350.464 97.7697 348.209 97.4671C346.528 97.245 344.38 96.7892 343.432 96.456C342.484 96.1266 340.765 95.3147 339.611 94.6521C338.457 93.9933 336.561 92.4919 335.407 91.3123C334.253 90.1365 332.755 88.1449 332.083 86.8848C331.406 85.6285 330.504 83.2194 330.072 81.5342C329.583 79.6384 329.285 77.2637 329.289 75.3104C329.289 73.5716 329.488 71.331 329.725 70.3314C329.962 69.3317 330.833 67.0452 331.662 65.2566C332.874 62.6483 333.714 61.4687 335.912 59.32C337.421 57.8455 339.687 56.0952 340.948 55.4326C342.209 54.77 344.273 53.9542 345.534 53.6248C346.795 53.2954 348.141 52.927 348.609 52.8848C349.077 52.8427 350.987 52.7209 352.986 52.7975ZM343.91 59.0826C342.595 59.7413 340.75 61.0512 339.802 62.0011C338.854 62.9509 337.65 64.414 337.127 65.2566C336.599 66.0992 335.785 67.7806 335.312 68.9909C334.601 70.8101 334.456 71.9247 334.467 75.4062C334.479 79.0485 334.62 79.9831 335.51 82.3002C336.08 83.7748 337.261 85.843 338.132 86.8963C339.007 87.9495 340.513 89.4011 341.479 90.125C342.45 90.8489 344.189 91.7796 345.343 92.1932C346.749 92.6988 348.648 92.986 351.075 93.055C353.819 93.1315 355.359 92.9669 357.38 92.3847C358.852 91.9557 360.659 91.2472 361.393 90.8067C362.127 90.3663 363.64 89.2211 364.752 88.2598L366.777 86.5133L366.743 62.5756C364.523 60.8865 363.105 59.952 362.157 59.4081C361.21 58.8643 359.406 58.1519 358.145 57.8225C356.861 57.4893 354.426 57.2442 352.604 57.2633C350.819 57.2825 348.668 57.4318 347.827 57.5927C346.986 57.7574 345.224 58.4276 343.91 59.0826ZM307.893 53.1192C311.042 53.2073 312.398 53.4295 314.198 54.1457C315.608 54.7087 317.114 55.693 318.115 56.7118C319.009 57.6195 320.317 58.5675 321.689 62.1753L322.029 63.7047L322.14 66.2315L322.25 69.0982L322.472 74.8317C322.613 81.0478 322.743 89.1024 322.796 99.3439H318.593V96.8543C318.593 95.4832 318.463 94.361 318.306 94.3572C318.15 94.3533 317.668 94.8244 317.236 95.4104C316.804 95.9926 315.429 97.065 314.179 97.7889C312.929 98.5127 310.874 99.4166 309.612 99.7958C308.149 100.236 306.143 100.481 304.071 100.47C301.672 100.458 300.258 100.232 298.649 99.612C297.456 99.1485 295.691 98.2102 294.732 97.5246C293.773 96.839 292.466 95.4602 291.827 94.4606C291.189 93.4609 290.391 91.6915 290.058 90.5348C289.645 89.1024 289.508 87.5129 289.626 85.5558C289.737 83.7556 290.119 81.9708 290.65 80.7682C291.117 79.715 292.305 78.0259 293.295 77.0148C294.281 76.0075 295.779 74.7742 296.62 74.2801C297.46 73.7822 299.096 73.112 300.25 72.7903C301.404 72.4647 303.555 72.0932 305.027 71.9591C307.148 71.7638 308.336 71.8864 310.759 72.5528C312.44 73.0124 314.248 73.6061 314.771 73.8742C315.295 74.1384 316.421 74.9197 316.421 74.9197L317.441 75.5994C317.441 75.5994 317.985 74.8891 317.767 70.5229C317.626 67.7308 317.336 64.8468 317.114 64.1076C316.892 63.3684 316.319 62.1734 315.838 61.4457C315.356 60.718 314.217 59.5996 313.308 58.9562C311.783 57.88 311.355 57.7765 307.958 57.6616C305.619 57.5812 303.64 57.7191 302.57 58.0446C301.637 58.3242 300.174 59.1707 299.321 59.9252C298.465 60.6797 297.445 61.9704 297.048 62.7977C296.654 63.6212 295.664 68.0912 295.664 68.0912H293.528L291.162 67.9785C291.162 67.9785 291.296 65.5209 291.625 64.2033C291.954 62.8858 292.519 61.3346 292.882 60.7563C293.245 60.178 294.059 59.0443 294.697 58.24C295.336 57.4318 296.715 56.233 297.766 55.5704C298.817 54.9078 300.624 54.0576 301.778 53.6861C303.368 53.1728 304.862 53.035 307.893 53.1192ZM298.148 78.5621C297.307 79.1596 296.192 80.4197 295.664 81.358C294.843 82.8326 294.713 83.5373 294.724 86.5133C294.732 89.2441 294.9 90.2782 295.53 91.4923C295.966 92.3349 296.864 93.4992 297.521 94.0776C298.183 94.6559 299.451 95.3223 300.345 95.5521C301.24 95.7858 303.777 95.9122 305.982 95.8394C309.406 95.7207 310.304 95.5445 312.096 94.6597C313.25 94.0891 315.016 92.8405 316.013 91.8868L317.829 90.1518V79.0447C314.718 77.6238 312.784 77.0224 311.523 76.785C310.262 76.5513 307.939 76.3713 306.364 76.3867C304.786 76.402 302.638 76.6509 301.587 76.942C300.537 77.2293 298.989 77.9608 298.148 78.5621Z" fill="black" stroke="black" stroke-width="0.450559" stroke-linejoin="bevel"/>
</svg>
