<svg width="380" height="160" viewBox="0 0 380 160" fill="none" xmlns="http://www.w3.org/2000/svg">
<path d="M194.535 13.3775C197.806 13.0467 201.041 13.4891 204.148 14.528C207.076 15.5068 209.416 17.1092 211.765 19.0506C212.262 19.462 213.053 19.9771 213.322 20.5751C213.803 21.6474 209.618 29.0072 209.016 30.5857L208.945 30.7753C207.457 27.4583 204.73 24.8551 201.348 23.5221C190.765 19.2823 180.052 30.5173 184.566 40.7374C189.416 51.7164 195.117 62.446 199.94 73.4292C202.36 67.8853 205.093 62.3474 207.701 56.8838L215.574 40.2056C216.358 42.0922 217.541 44.3055 218.436 46.2015L224.207 58.396L236.834 85.0084C239.909 91.6323 243.033 98.2329 246.205 104.81C247.268 107.059 249.423 112.11 250.594 114.029C248.084 114.162 242.867 114.131 240.337 114.025C237.907 109.347 235.92 104.659 233.538 100.006C232.383 100.126 229.416 100.08 228.131 100.074C226.363 100.067 222.946 100.202 221.314 99.9615C220.566 98.8928 219.948 97.3977 219.389 96.1958L217.113 91.38C221.283 91.3345 225.453 91.3391 229.622 91.3929C227.892 88.5966 226.925 86.0947 225.532 83.2272C223.49 79.0207 221.555 74.7763 219.49 70.5879C218.229 68.0006 216.63 64.7909 215.594 62.1548C214.759 64.4164 212.855 67.9332 211.808 70.1932C209.652 74.851 207.314 79.4952 205.15 84.1511C205.479 85.0341 206.157 86.3189 206.575 87.2066C207.611 89.4271 208.668 91.6382 209.743 93.8399L216.39 107.87C219.299 113.943 221.395 117.217 221.233 124.233C221.085 130.124 218.564 135.703 214.245 139.71C204.899 148.505 190.551 147.728 181.905 138.351C183.193 135.259 185.506 131.149 186.528 128.31C187.503 130.357 188.657 131.919 190.391 133.409C192.933 135.616 196.246 136.723 199.605 136.489C207.292 135.893 213.008 129.021 211.719 121.402C211.09 117.676 208.323 112.857 206.685 109.374C204.438 104.596 202.187 99.784 199.913 95.0266L186.493 66.7913C183.765 61.2128 181.091 55.6076 178.472 49.9768C177.547 47.9695 176.41 45.8358 175.63 43.7917C174.903 41.9106 174.458 39.9323 174.31 37.921C173.388 26.0539 180.995 15.7737 192.715 13.6181C193.343 13.5028 193.901 13.4235 194.535 13.3775Z" fill="#939393"/>
<path d="M164.131 40.2578C164.363 40.8291 164.632 41.372 164.906 41.9232C166.814 45.7601 168.591 49.6557 170.428 53.5271L183.523 81.1706C186.527 87.5223 189.679 93.9629 192.608 100.33L196.465 108.543C197.261 110.243 198.288 112.598 199.219 114.153C195.986 114.067 191.782 114.27 188.743 114.059C187.386 111.605 185.975 108.348 184.754 105.781L176.664 88.7406L167.681 69.9145C166.621 67.6429 164.964 64.461 164.089 62.1808C163.321 64.126 162.292 66.188 161.394 68.0974C159.795 71.5377 158.153 74.9578 156.468 78.3569C154.483 82.661 152.388 87.2303 150.143 91.3944C154.042 91.2624 158.031 91.4049 161.947 91.3558C163.231 91.3395 169.202 91.0673 169.736 91.941C171.23 94.388 172.216 97.4868 173.652 100.007L173.724 100.13C164.508 100.047 155.292 100.028 146.077 100.072C144.744 102.945 143.397 105.811 142.036 108.672C141.266 110.301 140.277 112.56 139.372 114.072C135.974 114.172 132.525 114.01 129.139 114.082C130.061 111.727 131.842 108.185 132.971 105.852L137.534 96.2475L151.072 67.6664C153.906 61.5788 156.773 55.507 159.675 49.4514C160.513 47.6639 163.209 41.6035 164.131 40.2578Z" fill="#AA9661"/>
</svg>
