<svg width="380" height="160" viewBox="0 0 380 160" fill="none" xmlns="http://www.w3.org/2000/svg">
<path fill-rule="evenodd" clip-rule="evenodd" d="M268.689 72.5848C266.706 72.2829 265.381 72.0812 263.935 72.1466C263.378 72.1917 261.066 72.5452 258.784 72.9288C256.51 73.3123 252.443 74.6961 249.747 75.9972C246.666 77.4863 243.179 80.0584 240.333 82.9312C237.847 85.4431 234.903 89.1809 233.788 91.2416C232.673 93.3098 231.235 97.025 230.587 99.5068C229.94 101.989 229.412 106.05 229.42 108.532C229.428 111.013 229.879 114.736 230.437 116.804C230.986 118.872 232.425 122.55 233.63 124.972C234.827 127.401 237.727 131.297 240.062 133.621C242.396 135.952 245.951 138.772 247.969 139.885C249.98 140.998 253.663 142.435 256.148 143.082C258.633 143.728 262.444 144.262 264.621 144.262C266.797 144.255 270.352 143.879 272.529 143.42C274.705 142.961 278.689 141.45 281.378 140.066C284.202 138.614 288.073 135.711 290.528 133.192C293.028 130.627 295.732 126.829 297.103 123.949C298.376 121.264 299.814 117.203 300.296 114.924C300.778 112.645 300.665 108.156 300.665 108.156H293.006H286.24C286.24 108.156 285.399 113.315 284.774 115.488C283.961 118.323 282.628 120.459 280.06 123.054C277.718 125.431 275.187 127.115 272.717 127.95C270.646 128.657 267.43 129.228 265.562 129.221C263.702 129.213 260.9 128.867 259.349 128.454C257.798 128.048 256.517 127.627 256.51 127.521C256.502 127.416 273.896 109.239 273.896 109.239L284.009 99.1265L287.614 95.4086L289.735 92.7316L290.553 91.2445L290.85 89.7573C291.445 87.5265 290.553 84.8496 290.553 84.8496C289.679 83.1701 289.579 82.6635 287.614 80.6855C286.047 79.1062 282.733 76.9974 280.248 75.7941C277.748 74.5908 273.319 73.2597 270.337 72.831C269.737 72.7443 269.192 72.6613 268.689 72.5848ZM251.976 91.9034C250.545 93.0992 248.655 95.1298 247.789 96.4158C246.915 97.7018 245.77 100.108 245.243 101.763C244.686 103.5 244.407 107.042 244.565 110.164C244.723 113.127 245.115 115.834 245.439 116.18C245.755 116.519 252.232 110.713 259.823 103.267C267.415 95.8217 273.673 89.4742 273.734 89.1659C273.794 88.8575 272.152 88.2634 270.081 87.8498C268.01 87.4361 265.381 87.1052 264.244 87.1203C263.107 87.1353 260.464 87.7294 258.377 88.4364C256.291 89.1508 253.407 90.7076 251.976 91.9034Z" fill="white"/>
<path d="M162.704 78.2235C161.853 76.0654 161.157 74.2461 161.158 74.1814C161.16 74.1168 164.839 74.0829 177.511 74.1445L177.72 74.6832C177.834 74.9787 179.84 80.3476 182.177 86.6123C184.514 92.877 188.043 102.331 190.019 107.623C191.996 112.913 193.905 118.039 194.262 119.013C194.619 119.988 195.043 120.974 195.201 121.207C195.423 121.533 195.612 121.63 196.028 121.63C196.417 121.63 196.628 121.535 196.791 121.284C196.915 121.093 200.96 110.512 205.782 97.7718C210.605 85.0315 214.591 74.4846 214.642 74.3369C214.726 74.0844 215.251 74.0675 222.738 74.0675C230.292 74.0675 230.739 74.0829 230.656 74.3369C230.608 74.4846 225.023 88.6318 218.244 105.776C211.464 122.918 205.762 137.256 205.57 137.638C205.377 138.02 204.901 138.763 204.512 139.293C204.121 139.822 203.334 140.641 202.763 141.112C202.192 141.585 201.17 142.239 200.492 142.568C199.815 142.898 198.811 143.272 198.26 143.401C197.709 143.53 196.601 143.637 195.797 143.637C194.887 143.637 193.926 143.53 193.257 143.358C192.664 143.204 191.799 142.907 191.332 142.698C190.866 142.487 190.105 142.031 189.639 141.685C189.173 141.34 188.474 140.72 188.083 140.309C187.693 139.898 187.127 139.181 186.826 138.716C186.526 138.251 186.135 137.558 185.96 137.176C185.783 136.795 184.7 134.095 183.553 131.173C182.406 128.252 180.608 123.682 179.557 121.014C178.507 118.347 176.772 113.949 175.702 111.24C174.632 108.531 173.42 105.448 173.009 104.391C172.597 103.332 171.318 100.078 170.164 97.1561C169.011 94.2347 167.21 89.6631 166.16 86.9971C165.11 84.3296 163.555 80.3815 162.704 78.2235Z" fill="white"/>
<path fill-rule="evenodd" clip-rule="evenodd" d="M130.299 73.0441C132.489 72.977 136.066 73.305 138.256 73.7598C140.446 74.222 143.856 75.3999 145.833 76.3691C147.811 77.3458 150.691 79.4034 152.229 80.9392C153.768 82.475 155.897 85.5764 156.965 87.8353C158.898 91.9208 158.905 92.0028 158.905 132.939L158.259 134.19L157.292 135.528L156.251 136.792C154.652 138.835 151.494 141.2 149.569 142.236C146.152 144.07 145.652 144.122 131.261 144.122C117.083 144.122 116.302 144.048 112.362 142.259C109.823 141.103 106.996 138.978 104.943 136.667C103.117 134.617 101.124 131.426 100.517 129.585C99.9035 127.743 99.411 124.217 99.4185 121.757C99.4261 118.655 99.9793 116.135 101.199 113.556C102.177 111.506 103.965 108.702 105.17 107.331C106.383 105.959 109.421 103.857 111.922 102.656C116.461 100.487 116.499 100.479 144.886 100.509L144.409 97.7135C144.144 96.1777 143.462 93.9933 142.893 92.8676C142.317 91.7418 140.749 90.2284 139.392 89.5127C137.513 88.5137 134.953 87.1932 129.459 87.2379C124.716 87.2752 115.698 89.8599 115.698 89.8599L108.421 91.056L106.483 85.0313L105.614 81.8115L104.943 78.1661C104.943 78.1661 107.878 76.7478 113.394 75.5251C117.987 74.5112 122.759 73.6853 124.024 73.4989C125.29 73.3125 128.109 73.1112 130.299 73.0441ZM114.355 120.333C114.014 121.563 114.097 123.546 114.544 124.925C115.029 126.424 116.204 127.773 117.606 128.466C119.333 129.316 122.334 129.585 131.261 129.585C142.249 129.585 143.416 129.488 144.128 128.094C144.545 127.273 144.886 124.09 144.886 121.011V115.42C120.152 115.42 118.379 115.584 116.772 116.791C115.772 117.544 114.681 119.14 114.355 120.333Z" fill="white"/>
<path d="M36.7014 73.249C37.251 73.1059 38.2563 72.9027 38.9337 72.798C39.6111 72.6934 41.0305 72.6241 42.0896 72.6457C43.1473 72.6657 44.4989 72.7888 45.0916 72.9196C45.6843 73.0505 46.6542 73.3399 47.2469 73.5615C47.8396 73.7832 48.9758 74.325 49.7701 74.7652C50.5661 75.207 51.8485 76.092 52.6182 76.7354C53.3895 77.3773 54.4748 78.4517 55.0306 79.1212C55.5863 79.7908 56.3207 80.7898 56.664 81.3393C57.0073 81.8888 57.5045 82.7723 57.7709 83.3018C58.0372 83.8313 58.4575 84.8703 58.7069 85.6107C58.9563 86.3511 61.3071 95.3726 63.9319 105.659C66.5567 115.946 68.8167 124.672 68.9522 125.054C69.0892 125.436 69.3878 126.037 69.6157 126.393C69.8451 126.748 70.2392 127.164 70.4916 127.316C70.7441 127.469 71.1598 127.675 71.4153 127.774C71.6709 127.874 72.2605 127.958 72.7254 127.964C73.1904 127.969 73.8431 127.888 74.1756 127.783C74.5066 127.68 75.0886 127.316 75.4673 126.978C75.8444 126.639 76.3355 126.016 76.959 124.823L77.113 73.5661H79.3068C80.5137 73.5661 83.7174 73.5831 91.3532 73.6431L91.2686 126.516L90.8637 128.132C90.642 129.02 90.3049 130.198 90.1155 130.749C89.9246 131.3 89.472 132.373 89.1087 133.135C88.7454 133.897 88.0788 135.07 87.6292 135.742C87.1797 136.415 86.2929 137.514 85.6571 138.185C85.0229 138.856 84.053 139.737 83.5019 140.143C82.9523 140.548 81.9824 141.159 81.3466 141.501C80.7123 141.842 79.5685 142.33 78.8064 142.584C78.0444 142.84 76.7974 143.155 76.0353 143.288C75.2733 143.42 73.9216 143.528 73.0333 143.528C72.1451 143.528 70.7934 143.422 70.0313 143.291C69.2693 143.161 68.1947 142.909 67.6451 142.732C67.0955 142.555 65.9517 142.062 65.105 141.638C64.2583 141.213 63.3623 140.719 63.1129 140.54C62.8635 140.362 62.4832 140.077 62.2692 139.907C62.0537 139.738 61.3671 139.115 60.7421 138.522C60.1186 137.93 59.1656 136.855 58.6253 136.136C58.0849 135.417 57.2675 134.1 56.8087 133.212C56.3499 132.324 55.7665 131.006 55.5155 130.287C55.263 129.568 52.8999 120.545 50.2659 110.239C47.3208 98.7143 45.3287 91.2012 45.0916 90.7287C44.8807 90.3054 44.4466 89.6851 44.1295 89.3526C43.8123 89.0186 43.2751 88.6261 42.9364 88.4814C42.5977 88.3367 41.9049 88.2136 41.3969 88.2074C40.6995 88.1997 40.2854 88.2936 39.7034 88.5876C39.2478 88.8185 38.7259 89.2556 38.421 89.6604C38.1409 90.036 37.7745 90.7933 37.6097 91.3444C37.3188 92.3187 37.3111 93.0191 37.3172 142.755H23L23.0862 90.036L23.4388 88.4968C23.6312 87.6502 23.9637 86.4388 24.1762 85.8031C24.3886 85.1689 24.8381 84.0607 25.1768 83.3403C25.514 82.6199 26.1575 81.4778 26.6086 80.8006C27.0581 80.1233 27.971 78.9889 28.6376 78.2793C29.3057 77.5697 30.4049 76.5723 31.0823 76.0643C31.7597 75.5564 33.0759 74.7744 34.0073 74.325C34.9387 73.8755 36.1518 73.3922 36.7014 73.249Z" fill="white"/>
<path d="M305.896 16.8965C306.568 16.7024 307.668 16.4583 308.34 16.3551C309.347 16.1998 314.83 16.0163 321.564 16V51.3948H294.282C275.31 51.3948 271.562 51.3723 271.285 51.2548C271.103 51.1772 270.839 50.9892 270.699 50.8359C270.524 50.6439 270.433 50.4089 270.406 50.082C270.383 49.7918 270.427 49.4874 270.52 49.3004C270.605 49.1319 276.818 42.7641 284.328 35.1509C291.837 27.5378 298.388 20.98 298.883 20.5795C299.378 20.179 300.174 19.5977 300.649 19.2892C301.125 18.9796 301.928 18.5199 302.432 18.2676C302.936 18.0142 303.646 17.6822 304.011 17.5289C304.376 17.3757 305.223 17.0917 305.896 16.8965Z" fill="white"/>
<path d="M322.007 51.3948L322.004 33.2893L322.007 16L348.708 16.0551L349.585 16.3307C350.067 16.482 350.743 16.7466 351.088 16.9189C351.433 17.0903 352.007 17.425 352.366 17.6625C352.724 17.9 353.291 18.357 353.626 18.6776C353.961 18.9993 354.451 19.5545 354.715 19.9132C354.978 20.271 355.364 20.9023 355.571 21.3162C355.78 21.729 356.067 22.4395 356.212 22.8945C356.363 23.3705 356.516 24.1782 356.575 24.7985C356.635 25.4479 356.575 31.6032 356.575 51.3948H322.007Z" fill="white"/>
<path d="M322.185 101.757C322.006 101.418 322 100.628 322 78.9337L322.005 52H356.573L356.673 59.5931C356.673 61.3147 356.625 63.2428 356.567 63.8771C356.51 64.5104 356.371 65.4805 356.262 66.0316C356.152 66.5828 355.86 67.642 355.614 68.3866C355.367 69.1301 354.922 70.2355 354.626 70.8417C354.328 71.448 353.77 72.4171 353.384 72.9963C352.998 73.5745 352.413 74.3641 352.083 74.75C351.754 75.1358 345.406 81.4711 337.979 88.8295C330.551 96.187 324.357 102.286 324.215 102.382C324.066 102.481 323.761 102.558 323.503 102.56C323.197 102.562 322.944 102.491 322.712 102.335C322.525 102.21 322.288 101.949 322.185 101.757Z" fill="white"/>
</svg>
