<svg width="380" height="160" viewBox="0 0 380 160" fill="none" xmlns="http://www.w3.org/2000/svg">
<path fill-rule="evenodd" clip-rule="evenodd" d="M269.689 71.5848C267.706 71.2829 266.381 71.0812 264.935 71.1466C264.378 71.1917 262.066 71.5452 259.784 71.9288C257.51 72.3123 253.443 73.6961 250.747 74.9972C247.666 76.4863 244.179 79.0584 241.333 81.9312C238.847 84.4431 235.903 88.1809 234.788 90.2416C233.673 92.3098 232.235 96.025 231.587 98.5068C230.94 100.989 230.412 105.05 230.42 107.532C230.428 110.013 230.879 113.736 231.437 115.804C231.986 117.872 233.425 121.55 234.63 123.972C235.827 126.401 238.727 130.297 241.062 132.621C243.396 134.952 246.951 137.772 248.969 138.885C250.98 139.998 254.663 141.435 257.148 142.082C259.633 142.728 263.444 143.262 265.621 143.262C267.797 143.255 271.352 142.879 273.529 142.42C275.705 141.961 279.689 140.45 282.378 139.066C285.202 137.614 289.073 134.711 291.528 132.192C294.028 129.627 296.732 125.829 298.103 122.949C299.376 120.264 300.814 116.203 301.296 113.924C301.778 111.645 301.665 107.156 301.665 107.156H294.006H287.24C287.24 107.156 286.399 112.315 285.774 114.488C284.961 117.323 283.628 119.459 281.06 122.054C278.718 124.431 276.187 126.115 273.717 126.95C271.646 127.657 268.43 128.228 266.562 128.221C264.702 128.213 261.9 127.867 260.349 127.454C258.798 127.048 257.517 126.627 257.51 126.521C257.502 126.416 274.896 108.239 274.896 108.239L285.009 98.1265L288.614 94.4086L290.735 91.7316L291.553 90.2445L291.85 88.7573C292.445 86.5265 291.553 83.8496 291.553 83.8496C290.679 82.1701 290.579 81.6635 288.614 79.6855C287.047 78.1062 283.733 75.9974 281.248 74.7941C278.748 73.5908 274.319 72.2597 271.337 71.831C270.737 71.7443 270.192 71.6613 269.689 71.5848ZM252.976 90.9034C251.545 92.0992 249.655 94.1298 248.789 95.4158C247.915 96.7018 246.77 99.1084 246.243 100.763C245.686 102.5 245.407 106.042 245.565 109.164C245.723 112.127 246.115 114.834 246.439 115.18C246.755 115.519 253.232 109.713 260.823 102.267C268.415 94.8217 274.673 88.4742 274.734 88.1659C274.794 87.8575 273.152 87.2634 271.081 86.8498C269.01 86.4361 266.381 86.1052 265.244 86.1203C264.107 86.1353 261.464 86.7294 259.377 87.4364C257.291 88.1508 254.407 89.7076 252.976 90.9034Z" fill="black"/>
<path d="M163.704 77.2236C162.853 75.0656 162.157 73.2462 162.159 73.1815C162.16 73.1169 165.84 73.083 178.511 73.1446L178.721 73.6833C178.834 73.9789 180.84 79.3477 183.177 85.6125C185.514 91.8772 189.043 101.331 191.019 106.623C192.996 111.913 194.905 117.039 195.262 118.014C195.619 118.988 196.043 119.974 196.201 120.207C196.423 120.533 196.612 120.63 197.028 120.63C197.418 120.63 197.628 120.535 197.792 120.284C197.915 120.093 201.961 109.512 206.782 96.772C211.605 84.0316 215.591 73.4848 215.642 73.337C215.727 73.0846 216.252 73.0676 223.738 73.0676C231.292 73.0676 231.739 73.083 231.656 73.337C231.608 73.4848 226.023 87.6319 219.244 104.776C212.465 121.919 206.762 136.257 206.57 136.638C206.377 137.02 205.902 137.764 205.512 138.293C205.121 138.823 204.334 139.641 203.763 140.112C203.192 140.585 202.17 141.239 201.493 141.569C200.815 141.898 199.811 142.272 199.26 142.401C198.709 142.531 197.601 142.637 196.797 142.637C195.887 142.637 194.927 142.531 194.257 142.358C193.664 142.204 192.799 141.907 192.333 141.698C191.866 141.487 191.106 141.031 190.639 140.685C190.173 140.34 189.474 139.72 189.083 139.309C188.693 138.898 188.127 138.181 187.827 137.716C187.526 137.251 187.135 136.558 186.96 136.177C186.783 135.795 185.701 133.095 184.554 130.174C183.407 127.252 181.609 122.682 180.557 120.015C179.507 117.347 177.772 112.949 176.702 110.24C175.632 107.531 174.421 104.448 174.01 103.391C173.597 102.332 172.318 99.0777 171.165 96.1563C170.012 93.2348 168.21 88.6632 167.16 85.9973C166.111 83.3298 164.556 79.3816 163.704 77.2236Z" fill="black"/>
<path fill-rule="evenodd" clip-rule="evenodd" d="M131.299 72.0443C133.489 71.9772 137.066 72.3053 139.256 72.7601C141.446 73.2223 144.856 74.4002 146.833 75.3694C148.811 76.346 151.691 78.4036 153.229 79.9394C154.768 81.4752 156.897 84.5766 157.965 86.8355C159.898 90.921 159.905 91.003 159.905 131.94L159.259 133.19L158.292 134.528L157.251 135.792C155.652 137.835 152.494 140.2 150.569 141.236C147.152 143.07 146.652 143.123 132.261 143.123C118.083 143.123 117.302 143.048 113.362 141.259C110.823 140.103 107.996 137.978 105.943 135.667C104.117 133.617 102.124 130.426 101.517 128.585C100.904 126.743 100.411 123.217 100.419 120.757C100.426 117.655 100.979 115.136 102.199 112.556C103.177 110.506 104.965 107.703 106.17 106.331C107.383 104.959 110.421 102.857 112.922 101.657C117.461 99.4871 117.499 99.4796 145.886 99.5094L145.409 96.7137C145.144 95.1779 144.462 92.9936 143.893 91.8678C143.317 90.7421 141.749 89.2287 140.392 88.513C138.513 87.514 135.953 86.1934 130.459 86.2381C125.716 86.2754 116.698 88.8601 116.698 88.8601L109.421 90.0562L107.483 84.0316L106.614 80.8117L105.943 77.1664C105.943 77.1664 108.878 75.748 114.394 74.5253C118.987 73.5114 123.759 72.6855 125.024 72.4991C126.29 72.3127 129.109 72.1114 131.299 72.0443ZM115.355 119.333C115.014 120.563 115.097 122.546 115.544 123.925C116.029 125.424 117.204 126.773 118.606 127.467C120.333 128.316 123.334 128.585 132.261 128.585C143.249 128.585 144.416 128.488 145.128 127.094C145.545 126.274 145.886 123.09 145.886 120.011V114.42C121.152 114.42 119.379 114.584 117.772 115.792C116.772 116.545 115.681 118.14 115.355 119.333Z" fill="black"/>
<path d="M37.7014 72.2492C38.251 72.106 39.2563 71.9028 39.9337 71.7982C40.6111 71.6935 42.0305 71.6242 43.0896 71.6458C44.1473 71.6658 45.4989 71.7889 46.0916 71.9198C46.6843 72.0506 47.6542 72.34 48.2469 72.5616C48.8396 72.7833 49.9758 73.3251 50.7701 73.7653C51.5661 74.2071 52.8485 75.0921 53.6182 75.7355C54.3895 76.3774 55.4748 77.4518 56.0306 78.1214C56.5863 78.7909 57.3207 79.7899 57.664 80.3394C58.0073 80.8889 58.5045 81.7725 58.7709 82.302C59.0372 82.8315 59.4575 83.8704 59.7069 84.6108C59.9563 85.3512 62.3071 94.3727 64.9319 104.659C67.5567 114.946 69.8167 123.672 69.9522 124.054C70.0892 124.436 70.3878 125.037 70.6157 125.393C70.8451 125.749 71.2392 126.164 71.4916 126.317C71.7441 126.469 72.1598 126.675 72.4153 126.774C72.6709 126.874 73.2605 126.958 73.7254 126.965C74.1904 126.969 74.8431 126.888 75.1756 126.783C75.5066 126.68 76.0886 126.317 76.4673 125.978C76.8444 125.639 77.3355 125.016 77.959 123.823L78.113 72.5662H80.3068C81.5137 72.5662 84.7174 72.5832 92.3532 72.6432L92.2686 125.516L91.8637 127.132C91.642 128.021 91.3049 129.198 91.1155 129.749C90.9246 130.3 90.472 131.373 90.1087 132.135C89.7454 132.897 89.0788 134.07 88.6292 134.742C88.1797 135.415 87.2929 136.514 86.6571 137.185C86.0229 137.856 85.053 138.737 84.5019 139.143C83.9523 139.548 82.9824 140.159 82.3466 140.501C81.7123 140.842 80.5685 141.33 79.8064 141.584C79.0444 141.84 77.7974 142.155 77.0353 142.288C76.2733 142.42 74.9216 142.528 74.0333 142.528C73.1451 142.528 71.7934 142.422 71.0313 142.291C70.2693 142.162 69.1947 141.909 68.6451 141.732C68.0955 141.555 66.9517 141.063 66.105 140.638C65.2583 140.213 64.3623 139.719 64.1129 139.54C63.8635 139.362 63.4832 139.077 63.2692 138.908C63.0537 138.738 62.3671 138.115 61.7421 137.522C61.1186 136.93 60.1656 135.855 59.6253 135.136C59.0849 134.418 58.2675 133.1 57.8087 132.212C57.3499 131.324 56.7665 130.006 56.5155 129.287C56.263 128.568 53.8999 119.545 51.2659 109.239C48.3208 97.7144 46.3287 90.2013 46.0916 89.7288C45.8807 89.3055 45.4466 88.6852 45.1295 88.3527C44.8123 88.0187 44.2751 87.6262 43.9364 87.4815C43.5977 87.3368 42.9049 87.2137 42.3969 87.2075C41.6995 87.1998 41.2854 87.2937 40.7034 87.5877C40.2478 87.8186 39.7259 88.2557 39.421 88.6606C39.1409 89.0361 38.7745 89.7934 38.6097 90.3445C38.3188 91.3188 38.3111 92.0192 38.3172 141.755H24L24.0862 89.0361L24.4388 87.4969C24.6312 86.6503 24.9637 85.4389 25.1762 84.8032C25.3886 84.1691 25.8381 83.0608 26.1768 82.3404C26.514 81.6201 27.1575 80.478 27.6086 79.8007C28.0581 79.1234 28.971 77.989 29.6376 77.2794C30.3057 76.5698 31.4049 75.5724 32.0823 75.0644C32.7597 74.5565 34.0759 73.7746 35.0073 73.3251C35.9387 72.8756 37.1518 72.3923 37.7014 72.2492Z" fill="black"/>
<path d="M306.664 16.8965C307.336 16.7024 308.437 16.4583 309.109 16.3551C310.115 16.1998 315.599 16.0163 322.332 16V51.3948H295.051C276.079 51.3948 272.331 51.3723 272.054 51.2548C271.871 51.1772 271.608 50.9892 271.468 50.8359C271.293 50.6439 271.201 50.4089 271.175 50.082C271.151 49.7918 271.196 49.4874 271.289 49.3004C271.373 49.1319 277.586 42.7641 285.096 35.1509C292.606 27.5378 299.156 20.98 299.651 20.5795C300.146 20.179 300.942 19.5977 301.418 19.2892C301.894 18.9796 302.696 18.5199 303.201 18.2676C303.705 18.0142 304.415 17.6822 304.78 17.5289C305.144 17.3757 305.992 17.0917 306.664 16.8965Z" fill="url(#paint0_linear_7579_22223)"/>
<path d="M322.333 51.3948L322.33 33.2893L322.333 16L349.034 16.0551L349.911 16.3307C350.393 16.482 351.069 16.7466 351.414 16.9189C351.758 17.0903 352.333 17.425 352.691 17.6625C353.05 17.9 353.616 18.357 353.952 18.6776C354.287 18.9993 354.777 19.5545 355.04 19.9132C355.304 20.271 355.69 20.9023 355.897 21.3162C356.106 21.729 356.393 22.4395 356.537 22.8945C356.689 23.3705 356.842 24.1782 356.9 24.7985C356.96 25.4479 356.9 31.6032 356.9 51.3948H322.333Z" fill="url(#paint1_linear_7579_22223)"/>
<path d="M322.513 101.151C322.334 100.813 322.328 100.023 322.328 78.3285L322.333 51.3948H356.9L357 58.9879C357 60.7095 356.952 62.6375 356.894 63.2719C356.837 63.9052 356.699 64.8753 356.59 65.4264C356.479 65.9776 356.188 67.0368 355.941 67.7814C355.695 68.5249 355.25 69.6302 354.953 70.2365C354.656 70.8428 354.097 71.8118 353.712 72.391C353.326 72.9693 352.741 73.7589 352.411 74.1447C352.081 74.5305 345.734 80.8659 338.306 88.2243C330.879 95.5818 324.685 101.681 324.542 101.777C324.394 101.876 324.088 101.953 323.831 101.955C323.524 101.957 323.272 101.886 323.04 101.73C322.853 101.604 322.615 101.344 322.513 101.151Z" fill="url(#paint2_linear_7579_22223)"/>
<defs>
<linearGradient id="paint0_linear_7579_22223" x1="325.064" y1="6.14218" x2="271.95" y2="50.5668" gradientUnits="userSpaceOnUse">
<stop stop-color="#FF0CAB"/>
<stop offset="0.173021" stop-color="#FF2C8C"/>
<stop offset="0.331446" stop-color="#FF5268"/>
<stop offset="0.432476" stop-color="#FF615B"/>
<stop offset="0.505161" stop-color="#FF6E4E"/>
<stop offset="0.614369" stop-color="#FF843B"/>
<stop offset="0.775696" stop-color="#FF8F31"/>
<stop offset="0.932692" stop-color="#FFC700"/>
</linearGradient>
<linearGradient id="paint1_linear_7579_22223" x1="350.51" y1="17.2641" x2="322.328" y2="48.7178" gradientUnits="userSpaceOnUse">
<stop stop-color="#9359E9"/>
<stop offset="0.436303" stop-color="#7E40D5"/>
<stop offset="0.701465" stop-color="#6A29C2"/>
<stop offset="0.824254" stop-color="#601BB8"/>
<stop offset="0.901359" stop-color="#5610AF"/>
<stop offset="1" stop-color="#550DAE"/>
</linearGradient>
<linearGradient id="paint2_linear_7579_22223" x1="346.271" y1="48.5691" x2="323.592" y2="101.959" gradientUnits="userSpaceOnUse">
<stop offset="0.0388194" stop-color="#FF3D7C"/>
<stop offset="0.110112" stop-color="#FF4773"/>
<stop offset="0.116045" stop-color="#FF4872"/>
<stop offset="0.218125" stop-color="#FF5368"/>
<stop offset="0.362431" stop-color="#FF6E4E"/>
<stop offset="0.487092" stop-color="#FF7747"/>
<stop offset="0.600376" stop-color="#FF7F3F"/>
<stop offset="0.692694" stop-color="#FF962B"/>
<stop offset="0.834909" stop-color="#FFB014"/>
<stop offset="0.932692" stop-color="#FFC700"/>
</linearGradient>
</defs>
</svg>
