<svg width="380" height="160" viewBox="0 0 380 160" fill="none" xmlns="http://www.w3.org/2000/svg">
<rect width="380" height="160" fill="white"/>
<path fill-rule="evenodd" clip-rule="evenodd" d="M269.689 71.5848C267.706 71.2829 266.381 71.0812 264.935 71.1466C264.378 71.1917 262.066 71.5452 259.784 71.9288C257.51 72.3123 253.443 73.6961 250.747 74.9972C247.666 76.4863 244.179 79.0584 241.333 81.9312C238.847 84.4431 235.903 88.1809 234.788 90.2416C233.673 92.3098 232.235 96.025 231.587 98.5068C230.94 100.989 230.412 105.05 230.42 107.532C230.428 110.013 230.879 113.736 231.437 115.804C231.986 117.872 233.425 121.55 234.63 123.972C235.827 126.401 238.727 130.297 241.062 132.621C243.396 134.952 246.951 137.772 248.969 138.885C250.98 139.998 254.663 141.435 257.148 142.082C259.633 142.728 263.444 143.262 265.621 143.262C267.797 143.255 271.352 142.879 273.529 142.42C275.705 141.961 279.689 140.45 282.378 139.066C285.202 137.614 289.073 134.711 291.528 132.192C294.028 129.627 296.732 125.829 298.103 122.949C299.376 120.264 300.814 116.203 301.296 113.924C301.778 111.645 301.665 107.156 301.665 107.156H294.006H287.24C287.24 107.156 286.399 112.315 285.774 114.488C284.961 117.323 283.628 119.459 281.06 122.054C278.718 124.431 276.187 126.115 273.717 126.95C271.646 127.657 268.43 128.228 266.562 128.221C264.702 128.213 261.9 127.867 260.349 127.454C258.798 127.048 257.517 126.627 257.51 126.521C257.502 126.416 274.896 108.239 274.896 108.239L285.009 98.1265L288.614 94.4086L290.735 91.7316L291.553 90.2445L291.85 88.7573C292.445 86.5265 291.553 83.8496 291.553 83.8496C290.679 82.1701 290.579 81.6635 288.614 79.6855C287.047 78.1062 283.733 75.9974 281.248 74.7941C278.748 73.5908 274.319 72.2597 271.337 71.831C270.737 71.7443 270.192 71.6613 269.689 71.5848ZM252.976 90.9034C251.545 92.0992 249.655 94.1298 248.789 95.4158C247.915 96.7018 246.77 99.1084 246.243 100.763C245.686 102.5 245.407 106.042 245.565 109.164C245.723 112.127 246.115 114.834 246.439 115.18C246.755 115.519 253.232 109.713 260.823 102.267C268.415 94.8217 274.673 88.4742 274.734 88.1659C274.794 87.8575 273.152 87.2634 271.081 86.8498C269.01 86.4361 266.381 86.1052 265.244 86.1203C264.107 86.1353 261.464 86.7294 259.377 87.4364C257.291 88.1508 254.407 89.7076 252.976 90.9034Z" fill="black"/>
<path d="M163.704 77.2235C162.853 75.0654 162.157 73.2461 162.158 73.1814C162.16 73.1168 165.839 73.0829 178.511 73.1445L178.72 73.6832C178.834 73.9787 180.84 79.3476 183.177 85.6123C185.514 91.877 189.043 101.331 191.019 106.623C192.996 111.913 194.905 117.039 195.262 118.013C195.619 118.988 196.043 119.974 196.201 120.207C196.423 120.533 196.612 120.63 197.028 120.63C197.417 120.63 197.628 120.535 197.791 120.284C197.915 120.093 201.96 109.512 206.782 96.7718C211.605 84.0315 215.591 73.4846 215.642 73.3369C215.726 73.0844 216.251 73.0675 223.738 73.0675C231.292 73.0675 231.739 73.0829 231.656 73.3369C231.608 73.4846 226.023 87.6318 219.244 104.776C212.464 121.918 206.762 136.256 206.57 136.638C206.377 137.02 205.901 137.763 205.512 138.293C205.121 138.822 204.334 139.641 203.763 140.112C203.192 140.585 202.17 141.239 201.492 141.568C200.815 141.898 199.811 142.272 199.26 142.401C198.709 142.53 197.601 142.637 196.797 142.637C195.887 142.637 194.926 142.53 194.257 142.358C193.664 142.204 192.799 141.907 192.332 141.698C191.866 141.487 191.105 141.031 190.639 140.685C190.173 140.34 189.474 139.72 189.083 139.309C188.693 138.898 188.127 138.181 187.826 137.716C187.526 137.251 187.135 136.558 186.96 136.176C186.783 135.795 185.7 133.095 184.553 130.173C183.406 127.252 181.608 122.682 180.557 120.014C179.507 117.347 177.772 112.949 176.702 110.24C175.632 107.531 174.42 104.448 174.009 103.391C173.597 102.332 172.318 99.0776 171.164 96.1561C170.011 93.2347 168.21 88.6631 167.16 85.9971C166.11 83.3296 164.555 79.3815 163.704 77.2235Z" fill="black"/>
<path fill-rule="evenodd" clip-rule="evenodd" d="M131.299 72.0441C133.489 71.977 137.066 72.305 139.256 72.7598C141.446 73.222 144.856 74.3999 146.833 75.3691C148.811 76.3458 151.691 78.4034 153.229 79.9392C154.768 81.475 156.897 84.5764 157.965 86.8353C159.898 90.9208 159.905 91.0028 159.905 131.939L159.259 133.19L158.292 134.528L157.251 135.792C155.652 137.835 152.494 140.2 150.569 141.236C147.152 143.07 146.652 143.122 132.261 143.122C118.083 143.122 117.302 143.048 113.362 141.259C110.823 140.103 107.996 137.978 105.943 135.667C104.117 133.617 102.124 130.426 101.517 128.585C100.904 126.743 100.411 123.217 100.419 120.757C100.426 117.655 100.979 115.135 102.199 112.556C103.177 110.506 104.965 107.702 106.17 106.331C107.383 104.959 110.421 102.857 112.922 101.656C117.461 99.4868 117.499 99.4794 145.886 99.5092L145.409 96.7135C145.144 95.1777 144.462 92.9933 143.893 91.8676C143.317 90.7418 141.749 89.2284 140.392 88.5127C138.513 87.5137 135.953 86.1932 130.459 86.2379C125.716 86.2752 116.698 88.8599 116.698 88.8599L109.421 90.056L107.483 84.0313L106.614 80.8115L105.943 77.1661C105.943 77.1661 108.878 75.7478 114.394 74.5251C118.987 73.5112 123.759 72.6853 125.024 72.4989C126.29 72.3125 129.109 72.1112 131.299 72.0441ZM115.355 119.333C115.014 120.563 115.097 122.546 115.544 123.925C116.029 125.424 117.204 126.773 118.606 127.466C120.333 128.316 123.334 128.585 132.261 128.585C143.249 128.585 144.416 128.488 145.128 127.094C145.545 126.273 145.886 123.09 145.886 120.011V114.42C121.152 114.42 119.379 114.584 117.772 115.791C116.772 116.544 115.681 118.14 115.355 119.333Z" fill="black"/>
<path d="M37.7014 72.249C38.251 72.1059 39.2563 71.9027 39.9337 71.798C40.6111 71.6934 42.0305 71.6241 43.0896 71.6457C44.1473 71.6657 45.4989 71.7888 46.0916 71.9196C46.6843 72.0505 47.6542 72.3399 48.2469 72.5615C48.8396 72.7832 49.9758 73.325 50.7701 73.7652C51.5661 74.207 52.8485 75.092 53.6182 75.7354C54.3895 76.3773 55.4748 77.4517 56.0306 78.1212C56.5863 78.7908 57.3207 79.7898 57.664 80.3393C58.0073 80.8888 58.5045 81.7723 58.7709 82.3018C59.0372 82.8313 59.4575 83.8703 59.7069 84.6107C59.9563 85.3511 62.3071 94.3726 64.9319 104.659C67.5567 114.946 69.8167 123.672 69.9522 124.054C70.0892 124.436 70.3878 125.037 70.6157 125.393C70.8451 125.748 71.2392 126.164 71.4916 126.316C71.7441 126.469 72.1598 126.675 72.4153 126.774C72.6709 126.874 73.2605 126.958 73.7254 126.964C74.1904 126.969 74.8431 126.888 75.1756 126.783C75.5066 126.68 76.0886 126.316 76.4673 125.978C76.8444 125.639 77.3355 125.016 77.959 123.823L78.113 72.5661H80.3068C81.5137 72.5661 84.7174 72.5831 92.3532 72.6431L92.2686 125.516L91.8637 127.132C91.642 128.02 91.3049 129.198 91.1155 129.749C90.9246 130.3 90.472 131.373 90.1087 132.135C89.7454 132.897 89.0788 134.07 88.6292 134.742C88.1797 135.415 87.2929 136.514 86.6571 137.185C86.0229 137.856 85.053 138.737 84.5019 139.143C83.9523 139.548 82.9824 140.159 82.3466 140.501C81.7123 140.842 80.5685 141.33 79.8064 141.584C79.0444 141.84 77.7974 142.155 77.0353 142.288C76.2733 142.42 74.9216 142.528 74.0333 142.528C73.1451 142.528 71.7934 142.422 71.0313 142.291C70.2693 142.161 69.1947 141.909 68.6451 141.732C68.0955 141.555 66.9517 141.062 66.105 140.638C65.2583 140.213 64.3623 139.719 64.1129 139.54C63.8635 139.362 63.4832 139.077 63.2692 138.907C63.0537 138.738 62.3671 138.115 61.7421 137.522C61.1186 136.93 60.1656 135.855 59.6253 135.136C59.0849 134.417 58.2675 133.1 57.8087 132.212C57.3499 131.324 56.7665 130.006 56.5155 129.287C56.263 128.568 53.8999 119.545 51.2659 109.239C48.3208 97.7143 46.3287 90.2012 46.0916 89.7287C45.8807 89.3054 45.4466 88.6851 45.1295 88.3526C44.8123 88.0186 44.2751 87.6261 43.9364 87.4814C43.5977 87.3367 42.9049 87.2136 42.3969 87.2074C41.6995 87.1997 41.2854 87.2936 40.7034 87.5876C40.2478 87.8185 39.7259 88.2556 39.421 88.6604C39.1409 89.036 38.7745 89.7933 38.6097 90.3444C38.3188 91.3187 38.3111 92.0191 38.3172 141.755H24L24.0862 89.036L24.4388 87.4968C24.6312 86.6502 24.9637 85.4388 25.1762 84.8031C25.3886 84.1689 25.8381 83.0607 26.1768 82.3403C26.514 81.6199 27.1575 80.4778 27.6086 79.8006C28.0581 79.1233 28.971 77.9889 29.6376 77.2793C30.3057 76.5697 31.4049 75.5723 32.0823 75.0643C32.7597 74.5564 34.0759 73.7744 35.0073 73.325C35.9387 72.8755 37.1518 72.3922 37.7014 72.249Z" fill="black"/>
<path d="M306.664 16.8965C307.336 16.7024 308.436 16.4583 309.109 16.3551C310.115 16.1998 315.598 16.0163 322.332 16V51.3948H295.051C276.078 51.3948 272.331 51.3723 272.053 51.2548C271.871 51.1772 271.607 50.9892 271.468 50.8359C271.293 50.6439 271.201 50.4089 271.174 50.082C271.151 49.7918 271.196 49.4874 271.288 49.3004C271.373 49.1319 277.586 42.7641 285.096 35.1509C292.606 27.5378 299.156 20.98 299.651 20.5795C300.146 20.179 300.942 19.5977 301.418 19.2892C301.893 18.9796 302.696 18.5199 303.2 18.2676C303.705 18.0142 304.415 17.6822 304.779 17.5289C305.144 17.3757 305.992 17.0917 306.664 16.8965Z" fill="url(#paint0_linear_7579_22223)"/>
<path d="M322.332 51.3948L322.329 33.2893L322.332 16L349.033 16.0551L349.91 16.3307C350.392 16.482 351.068 16.7466 351.413 16.9189C351.758 17.0903 352.332 17.425 352.691 17.6625C353.05 17.9 353.616 18.357 353.952 18.6776C354.286 18.9993 354.776 19.5545 355.04 19.9132C355.303 20.271 355.689 20.9023 355.897 21.3162C356.105 21.729 356.393 22.4395 356.537 22.8945C356.688 23.3705 356.842 24.1782 356.9 24.7985C356.96 25.4479 356.9 31.6032 356.9 51.3948H322.332Z" fill="url(#paint1_linear_7579_22223)"/>
<path d="M322.513 101.151C322.333 100.813 322.327 100.023 322.327 78.3285L322.332 51.3948H356.9L357 58.9879C357 60.7095 356.952 62.6375 356.894 63.2719C356.837 63.9052 356.698 64.8753 356.589 65.4264C356.479 65.9776 356.187 67.0368 355.941 67.7814C355.694 68.5249 355.249 69.6302 354.953 70.2365C354.655 70.8428 354.097 71.8118 353.711 72.391C353.325 72.9693 352.74 73.7589 352.41 74.1447C352.081 74.5305 345.733 80.8659 338.306 88.2243C330.878 95.5818 324.684 101.681 324.542 101.777C324.393 101.876 324.088 101.953 323.83 101.955C323.524 101.957 323.271 101.886 323.04 101.73C322.852 101.604 322.615 101.344 322.513 101.151Z" fill="url(#paint2_linear_7579_22223)"/>
<defs>
<linearGradient id="paint0_linear_7579_22223" x1="325.064" y1="6.14218" x2="271.95" y2="50.5668" gradientUnits="userSpaceOnUse">
<stop stop-color="#FF0CAB"/>
<stop offset="0.173021" stop-color="#FF2C8C"/>
<stop offset="0.331446" stop-color="#FF5268"/>
<stop offset="0.432476" stop-color="#FF615B"/>
<stop offset="0.505161" stop-color="#FF6E4E"/>
<stop offset="0.614369" stop-color="#FF843B"/>
<stop offset="0.775696" stop-color="#FF8F31"/>
<stop offset="0.932692" stop-color="#FFC700"/>
</linearGradient>
<linearGradient id="paint1_linear_7579_22223" x1="350.509" y1="17.2641" x2="322.327" y2="48.7178" gradientUnits="userSpaceOnUse">
<stop stop-color="#9359E9"/>
<stop offset="0.436303" stop-color="#7E40D5"/>
<stop offset="0.701465" stop-color="#6A29C2"/>
<stop offset="0.824254" stop-color="#601BB8"/>
<stop offset="0.901359" stop-color="#5610AF"/>
<stop offset="1" stop-color="#550DAE"/>
</linearGradient>
<linearGradient id="paint2_linear_7579_22223" x1="346.271" y1="48.5691" x2="323.591" y2="101.959" gradientUnits="userSpaceOnUse">
<stop offset="0.0388194" stop-color="#FF3D7C"/>
<stop offset="0.110112" stop-color="#FF4773"/>
<stop offset="0.116045" stop-color="#FF4872"/>
<stop offset="0.218125" stop-color="#FF5368"/>
<stop offset="0.362431" stop-color="#FF6E4E"/>
<stop offset="0.487092" stop-color="#FF7747"/>
<stop offset="0.600376" stop-color="#FF7F3F"/>
<stop offset="0.692694" stop-color="#FF962B"/>
<stop offset="0.834909" stop-color="#FFB014"/>
<stop offset="0.932692" stop-color="#FFC700"/>
</linearGradient>
</defs>
</svg>
