<svg width="380" height="160" viewBox="0 0 380 160" fill="none" xmlns="http://www.w3.org/2000/svg">
<rect width="380" height="160" fill="white"/>
<path d="M174.284 104.378C174.284 104.378 163.028 73.7642 162.816 73.0377L178.773 73.0377L182.835 84.2604L186.897 95.4832C191.592 108.322 195.752 118.781 196.147 118.722C196.543 118.662 213.36 73.0377 213.36 73.0377L221.896 73.0377L229.392 73.0377L217.835 104.074C211.133 121.242 205.134 136.082 204.497 137.061C203.86 138.047 202.131 139.433 200.652 140.144C199.172 140.856 196.894 141.441 195.583 141.441C194.272 141.434 192.134 140.767 190.823 139.959C189.511 139.144 187.864 137.557 187.168 136.438C186.465 135.319 180.664 120.894 174.284 104.378Z" fill="black"/>
<path fill-rule="evenodd" clip-rule="evenodd" d="M264.836 71.3521C262.907 71.0546 261.619 70.8558 260.213 70.9202C259.671 70.9647 257.422 71.3131 255.203 71.6911C252.991 72.0692 249.036 73.4331 246.414 74.7155C243.418 76.1832 240.027 78.7183 237.259 81.5499C234.842 84.0258 231.978 87.7098 230.894 89.7409C229.81 91.7794 228.411 95.4412 227.781 97.8874C227.151 100.334 226.639 104.336 226.646 106.783C226.653 109.229 227.093 112.898 227.635 114.936C228.169 116.975 229.568 120.6 230.74 122.987C231.905 125.381 234.725 129.221 236.995 131.511C239.266 133.809 242.723 136.589 244.686 137.686C246.641 138.783 250.223 140.199 252.64 140.836C255.057 141.474 258.763 142 260.88 142C262.996 141.993 266.453 141.622 268.57 141.17C270.687 140.718 274.561 139.228 277.176 137.864C279.923 136.433 283.687 133.572 286.075 131.089C288.507 128.561 291.136 124.817 292.469 121.978C293.707 119.332 295.106 115.329 295.575 113.083C296.043 110.837 296.219 108.421 295.956 107.709C295.553 106.597 294.491 106.412 288.529 106.412C281.798 106.412 281.571 106.464 281.578 108.08C281.585 108.999 281.087 111.497 280.479 113.639C279.688 116.434 278.392 118.539 275.894 121.096C273.617 123.439 271.156 125.099 268.753 125.922C266.739 126.619 263.612 127.182 261.795 127.175C259.986 127.167 257.261 126.826 255.753 126.419C254.244 126.018 252.999 125.603 252.991 125.499C252.984 125.396 261.159 115.736 269.457 107.375C277.748 99.0132 288.249 86.9268 288.249 86.8927C288.249 86.8585 287.284 84.9423 287.284 84.9423C286.435 83.2869 285.152 81.4462 283.241 79.4966C281.717 77.94 278.494 75.7014 276.077 74.5153C273.646 73.3293 269.339 72.0173 266.439 71.5948C265.855 71.5093 265.325 71.4276 264.836 71.3521ZM248.582 90.3932C247.19 91.5718 245.352 93.5732 244.51 94.8408C243.66 96.1083 242.547 98.4804 242.034 100.111C241.492 101.823 241.221 105.315 241.375 108.391C241.529 111.312 241.91 113.98 242.225 114.321C242.532 114.655 248.831 108.932 256.214 101.594C263.597 94.2552 269.683 87.9989 269.742 87.695C269.801 87.3911 268.204 86.8055 266.19 86.3978C264.176 85.9901 261.619 85.6639 260.513 85.6788C259.407 85.6936 256.837 86.2792 254.808 86.976C252.779 87.6802 249.974 89.2146 248.582 90.3932Z" fill="black"/>
<path d="M37.9581 75.0852C39.3643 73.9288 41.932 72.8263 43.5433 72.2407C45.1547 71.6477 47.3698 71.2803 48.5783 71.2655C49.7868 71.2581 52.072 71.2084 53.6614 71.7124C55.2507 72.2091 58.0486 73.9881 59.887 75.6485C61.7254 77.309 63.8568 79.9775 64.6185 81.5787C65.3876 83.1798 68.2953 93.4908 71.0859 104.499C73.8764 115.506 76.5498 124.757 77.0185 125.054C77.4873 125.358 78.2152 125.704 79.0208 125.726C79.8265 125.749 81.3032 125.128 81.9038 124.431C82.8194 123.386 81.3158 120.287 81.9897 73.2691H90.2282H96.9823C97.2825 73.7287 96.9823 99.9963 96.9823 99.9963C96.7405 125.614 97.5119 126.047 95.7614 129.916C94.7873 132.074 93.6593 133.838 93.2565 133.83C92.8537 133.83 92.5817 134.727 90.9704 136.477C89.2638 138.337 85.4415 140.613 83.7349 141.169C82.0064 141.732 79.5308 141.932 77.6924 141.658C75.9785 141.399 73.5102 140.65 72.1992 139.998C70.8881 139.338 68.7201 137.752 67.3724 136.477C66.0321 135.194 64.5307 133.608 63.8056 132.178C63.0731 130.747 59.405 120.623 56.6804 109.823C53.9557 99.0157 51.8449 89.0802 51.2077 88.3538C50.5632 87.6274 49.384 87.0269 48.5783 87.0195C47.7726 87.0195 46.7179 87.442 46.2272 87.9758C45.5753 88.6725 45.3939 95.3144 45.0277 140.279H37.9025H31L31.0742 85.9685L31.3711 84.8432L31.8906 83.718L33.1973 81.208C34.4058 78.9991 36.5518 76.2416 37.9581 75.0852Z" fill="black"/>
<path fill-rule="evenodd" clip-rule="evenodd" d="M133.434 71.2694C135.551 71.2027 139.008 71.5289 141.125 71.981C143.241 72.4406 146.537 73.6118 148.449 74.5754C150.361 75.5465 153.144 77.5924 154.631 79.1194C156.118 80.6464 158.176 83.73 159.208 85.9761C161.076 90.0382 161.083 90.1197 161.083 130.822L158.264 134.507C156.718 136.538 153.92 139.036 152.06 140.066C148.757 141.89 148.273 141.941 134.364 141.941C120.661 141.941 119.906 141.867 116.098 140.088C113.644 138.939 110.912 136.827 108.927 134.529C107.162 132.49 105.236 129.318 104.65 127.487C104.056 125.656 103.58 122.15 103.588 119.704C103.595 116.62 104.13 114.114 105.309 111.55C106.254 109.511 107.982 106.724 109.147 105.36C110.319 103.996 113.256 101.906 115.673 100.712C120.06 98.5553 120.097 98.5479 147.533 98.5775L147.072 95.7978C146.816 94.2708 146.157 92.0989 145.607 90.9796C145.051 89.8603 143.534 88.3555 142.223 87.6439C140.407 86.6506 138.195 86.3615 132.885 86.406C128.3 86.4431 119.322 87.9891 119.322 87.9891L112.289 89.1783L110.416 83.1881L109.575 79.9867L108.876 76.777C108.876 76.777 111.764 74.9519 117.096 73.7362C121.534 72.7281 126.147 71.9069 127.37 71.7216C128.593 71.5363 131.318 71.3361 133.434 71.2694ZM118.024 118.288C117.694 119.511 117.775 121.483 118.207 122.854C118.676 124.344 119.811 125.686 121.166 126.375C122.836 127.22 125.736 127.487 134.364 127.487C144.985 127.487 146.113 127.39 146.801 126.004C147.204 125.189 147.533 122.024 147.533 118.962V113.403C123.627 113.403 121.913 113.566 120.36 114.767C119.394 115.515 118.339 117.102 118.024 118.288Z" fill="black"/>
<path d="M348.932 50.6402C348.932 50.6402 348.886 44.9935 348.932 38.1536C348.932 38.1536 349.159 27.5985 348.783 25.5182C348.408 23.4379 346.815 21.0873 346.035 20.3154C345.191 19.4812 343.735 18.6554 342.692 18.3057C341.166 17.79 328.206 18.0828 328.206 18.0828H321.965H315.205C315.241 24.4701 315.205 50.6402 315.205 50.6402H316.393H319.179H321.965H330.88H348.932Z" fill="url(#paint0_linear_7554_21862)"/>
<path d="M315.692 80.3486C315.761 90.9995 315.664 99.5465 315.702 99.8732C315.725 100.071 315.651 100.446 317.093 99.9209C317.516 99.767 319.733 97.5204 319.733 97.5204C320.82 96.4839 338.727 79.0351 339.628 78.1769C344.437 73.2126 346.485 71.076 346.861 70.6173C347.474 69.8689 348.337 68.4524 348.625 67.4738C348.935 66.4098 348.932 50.6402 348.932 50.6402H315.205L315.692 80.3486Z" fill="url(#paint1_linear_7554_21862)"/>
<path d="M285.006 50.5667C273.998 50.6446 265.166 50.8536 264.828 50.8218C264.624 50.8026 264.237 50.8788 264.761 49.489C264.915 49.0817 267.208 46.9262 267.208 46.9262C268.265 45.8699 286.068 28.4683 286.943 27.5934C292.012 22.9164 294.194 20.9246 294.663 20.5579C295.428 19.9596 296.881 19.1138 297.889 18.8242C298.984 18.5125 315.205 18.0828 315.205 18.0828V50.6402L285.006 50.5667Z" fill="url(#paint2_linear_7554_21862)"/>
<defs>
<linearGradient id="paint0_linear_7554_21862" x1="264.498" y1="35.7786" x2="303.526" y2="-4.98982" gradientUnits="userSpaceOnUse">
<stop stop-color="#2F1255"/>
<stop offset="0.370092" stop-color="#5A24A1"/>
<stop offset="0.403846" stop-color="#481D82"/>
<stop offset="0.427885" stop-color="#6E2DC5"/>
<stop offset="0.471154" stop-color="#7231C9"/>
<stop offset="0.615385" stop-color="#7738CE"/>
<stop offset="0.673077" stop-color="#8346DA"/>
<stop offset="0.807692" stop-color="#9258E8"/>
<stop offset="0.911446" stop-color="#9258E8"/>
</linearGradient>
<linearGradient id="paint1_linear_7554_21862" x1="252.474" y1="38.6292" x2="282.603" y2="11.1183" gradientUnits="userSpaceOnUse">
<stop stop-color="#FF982C"/>
<stop offset="0.329071" stop-color="#FF7E44"/>
<stop offset="0.591023" stop-color="#FF605F"/>
<stop offset="0.817308" stop-color="#FF5D63"/>
<stop offset="1" stop-color="#FF4D71"/>
</linearGradient>
<linearGradient id="paint2_linear_7554_21862" x1="252.474" y1="38.6292" x2="282.603" y2="11.1183" gradientUnits="userSpaceOnUse">
<stop stop-color="#FF982C"/>
<stop offset="0.329071" stop-color="#FF7E44"/>
<stop offset="0.591023" stop-color="#FF605F"/>
<stop offset="0.817308" stop-color="#FF5D63"/>
<stop offset="1" stop-color="#FF4D71"/>
</linearGradient>
</defs>
</svg>
