<svg width="380" height="160" viewBox="0 0 380 160" fill="none" xmlns="http://www.w3.org/2000/svg">
<path d="M54.6983 32.7764C61.0879 32.7764 61.4228 32.1696 61.4228 26.7791C61.4228 20.4534 61.0879 20.384 54.6983 20.384H49.8384V32.7072C51.1024 32.7764 52.8343 32.7764 54.6983 32.7764ZM329.729 33.3707C329.729 21.1854 329.399 20.384 323.206 20.384C317.013 20.384 316.747 21.1854 316.747 33.3707C316.747 45.4854 317.013 46.2879 323.206 46.2879C329.399 46.2879 329.729 45.4854 329.729 33.3707ZM302.029 33.3707C302.029 15.1947 305.422 10 323.199 10C341.041 10 344.302 15.188 344.302 33.3707C344.302 51.4134 341.041 56.602 323.199 56.602C305.422 56.6082 302.029 51.4196 302.029 33.3707ZM285.319 10.664H300.234L287.721 55.9384H266.613L254.03 10.664H268.945L277.154 47.9504L285.319 10.664ZM234.318 10.664H249.094V55.9384H234.318V10.664ZM202.297 20.8507H190.111V10.664H229.13V20.8507H217.009V55.9447H202.297V20.8507ZM170.142 10.664H184.923V55.9384H170.142V10.664ZM127.976 45.6879C127.976 45.6879 133.702 46.0858 140.628 46.0858C148.882 46.0858 151.144 45.4854 151.144 43.027C151.144 41.302 150.55 40.4994 147.75 39.8296L138.429 37.5035C129.107 34.9062 127.04 32.4478 127.04 24.188C127.04 14.4747 132.893 10.0187 147.852 10.0067H147.966C154.93 10.0134 161.869 10.7334 161.869 10.7334L161.73 20.984C161.73 20.984 155.543 20.6547 149.419 20.6547C142.562 20.6547 140.831 21.1227 140.831 23.644C140.831 25.5787 141.76 26.3114 144.894 26.9811L154.412 29.1114C163.733 31.4431 164.871 35.2348 164.871 42.49C164.871 53.4103 158.077 56.602 143.636 56.602C136.11 56.602 127.919 55.8691 127.919 55.8691L127.976 45.6879ZM108.157 33.3707C108.157 21.1854 107.829 20.384 101.635 20.384C95.442 20.384 95.1764 21.1854 95.1764 33.3707C95.1764 45.4854 95.442 46.2879 101.635 46.2879C107.829 46.2879 108.157 45.4854 108.157 33.3707ZM80.4576 33.3707C80.4576 15.1947 83.8514 10 101.635 10C119.476 10 122.743 15.188 122.743 33.3707C122.743 51.4134 119.476 56.602 101.635 56.602C83.8514 56.6082 80.4576 51.4196 80.4576 33.3707ZM35.0566 10.676C35.0566 10.676 43.5822 10.6827 53.2322 10.6827C72.078 10.6827 76.1352 13.1347 76.1352 26.7854C76.1352 39.2354 71.6734 41.9655 54.3634 41.9655H49.8322V55.951H35.0566V10.676Z" fill="white"/>
<path d="M36.5609 104.227C36.087 104.076 35.7453 103.88 35.537 103.634C35.3286 103.387 35.2208 103.027 35.2208 102.553V101.586C35.2208 101.238 35.3224 100.96 35.5182 100.746C35.7141 100.537 35.9922 100.429 36.3396 100.429C36.5104 100.429 37.2937 100.619 38.6844 100.992C40.0745 101.365 41.5661 101.548 43.152 101.548H44.012C46.2995 101.548 47.8796 101.207 48.764 100.524C49.649 99.8418 50.0848 98.8429 50.0848 97.5221V97.3705C50.0848 96.5491 49.9334 95.9237 49.6364 95.4871C49.3396 95.0513 48.7198 94.6465 47.7911 94.2741C46.862 93.9013 45.364 93.4778 43.3042 93.0101C39.9734 92.2387 37.7552 91.4174 36.6557 90.5325C35.5495 89.6543 35 88.2007 35 86.1907V86.0773C35 83.5429 35.6635 81.7101 36.9906 80.5789C38.3177 79.4475 40.7255 78.8851 44.2015 78.8851H45.4339C47.9682 78.8851 50.1547 79.1445 51.9938 79.6689C52.8594 79.9153 53.2954 80.4398 53.2954 81.2361V82.3169C53.2954 82.6642 53.1943 82.9423 52.9984 83.1574C52.8026 83.3658 52.5244 83.4737 52.1771 83.4737C52 83.4737 51.2354 83.2903 49.864 82.9174C48.499 82.5445 46.9948 82.3549 45.3578 82.3549H44.4667C42.3307 82.3549 40.8708 82.6267 40.0875 83.1762C39.3036 83.7199 38.912 84.6174 38.912 85.8559V86.0773C38.912 87.0439 39.3036 87.7579 40.0875 88.2194C40.8708 88.6809 42.5771 89.1803 45.2126 89.7298C48.7391 90.5262 51.0839 91.4049 52.2339 92.3715C53.3902 93.3387 53.9656 94.9185 53.9656 97.1049V97.257C53.9656 99.8923 53.264 101.832 51.861 103.09C50.4578 104.348 47.9807 104.973 44.4292 104.973H42.9375C40.3021 104.973 38.1786 104.727 36.5609 104.227Z" fill="white"/>
<path d="M74.8081 83.8903C74.0753 82.8731 72.5018 82.3611 70.0941 82.3611H66.9654C64.5832 82.3611 63.0222 82.8731 62.2889 83.8903C61.5561 84.9079 61.1894 87.0819 61.1894 90.4127V93.2439C61.1894 96.6689 61.5561 98.9127 62.2889 99.9679C63.0222 101.024 64.5832 101.554 66.9654 101.554H70.0941C71.3389 101.554 72.3124 101.447 73.0196 101.238C73.728 101.03 74.3092 100.606 74.7706 99.9741C75.2316 99.3423 75.5352 98.5079 75.6868 97.4778C75.8321 96.4475 75.9081 95.0387 75.9081 93.2502V90.4189C75.9081 87.0819 75.5414 84.9079 74.8081 83.8903ZM70.1696 78.8981C71.9837 78.8981 73.4685 79.0622 74.6248 79.3846C75.7816 79.707 76.7676 80.3007 77.5889 81.1538C78.4108 82.0137 78.9857 83.1699 79.3206 84.6361C79.6556 86.1022 79.8201 87.9918 79.8201 90.2986V93.3513C79.8201 96.4794 79.4852 98.8934 78.8149 100.581C78.1452 102.268 77.1466 103.425 75.8133 104.044C74.4862 104.664 72.6029 104.973 70.1696 104.973H66.89C64.4816 104.973 62.6113 104.664 61.2842 104.044C59.9572 103.425 58.9649 102.268 58.3014 100.581C57.6441 98.8934 57.3154 96.4794 57.3154 93.3513V90.2986C57.3154 87.2465 57.6441 84.8893 58.3014 83.2398C58.9581 81.5903 59.9509 80.4527 61.2842 79.8335C62.6113 79.2137 64.4816 78.9043 66.89 78.9043H70.1696V78.8981Z" fill="white"/>
<path d="M99.266 104.79H91.7769C88.7243 104.79 86.5821 104.102 85.3685 102.724C84.1488 101.346 83.542 98.704 83.542 94.8051V80.3139C83.542 79.966 83.6561 79.6754 83.8775 79.4415C84.0983 79.2076 84.3827 79.0879 84.7368 79.0879H86.1905C86.5633 79.0879 86.8603 79.2076 87.0879 79.4415C87.3087 79.6754 87.4228 79.966 87.4228 80.3139V94.9187C87.4228 97.6046 87.7452 99.3488 88.3895 100.152C89.0343 100.96 90.4499 101.365 92.6363 101.365H99.266C99.6133 101.365 99.904 101.479 100.144 101.7C100.378 101.921 100.498 102.218 100.498 102.597V103.602C100.498 103.949 100.378 104.234 100.144 104.462C99.904 104.676 99.6133 104.79 99.266 104.79Z" fill="white"/>
<path d="M114.319 104.973H112.682C110.274 104.973 108.41 104.664 107.096 104.044C105.781 103.425 104.789 102.268 104.113 100.581C103.442 98.8934 103.107 96.4794 103.107 93.3513V80.3137C103.107 79.9658 103.222 79.6751 103.442 79.4413C103.664 79.2074 103.954 79.0877 104.302 79.0877H105.755C106.128 79.0877 106.425 79.2074 106.653 79.4413C106.874 79.6751 106.988 79.9721 106.988 80.3137V93.2439C106.988 96.6689 107.354 98.9127 108.088 99.9679C108.82 101.024 110.375 101.554 112.764 101.554H114.256C115.494 101.554 116.474 101.447 117.182 101.238C117.89 101.03 118.471 100.606 118.932 99.9741C119.387 99.3423 119.697 98.5079 119.842 97.4778C119.988 96.4481 120.064 95.0387 120.064 93.2502V80.3199C120.064 79.9721 120.177 79.6814 120.399 79.4475C120.619 79.2137 120.917 79.0939 121.29 79.0939H122.743C123.091 79.0939 123.381 79.2137 123.615 79.4475C123.849 79.6814 123.969 79.9789 123.969 80.3199V93.3574C123.969 96.4855 123.634 98.8934 122.964 100.587C122.294 102.275 121.296 103.431 119.962 104.051C118.635 104.664 116.752 104.973 114.319 104.973Z" fill="white"/>
<path d="M136.223 110.97C135.503 110.8 135.142 110.415 135.142 109.814V109.441C135.142 108.917 135.414 108.657 135.964 108.657C136.09 108.657 136.413 108.752 136.931 108.935C137.456 109.119 137.949 109.214 138.423 109.214C139.364 109.214 139.838 108.929 139.838 108.354C139.838 108.032 139.744 107.811 139.56 107.685C139.377 107.558 139.023 107.501 138.498 107.501H137.866C137.146 107.501 136.786 107.128 136.786 106.382V105.453C136.786 105.055 136.552 104.847 136.078 104.821C132.975 104.651 130.801 103.741 129.556 102.104C128.311 100.467 127.691 97.522 127.691 93.2751V90.596C127.691 88.2131 127.875 86.2605 128.235 84.7433C128.595 83.2267 129.208 82.0387 130.08 81.1668C130.952 80.2944 131.995 79.7007 133.209 79.3783C134.428 79.0559 136.002 78.8912 137.942 78.8912H138.84C140.976 78.8912 142.948 79.1381 144.761 79.6371C145.254 79.7892 145.614 79.9788 145.842 80.2127C146.063 80.446 146.177 80.8001 146.177 81.274V82.3928C146.177 83.1131 145.816 83.4736 145.096 83.4736C144.97 83.4736 144.287 83.284 143.049 82.9111C141.803 82.5381 140.388 82.3548 138.802 82.3548H138.018C135.408 82.3548 133.683 82.8855 132.842 83.9412C131.995 84.9964 131.572 87.2021 131.572 90.5517V93.3069C131.572 96.6627 131.995 98.8745 132.842 99.936C133.683 101.004 135.414 101.535 138.018 101.535H138.877C140.47 101.535 141.892 101.352 143.162 100.979C144.426 100.606 145.122 100.417 145.248 100.417C145.968 100.417 146.328 100.764 146.328 101.459V102.654C146.328 103.128 146.209 103.475 145.975 103.696C145.735 103.918 145.38 104.107 144.913 104.253C143.624 104.651 141.898 104.859 139.737 104.885C139.415 104.885 139.25 105.024 139.25 105.295V105.479C139.25 105.751 139.44 105.902 139.813 105.928C140.754 105.978 141.418 106.205 141.803 106.616C142.189 107.027 142.379 107.628 142.379 108.424C142.379 109.416 142.075 110.124 141.468 110.547C140.862 110.97 139.857 111.179 138.467 111.179C137.494 111.198 136.748 111.123 136.223 110.97Z" fill="white"/>
<path d="M160.63 73.0461C159.587 72.5022 158.665 72.2241 157.875 72.2241C156.484 72.2241 155.302 72.7112 154.335 73.6778C153.691 74.3226 153.539 74.9226 153.887 75.4664L154.039 76.0226C154.234 76.345 154.506 76.5215 154.841 76.547C155.176 76.5721 155.441 76.4841 155.644 76.2877C156.415 75.5923 157.211 75.245 158.026 75.245C158.5 75.245 159.157 75.4408 160.004 75.8393C161.243 76.433 162.216 76.7366 162.911 76.7366C164.156 76.7366 165.199 76.3382 166.039 75.5418C166.76 74.9481 166.956 74.3033 166.634 73.6018L166.444 73.0773C166.274 72.7803 166.015 72.6289 165.679 72.6289C165.344 72.6289 165.054 72.7298 164.8 72.9257C164.156 73.4502 163.423 73.7095 162.602 73.7095C162.128 73.7158 161.47 73.4945 160.63 73.0461ZM166.571 83.8903C165.838 82.8731 164.27 82.3612 161.856 82.3612H158.728C156.345 82.3612 154.784 82.8731 154.051 83.8903C153.318 84.9079 152.952 87.0819 152.952 90.4127V93.2439C152.952 96.6689 153.318 98.9127 154.051 99.9679C154.784 101.024 156.345 101.554 158.728 101.554H161.856C163.1 101.554 164.074 101.447 164.782 101.238C165.49 101.03 166.071 100.606 166.532 99.9741C166.994 99.3423 167.298 98.5079 167.448 97.4778C167.594 96.4475 167.67 95.0387 167.67 93.2502V90.4189C167.67 87.0819 167.303 84.9079 166.571 83.8903ZM161.932 78.8981C163.746 78.8981 165.231 79.0622 166.387 79.3846C167.544 79.707 168.53 80.3007 169.351 81.1538C170.172 82.0137 170.748 83.1699 171.083 84.6361C171.418 86.1022 171.582 87.9918 171.582 90.2986V93.3513C171.582 96.4794 171.247 98.8934 170.578 100.581C169.907 102.268 168.908 103.425 167.582 104.044C166.255 104.664 164.371 104.973 161.938 104.973H158.658C156.251 104.973 154.38 104.664 153.053 104.044C151.726 103.425 150.733 102.268 150.069 100.581C149.413 98.8934 149.084 96.4855 149.084 93.3513V90.2986C149.084 87.2465 149.413 84.8893 150.069 83.2398C150.727 81.5903 151.719 80.4527 153.053 79.8335C154.38 79.2137 156.251 78.9043 158.658 78.9043H161.932V78.8981Z" fill="white"/>
<path d="M175.122 94.6153V89.2497C175.122 87.1387 175.267 85.4262 175.551 84.1117C175.835 82.797 176.329 81.7669 177.023 81.021C177.719 80.2757 178.559 79.7699 179.539 79.4918C180.518 79.2199 181.795 79.0809 183.357 79.0809H192.298C192.671 79.0809 192.969 79.2013 193.195 79.4351C193.417 79.6689 193.531 79.9658 193.531 80.3074V81.3122C193.531 81.6851 193.417 81.9819 193.195 82.2095C192.975 82.4303 192.678 82.5445 192.298 82.5445H184.254C182.042 82.5445 180.613 82.9554 179.969 83.7767C179.325 84.5981 179.002 86.3991 179.002 89.1803V89.2559C179.002 89.5278 179.053 89.7174 179.154 89.8122C179.254 89.9131 179.438 89.9637 179.71 89.9637H190.814C191.186 89.9637 191.483 90.0778 191.711 90.2986C191.933 90.5199 192.046 90.8231 192.046 91.1961V92.1631C192.046 92.5106 191.933 92.795 191.711 93.0226C191.49 93.2439 191.186 93.3574 190.814 93.3574H179.71C179.235 93.3574 179.002 93.5975 179.002 94.0653V94.8866C179.002 97.6237 179.325 99.3803 179.969 100.177C180.613 100.973 182.042 101.371 184.254 101.371H192.267C192.639 101.371 192.937 101.485 193.165 101.706C193.391 101.927 193.499 102.224 193.499 102.603V103.608C193.499 103.956 193.386 104.24 193.165 104.468C192.943 104.689 192.646 104.803 192.267 104.803H183.362C181.795 104.803 180.525 104.664 179.545 104.392C178.566 104.12 177.725 103.608 177.03 102.863C176.335 102.117 175.842 101.087 175.558 99.7658C175.261 98.445 175.122 96.7325 175.122 94.6153Z" fill="white"/>
<path d="M198 104.227C197.525 104.076 197.184 103.88 196.976 103.634C196.761 103.387 196.66 103.027 196.66 102.553V101.586C196.66 101.238 196.761 100.96 196.957 100.746C197.153 100.537 197.43 100.429 197.778 100.429C197.949 100.429 198.733 100.619 200.122 100.992C201.513 101.365 203.005 101.548 204.597 101.548H205.45C207.738 101.548 209.318 101.207 210.202 100.524C211.081 99.8418 211.524 98.8429 211.524 97.5221V97.3705C211.524 96.5491 211.372 95.9237 211.074 95.4871C210.778 95.0513 210.165 94.6465 209.229 94.2741C208.301 93.9013 206.802 93.4778 204.742 93.0101C201.412 92.2387 199.194 91.4174 198.094 90.5325C196.988 89.6543 196.438 88.2007 196.438 86.1907V86.0773C196.438 83.5429 197.102 81.7101 198.429 80.5789C199.756 79.4475 202.164 78.8851 205.64 78.8851H206.872C209.406 78.8851 211.593 79.1445 213.432 79.6689C214.304 79.9153 214.734 80.4398 214.734 81.2361V82.3169C214.734 82.6642 214.633 82.9423 214.437 83.1574C214.241 83.3658 213.964 83.4737 213.616 83.4737C213.445 83.4737 212.674 83.2903 211.309 82.9174C209.944 82.5445 208.44 82.3549 206.802 82.3549H205.905C203.769 82.3549 202.309 82.6267 201.526 83.1762C200.742 83.7199 200.35 84.6174 200.35 85.8559V86.0773C200.35 87.0439 200.742 87.7579 201.526 88.2194C202.309 88.6809 204.016 89.1803 206.645 89.7298C210.172 90.5262 212.516 91.4049 213.666 92.3715C214.822 93.3387 215.397 94.9185 215.397 97.1049V97.257C215.397 99.8923 214.696 101.832 213.293 103.09C211.89 104.348 209.413 104.973 205.861 104.973H204.369C201.734 104.973 199.61 104.727 198 104.227Z" fill="white"/>
<path d="M35.1455 139.328V133.963C35.1455 131.851 35.2908 130.139 35.5752 128.824C35.8596 127.509 36.3523 126.479 37.0476 125.733C37.7429 124.988 38.5835 124.476 39.5627 124.204C40.5424 123.932 41.8189 123.793 43.3798 123.793H52.3226C52.6956 123.793 52.9924 123.914 53.22 124.147C53.4413 124.381 53.5549 124.678 53.5549 125.019V126.024C53.5549 126.397 53.4413 126.694 53.22 126.922C52.9924 127.143 52.6956 127.257 52.3226 127.257H44.2773C42.0653 127.257 40.6372 127.667 39.9929 128.489C39.3481 129.311 39.0257 131.112 39.0257 133.893V133.968C39.0257 134.24 39.0762 134.429 39.1773 134.524C39.2783 134.625 39.4617 134.676 39.7335 134.676H50.8372C51.2101 134.676 51.5074 134.79 51.7346 135.011C51.956 135.232 52.0694 135.535 52.0694 135.909V136.876C52.0694 137.223 51.956 137.508 51.7346 137.735C51.5137 137.956 51.2164 138.07 50.8372 138.07H39.7273C39.2533 138.07 39.0195 138.304 39.0195 138.777V139.6C39.0195 142.335 39.3419 144.099 39.9861 144.889C40.6309 145.685 42.0591 146.084 44.271 146.084H52.2784C52.6513 146.084 52.9481 146.197 53.1757 146.418C53.397 146.64 53.5106 146.942 53.5106 147.316V148.321C53.5106 148.668 53.397 148.952 53.1757 149.18C52.9481 149.401 52.6574 149.514 52.2784 149.514H43.3798C41.8189 149.514 40.5424 149.376 39.5627 149.104C38.5835 148.832 37.7429 148.321 37.0476 147.575C36.3523 146.829 35.8596 145.799 35.5752 144.484C35.2908 143.151 35.1455 141.438 35.1455 139.328Z" fill="white"/>
<path d="M59.622 149.496H58.1303C57.359 149.496 56.9736 149.06 56.9736 148.195V129.046C56.9736 126.985 57.3464 125.563 58.0923 124.779C58.8382 123.996 60.2032 123.604 62.1939 123.604C64.1595 123.604 65.5559 123.958 66.384 124.666C67.2183 125.374 67.8183 126.808 68.1912 128.969L70.1382 140.295C70.3084 141.217 70.498 141.83 70.6939 142.14C70.8898 142.449 71.174 142.608 71.547 142.608H71.9262C72.2991 142.608 72.5835 142.456 72.7794 142.14C72.9751 141.83 73.1647 141.217 73.3355 140.295L75.2824 128.969C75.6548 126.808 76.2554 125.374 77.0835 124.666C77.9174 123.958 79.3079 123.604 81.2668 123.604C83.2512 123.604 84.6163 123.996 85.3622 124.779C86.1079 125.563 86.4808 126.985 86.4808 129.046V148.195C86.4808 149.066 86.0955 149.496 85.324 149.496H83.833C83.0111 149.496 82.607 149.099 82.607 148.301L82.6824 130.119C82.6824 128.805 82.5751 127.964 82.3668 127.604C82.1579 127.244 81.6903 127.061 80.9699 127.061C80.3382 127.061 79.8955 127.257 79.6303 127.655C79.3647 128.053 79.1059 128.869 78.859 130.107L76.8116 141.584C76.4892 143.321 75.9584 144.497 75.2127 145.111C74.4668 145.717 73.3798 146.026 71.9455 146.026H71.4964C70.0622 146.026 68.9688 145.723 68.2231 145.116C67.4835 144.509 66.9464 143.335 66.624 141.596L64.5762 130.119C64.3298 128.881 64.071 128.06 63.8116 127.661C63.5527 127.263 63.1106 127.067 62.4907 127.067C61.7704 127.067 61.3027 127.25 61.0944 127.611C60.8855 127.971 60.7783 128.812 60.7783 130.126L60.8543 148.308C60.8543 149.099 60.4434 149.496 59.622 149.496Z" fill="white"/>
<path d="M102.956 127.257C102.684 127.257 102.495 127.307 102.394 127.409C102.293 127.51 102.248 127.693 102.248 127.965V137.799C102.248 138.071 102.299 138.253 102.394 138.341C102.495 138.43 102.678 138.475 102.956 138.475H108.208C111.014 138.475 112.853 138.126 113.725 137.432C114.597 136.736 115.027 135.245 115.027 132.964V132.774C115.027 130.461 114.597 128.969 113.744 128.287C112.891 127.604 111.045 127.263 108.214 127.263H102.956V127.257ZM99.6005 149.496C99.2525 149.496 98.9681 149.383 98.741 149.161C98.5134 148.94 98.4062 148.656 98.4062 148.301V125.013C98.4062 124.666 98.5197 124.375 98.741 124.141C98.962 123.907 99.2525 123.787 99.6005 123.787H108.322C110.331 123.787 111.974 123.914 113.239 124.16C114.503 124.407 115.583 124.862 116.481 125.519C117.372 126.176 118.01 127.074 118.383 128.198C118.756 129.33 118.945 130.802 118.945 132.616V133.102C118.945 134.916 118.756 136.389 118.383 137.513C118.01 138.645 117.378 139.536 116.481 140.193C115.583 140.851 114.503 141.305 113.239 141.552C111.974 141.799 110.331 141.925 108.322 141.925H102.956C102.684 141.925 102.495 141.976 102.394 142.077C102.293 142.177 102.248 142.361 102.248 142.633V148.296C102.248 148.642 102.135 148.928 101.913 149.154C101.692 149.376 101.395 149.489 101.022 149.489H99.6005V149.496Z" fill="white"/>
<path d="M135.964 138.507C136.489 138.507 136.679 138.272 136.527 137.792L134.694 129.633C134.467 128.59 134.169 127.901 133.797 127.566C133.424 127.231 132.785 127.067 131.894 127.067H130.472C129.6 127.067 128.974 127.231 128.602 127.566C128.229 127.901 127.919 128.59 127.667 129.627L125.846 137.709C125.695 138.235 125.884 138.5 126.409 138.5H135.964V138.507ZM119.722 147.86L124.418 128.04C124.791 126.448 125.385 125.317 126.207 124.628C127.028 123.945 128.21 123.604 129.752 123.604H132.666C134.233 123.604 135.421 123.945 136.23 124.628C137.038 125.31 137.626 126.448 137.999 128.034L142.695 147.853C142.967 148.947 142.619 149.496 141.646 149.496H140.413C139.914 149.496 139.56 149.389 139.345 149.18C139.137 148.972 138.966 148.599 138.846 148.061L137.633 142.671C137.532 142.228 137.266 142.007 136.843 142.007H125.543C125.113 142.007 124.854 142.216 124.753 142.633L123.533 148.054C123.413 148.587 123.249 148.965 123.04 149.173C122.832 149.389 122.478 149.489 121.985 149.489H120.766C119.792 149.496 119.445 148.953 119.722 147.86Z" fill="white"/>
<path d="M155 149.685C153.066 149.685 151.486 149.521 150.266 149.199C149.046 148.877 148.004 148.282 147.138 147.411C146.266 146.538 145.653 145.357 145.292 143.852C144.932 142.348 144.749 140.396 144.749 137.981V135.301C144.749 132.919 144.926 130.966 145.292 129.45C145.653 127.933 146.266 126.745 147.138 125.873C148.004 125.001 149.053 124.406 150.266 124.084C151.485 123.762 153.059 123.598 155 123.598H156.605C158.962 123.598 160.915 123.819 162.457 124.267C163.001 124.394 163.386 124.571 163.613 124.811C163.834 125.045 163.949 125.399 163.949 125.873V126.915C163.949 127.263 163.848 127.541 163.652 127.756C163.456 127.964 163.177 128.072 162.83 128.072C162.678 128.072 161.945 127.907 160.63 127.566C159.316 127.231 157.894 127.061 156.383 127.061H155.227C152.547 127.061 150.778 127.592 149.918 128.647C149.059 129.702 148.635 131.908 148.635 135.257V138.013C148.635 141.369 149.065 143.575 149.918 144.642C150.778 145.711 152.547 146.248 155.227 146.248H156.383C158.298 146.248 159.809 146.07 160.928 145.723C161.427 145.572 161.673 145.224 161.673 144.68V139.201C161.673 138.726 161.44 138.493 160.966 138.493H157.647C157.274 138.493 156.978 138.38 156.75 138.158C156.529 137.93 156.415 137.633 156.415 137.261V136.37C156.415 136.023 156.529 135.732 156.75 135.492C156.971 135.257 157.274 135.137 157.647 135.137H164.277C164.625 135.137 164.909 135.257 165.137 135.492C165.358 135.725 165.472 136.023 165.472 136.37V146.058C165.472 147.228 164.997 148.005 164.056 148.402C162.141 149.249 159.657 149.666 156.605 149.666H155V149.685Z" fill="white"/>
<path d="M184.55 138.507C185.075 138.507 185.265 138.272 185.113 137.792L183.281 129.633C183.059 128.59 182.755 127.901 182.383 127.566C182.01 127.231 181.378 127.067 180.481 127.067H179.058C178.186 127.067 177.561 127.231 177.189 127.566C176.815 127.901 176.506 128.59 176.253 129.627L174.433 137.709C174.281 138.235 174.47 138.5 174.995 138.5H184.55V138.507ZM168.302 147.86L172.998 128.04C173.371 126.448 173.965 125.317 174.786 124.628C175.609 123.945 176.79 123.604 178.331 123.604H181.239C182.806 123.604 183.994 123.945 184.803 124.628C185.613 125.31 186.199 126.448 186.573 128.034L191.269 147.853C191.541 148.947 191.193 149.496 190.219 149.496H188.987C188.487 149.496 188.134 149.389 187.919 149.18C187.71 148.972 187.539 148.599 187.419 148.061L186.206 142.671C186.105 142.228 185.839 142.007 185.417 142.007H174.117C173.687 142.007 173.427 142.216 173.326 142.633L172.107 148.054C171.987 148.587 171.822 148.965 171.614 149.173C171.406 149.389 171.051 149.489 170.558 149.489H169.339C168.378 149.496 168.031 148.953 168.302 147.86Z" fill="white"/>
<path d="M197.102 149.496H195.61C194.839 149.496 194.454 149.06 194.454 148.195V129.046C194.454 126.985 194.826 125.563 195.573 124.779C196.318 123.996 197.683 123.604 199.674 123.604C201.639 123.604 203.035 123.958 203.87 124.666C204.705 125.374 205.305 126.808 205.678 128.969L207.623 140.295C207.794 141.217 207.985 141.83 208.181 142.14C208.377 142.449 208.661 142.608 209.033 142.608H209.406C209.779 142.608 210.063 142.456 210.259 142.14C210.455 141.83 210.645 141.217 210.815 140.295L212.762 128.969C213.135 126.808 213.735 125.374 214.563 124.666C215.397 123.958 216.787 123.604 218.747 123.604C220.731 123.604 222.102 123.996 222.842 124.779C223.587 125.563 223.961 126.985 223.961 129.046V148.195C223.961 149.066 223.575 149.496 222.805 149.496H221.313C220.491 149.496 220.086 149.099 220.086 148.301L220.162 130.119C220.162 128.805 220.055 127.964 219.846 127.604C219.638 127.244 219.17 127.061 218.45 127.061C217.825 127.061 217.375 127.257 217.11 127.655C216.845 128.053 216.586 128.869 216.339 130.107L214.291 141.584C213.969 143.321 213.438 144.497 212.693 145.111C211.947 145.717 210.859 146.026 209.425 146.026H208.977C207.542 146.026 206.449 145.723 205.709 145.116C204.963 144.509 204.433 143.335 204.11 141.596L202.062 130.119C201.817 128.881 201.557 128.06 201.298 127.661C201.039 127.263 200.597 127.067 199.977 127.067C199.257 127.067 198.789 127.25 198.581 127.611C198.366 127.971 198.265 128.812 198.265 130.126L198.341 148.308C198.334 149.099 197.923 149.496 197.102 149.496Z" fill="white"/>
<path d="M228.062 139.328V133.963C228.062 131.851 228.208 130.139 228.492 128.824C228.777 127.509 229.269 126.479 229.965 125.733C230.66 124.988 231.501 124.476 232.48 124.204C233.46 123.932 234.736 123.793 236.297 123.793H245.24C245.613 123.793 245.909 123.914 246.137 124.147C246.358 124.381 246.472 124.678 246.472 125.019V126.024C246.472 126.397 246.358 126.694 246.137 126.922C245.916 127.143 245.618 127.257 245.24 127.257H237.194C234.982 127.257 233.554 127.667 232.91 128.489C232.265 129.311 231.942 131.112 231.942 133.893V133.968C231.942 134.24 231.993 134.429 232.094 134.524C232.196 134.625 232.378 134.676 232.65 134.676H243.754C244.128 134.676 244.424 134.79 244.652 135.011C244.873 135.232 244.986 135.535 244.986 135.909V136.876C244.986 137.223 244.873 137.508 244.652 137.735C244.43 137.956 244.128 138.07 243.754 138.07H232.65C232.177 138.07 231.942 138.304 231.942 138.777V139.6C231.942 142.335 232.265 144.099 232.91 144.889C233.554 145.685 234.982 146.084 237.194 146.084H245.208C245.581 146.084 245.878 146.197 246.105 146.418C246.326 146.64 246.44 146.942 246.44 147.316V148.321C246.44 148.668 246.326 148.952 246.105 149.18C245.884 149.401 245.588 149.514 245.208 149.514H236.304C234.736 149.514 233.466 149.376 232.486 149.104C231.506 148.832 230.666 148.321 229.97 147.575C229.276 146.829 228.782 145.799 228.498 144.484C228.208 143.151 228.062 141.438 228.062 139.328Z" fill="white"/>
<path d="M261.033 144.769L256.489 130.05C255.97 128.457 255.591 127.554 255.37 127.332C255.174 127.156 254.921 127.074 254.625 127.074C254.15 127.074 253.841 127.244 253.695 127.579C253.543 127.914 253.481 128.615 253.506 129.684L253.765 148.314C253.765 148.661 253.651 148.947 253.43 149.173C253.209 149.394 252.918 149.509 252.57 149.509H251.079C250.731 149.509 250.447 149.394 250.219 149.173C249.998 148.952 249.885 148.668 249.885 148.314V128.457C249.885 126.694 250.226 125.443 250.909 124.71C251.59 123.977 252.741 123.61 254.353 123.61C255.907 123.61 257.038 123.932 257.753 124.584C258.466 125.228 259.13 126.549 259.75 128.546L264.255 143.265C264.786 144.845 265.159 145.748 265.362 145.969C265.563 146.165 265.829 146.266 266.165 146.266C266.638 146.266 266.947 146.096 267.093 145.761C267.245 145.426 267.302 144.725 267.282 143.657L267.062 125.026C267.037 124.678 267.143 124.388 267.378 124.154C267.611 123.92 267.902 123.8 268.255 123.8H269.747C270.095 123.8 270.379 123.92 270.607 124.154C270.827 124.388 270.942 124.685 270.942 125.026V144.845C270.942 146.633 270.601 147.884 269.918 148.605C269.235 149.325 268.085 149.685 266.474 149.685C264.881 149.685 263.737 149.369 263.03 148.737C262.322 148.1 261.658 146.778 261.033 144.769Z" fill="white"/>
<path d="M283.468 149.496C283.094 149.496 282.798 149.383 282.57 149.161C282.349 148.94 282.236 148.656 282.236 148.301V127.958C282.236 127.484 281.996 127.25 281.528 127.25H274.557C274.209 127.25 273.925 127.137 273.697 126.915C273.476 126.695 273.362 126.403 273.362 126.056V125.013C273.362 124.666 273.476 124.375 273.697 124.141C273.918 123.907 274.209 123.787 274.557 123.787H293.781C294.154 123.787 294.452 123.907 294.68 124.141C294.9 124.375 295.014 124.672 295.014 125.013V126.056C295.014 126.403 294.9 126.688 294.68 126.915C294.452 127.137 294.161 127.25 293.781 127.25H286.817C286.344 127.25 286.109 127.484 286.109 127.958V148.301C286.109 148.649 285.996 148.933 285.774 149.161C285.553 149.383 285.262 149.496 284.916 149.496H283.468Z" fill="white"/>
<path d="M313.999 128.596C313.265 127.579 311.692 127.067 309.284 127.067H306.156C303.773 127.067 302.212 127.572 301.48 128.596C300.747 129.614 300.38 131.787 300.38 135.118V137.949C300.38 141.374 300.747 143.618 301.48 144.674C302.212 145.729 303.767 146.259 306.156 146.259H309.284C310.529 146.259 311.503 146.153 312.211 145.944C312.919 145.735 313.5 145.311 313.961 144.68C314.423 144.047 314.725 143.214 314.871 142.184C315.023 141.154 315.092 139.745 315.092 137.956V135.125C315.099 131.787 314.732 129.614 313.999 128.596ZM309.36 123.604C311.173 123.604 312.659 123.768 313.816 124.09C314.972 124.413 315.959 125.001 316.78 125.86C317.601 126.719 318.176 127.876 318.511 129.342C318.847 130.808 319.017 132.698 319.017 135.005V138.057C319.017 141.185 318.681 143.593 318.012 145.286C317.343 146.974 316.344 148.13 315.016 148.751C313.689 149.369 311.805 149.68 309.373 149.68H306.093C303.685 149.68 301.815 149.369 300.487 148.751C299.16 148.13 298.168 146.974 297.504 145.286C296.847 143.599 296.519 141.185 296.519 138.057V135.005C296.519 131.952 296.847 129.595 297.504 127.945C298.161 126.296 299.16 125.158 300.487 124.539C301.815 123.92 303.685 123.61 306.093 123.61H309.36V123.604Z" fill="white"/>
<path d="M323.965 148.94C323.49 148.788 323.149 148.592 322.941 148.345C322.733 148.1 322.625 147.738 322.625 147.265V146.299C322.625 145.951 322.726 145.673 322.922 145.457C323.118 145.249 323.395 145.141 323.743 145.141C323.914 145.141 324.698 145.325 326.087 145.699C327.478 146.071 328.97 146.26 330.562 146.26H331.415C333.703 146.26 335.283 145.918 336.167 145.236C337.053 144.554 337.489 143.556 337.489 142.235V142.083C337.489 141.261 337.337 140.636 337.041 140.2C336.743 139.764 336.13 139.359 335.195 138.987C334.266 138.613 332.767 138.19 330.707 137.723C327.377 136.952 325.159 136.129 324.059 135.245C322.954 134.366 322.403 132.913 322.403 130.903V130.79C322.403 128.255 323.067 126.423 324.401 125.298C325.727 124.166 328.135 123.604 331.611 123.604H332.843C335.378 123.604 337.565 123.863 339.398 124.388C340.27 124.634 340.699 125.159 340.699 125.955V127.036C340.699 127.383 340.598 127.661 340.402 127.876C340.206 128.085 339.929 128.192 339.581 128.192C339.403 128.192 338.639 128.002 337.267 127.63C335.902 127.257 334.398 127.074 332.762 127.074H331.87C329.734 127.074 328.275 127.346 327.491 127.895C326.707 128.439 326.315 129.336 326.315 130.575V130.796C326.315 131.763 326.707 132.477 327.491 132.938C328.275 133.4 329.981 133.899 332.617 134.449C336.143 135.245 338.487 136.124 339.638 137.09C340.794 138.057 341.369 139.637 341.369 141.824V141.976C341.369 144.611 340.667 146.551 339.265 147.809C337.862 149.066 335.385 149.692 331.833 149.692H330.341C327.699 149.685 325.577 149.438 323.965 148.94Z" fill="white"/>
</svg>
