<svg width="380" height="160" viewBox="0 0 380 160" fill="none" xmlns="http://www.w3.org/2000/svg">
<path fill-rule="evenodd" clip-rule="evenodd" d="M58.0001 111.029H108.637C112.853 111.029 116.302 107.58 116.302 103.364V79.7587C116.302 75.5428 112.853 72.0935 108.637 72.0935H83.4346V61.3215H109.954C114.17 61.3215 117.619 57.8722 117.619 53.6563V45.9909H75.0725C70.8566 45.9909 67.4072 49.4402 67.4072 53.6561V76.9136C67.0313 81.3049 71.0134 84.9272 75.4209 84.9272H100.275V95.699H65.6653C61.4493 95.699 58 99.1483 58 103.364V111.03L58.0001 111.029ZM124.723 46.223H143.305V101.332C143.305 106.442 139.124 110.623 134.014 110.623H124.723V46.223ZM143.305 42.2724H124.723V33.2912C124.723 28.181 128.904 24 134.014 24H143.305V42.2726V42.2724Z" fill="white"/>
<path fill-rule="evenodd" clip-rule="evenodd" d="M281.597 45.9911H321.193V136H290.047V134.374C290.047 126.837 296.214 120.67 303.751 120.67H305.166V111.03H281.597C276.227 111.03 271.834 106.636 271.834 101.267V55.7539C271.834 50.3844 276.227 45.9911 281.597 45.9911ZM305.166 61.3217H291.505C289.501 61.3217 287.861 62.9612 287.861 64.9653V92.0555C287.861 94.0595 289.501 95.6991 291.505 95.6991H305.166V61.3217ZM209.967 24H254.423C259.448 24 263.559 28.1112 263.559 33.1362V76.3107H244.976V56.1419L228.55 74.655V95.0404H244.976V84.9271H263.559V101.267C263.559 106.636 259.166 111.029 253.796 111.029H219.73C214.36 111.029 209.967 106.636 209.967 101.267V67.6141L232.453 42.2723H209.967V24ZM191.558 45.9911H151.961V136H158.697C163.807 136 167.988 131.819 167.988 126.709V111.029H191.558C196.927 111.029 201.32 106.636 201.32 101.267V55.7538C201.32 50.3842 196.927 45.9911 191.558 45.9911ZM167.988 61.3217H181.65C183.654 61.3217 185.293 62.9612 185.293 64.9653V92.0555C185.293 94.0595 183.654 95.6991 181.65 95.6991H167.988V61.3217Z" fill="white"/>
</svg>
