<svg width="380" height="160" viewBox="0 0 380 160" fill="none" xmlns="http://www.w3.org/2000/svg">
<path d="M48.0622 20.0801H18.3837C18.3384 20.0802 18.2946 20.0963 18.26 20.1254C18.2254 20.1545 18.2021 20.1949 18.1942 20.2395L14.5605 40.8462C14.554 40.8831 14.5557 40.9211 14.5653 40.9573C14.575 40.9935 14.5924 41.0272 14.6164 41.0559C14.6404 41.0846 14.6703 41.1076 14.7041 41.1234C14.7379 41.1392 14.7747 41.1473 14.812 41.1472L44.3347 41.1632" stroke="white" stroke-width="0.354159"/>
<path d="M44.3351 41.163L32.4301 108.365C32.4262 108.387 32.4272 108.41 32.4329 108.431C32.4387 108.453 32.4491 108.473 32.4635 108.491C32.4779 108.508 32.4958 108.522 32.516 108.531C32.5362 108.541 32.5583 108.545 32.5806 108.545H57.1769C57.2339 108.545 57.2891 108.525 57.3329 108.488C57.3766 108.451 57.406 108.4 57.416 108.343L69.2732 41.1169" stroke="white" stroke-width="0.354159"/>
<path d="M69.2734 41.1171C69.297 41.1608 69.3254 41.1685 69.3584 41.1401C78.7425 41.1366 88.5875 41.1372 98.8935 41.1419C98.9521 41.1419 99.0089 41.1212 99.0539 41.0833C99.0989 41.0454 99.1293 40.9928 99.1397 40.9347C101.385 28.1862 102.564 21.4973 102.676 20.8681C102.728 20.5765 102.741 20.3433 102.717 20.1686C102.713 20.1435 102.701 20.1204 102.682 20.1038C102.663 20.0872 102.639 20.0781 102.614 20.0783L72.9779 20.073" stroke="white" stroke-width="0.354159"/>
<path d="M72.9776 20.073L48.0625 20.0801" stroke="white" stroke-width="0.354159"/>
<path d="M72.9779 20.073L69.2734 41.1171" stroke="white" stroke-width="0.354159"/>
<path d="M69.2739 41.1169L44.3535 41.1223" stroke="white" stroke-width="0.354159"/>
<path d="M44.3535 41.1224L48.0633 20.0801" stroke="white" stroke-width="0.354159"/>
<path d="M44.3536 41.1223C44.3477 41.1365 44.3418 41.1501 44.3359 41.163" stroke="white" stroke-width="0.354159"/>
<path d="M211.499 42.3071L199.88 108.344C199.875 108.369 199.876 108.395 199.883 108.419C199.89 108.444 199.902 108.467 199.919 108.487C199.936 108.506 199.956 108.522 199.98 108.533C200.003 108.544 200.029 108.549 200.055 108.549H226.211C226.252 108.549 226.292 108.534 226.323 108.508C226.354 108.482 226.376 108.446 226.383 108.406C229.361 91.5275 230.994 82.2663 231.281 80.6218C231.522 79.2335 231.857 77.7673 232.074 76.3365C232.254 75.1607 232.43 74.0858 232.602 73.1119C233.852 66.0547 234.528 62.2309 234.628 61.6407C234.869 60.224 235.228 58.7879 235.423 57.389C235.562 56.3962 235.734 55.3301 235.938 54.1909C236.544 50.8182 237.214 47.0263 237.948 42.8153C237.989 42.5781 238.07 42.4352 238.191 42.3868" stroke="white" stroke-width="0.354159"/>
<path d="M238.191 42.3869L265.47 42.3604" stroke="white" stroke-width="0.354159"/>
<path d="M265.471 42.3604C265.632 42.4088 265.758 42.469 265.848 42.541" stroke="white" stroke-width="0.354159"/>
<path d="M265.848 42.5408L274.666 53.3196" stroke="white" stroke-width="0.354159"/>
<path d="M274.665 53.3196C274.645 53.3267 274.625 53.3332 274.604 53.3391" stroke="white" stroke-width="0.354159"/>
<path d="M274.605 53.3391C262.02 64.0005 249.43 74.6542 236.834 85.3002C236.517 85.5682 236.173 85.8993 235.8 86.2936C235.789 86.3053 235.781 86.3199 235.779 86.3357C235.776 86.3514 235.778 86.3676 235.784 86.3824C235.79 86.3971 235.8 86.4098 235.813 86.4189C235.827 86.4279 235.842 86.433 235.858 86.4335C236.242 86.4477 236.637 86.3839 237.043 86.3857C245.94 86.4058 257.263 86.4087 271.01 86.3945C271.27 86.3934 271.527 86.2853 271.78 86.0705C274.157 84.0482 280.016 79.0936 289.359 71.2064" stroke="white" stroke-width="0.354159"/>
<path d="M289.359 71.2065L293.544 67.695C293.624 67.6287 293.677 67.5357 293.694 67.433L298.102 42.4116" stroke="white" stroke-width="0.354159"/>
<path d="M298.101 42.4115C298.42 41.1932 298.55 40.0475 298.492 38.9744C298.485 38.8387 298.435 38.7084 298.349 38.6025L283.35 20.2341C283.307 20.1799 283.251 20.1361 283.188 20.1061C283.126 20.0761 283.057 20.0605 282.987 20.0605L247.543 20.0659" stroke="white" stroke-width="0.354159"/>
<path d="M247.543 20.0659L242.039 20.0872" stroke="white" stroke-width="0.354159"/>
<path d="M242.039 20.0871L215.557 20.0322C215.53 20.0323 215.504 20.0419 215.483 20.0594C215.462 20.0769 215.448 20.1011 215.444 20.1278L211.5 42.3071" stroke="white" stroke-width="0.354159"/>
<path d="M242.038 20.0872C242.051 20.4177 241.995 20.7465 241.87 21.0735C241.852 21.1194 241.839 21.1669 241.831 21.2152L238.095 42.2664C238.092 42.2815 238.087 42.296 238.079 42.3089L238.029 42.3797" stroke="white" stroke-width="0.354159"/>
<path d="M238.03 42.3797C237.606 42.3986 237.177 42.4087 236.741 42.4098C228.714 42.4275 220.688 42.4352 212.662 42.4329C212.289 42.4329 211.901 42.3909 211.5 42.3071" stroke="white" stroke-width="0.354159"/>
<path d="M238.19 42.3868C238.141 42.3656 238.087 42.3632 238.029 42.3797" stroke="white" stroke-width="0.354159"/>
<path d="M298.101 42.4116L290.053 42.4205" stroke="white" stroke-width="0.354159"/>
<path d="M290.053 42.4204C282.097 42.418 274.141 42.4192 266.186 42.4239C266.06 42.4239 265.947 42.4629 265.848 42.5408" stroke="white" stroke-width="0.354159"/>
<path d="M265.47 42.3602L265.237 41.8981C265.221 41.8686 265.204 41.8407 265.184 41.8148C263.717 39.9331 261.865 37.6381 259.627 34.93C257.694 32.5913 254.271 28.4146 249.356 22.3998C248.405 21.2346 247.8 20.4567 247.543 20.0659" stroke="white" stroke-width="0.354159"/>
<path d="M289.358 71.2064L274.766 53.4064C274.74 53.3744 274.703 53.3536 274.664 53.348L274.604 53.3391" stroke="white" stroke-width="0.354159"/>
<path d="M274.666 53.3197C278.494 50.0531 282.349 46.7931 286.231 43.5396C286.688 43.1571 286.966 42.6984 287.577 42.6453C287.608 42.6427 287.637 42.6308 287.661 42.6112C287.685 42.5916 287.703 42.5652 287.711 42.5355C287.714 42.5272 287.716 42.5219 287.717 42.5196C287.731 42.492 287.752 42.4688 287.779 42.4525C287.805 42.4362 287.836 42.4276 287.867 42.4275L290.052 42.4204" stroke="white" stroke-width="0.354159"/>
<path d="M329.989 20.0978C326.818 20.1167 323.65 20.1226 320.483 20.1155C318.472 20.112 316.488 19.965 314.427 20.1279C314.385 20.1308 314.345 20.1479 314.313 20.1764C314.281 20.2049 314.26 20.2433 314.252 20.2855L310.381 42.2345C310.378 42.2529 310.378 42.2718 310.383 42.2899C310.388 42.308 310.397 42.3249 310.409 42.3393C310.421 42.3536 310.436 42.3652 310.453 42.3731C310.47 42.381 310.488 42.3851 310.507 42.385L326.274 42.3868" stroke="white" stroke-width="0.354159"/>
<path d="M326.274 42.3867C326.271 42.4127 326.267 42.4387 326.264 42.4646" stroke="white" stroke-width="0.354159"/>
<path d="M326.264 42.4646L318.582 86.1961" stroke="white" stroke-width="0.354159"/>
<path d="M318.582 86.1963C318.588 86.2022 318.594 86.2081 318.6 86.214" stroke="white" stroke-width="0.354159"/>
<path d="M318.599 86.2139L302.704 86.2387C302.677 86.2387 302.651 86.2483 302.63 86.2658C302.609 86.2833 302.596 86.3075 302.591 86.3343L298.697 108.405C298.694 108.422 298.695 108.439 298.699 108.455C298.704 108.471 298.711 108.486 298.722 108.499C298.732 108.512 298.746 108.522 298.761 108.529C298.776 108.536 298.792 108.54 298.809 108.54L314.593 108.544" stroke="white" stroke-width="0.354159"/>
<path d="M314.594 108.544H341.01" stroke="white" stroke-width="0.354159"/>
<path d="M341.01 108.544L355.433 108.538C355.468 108.539 355.501 108.526 355.528 108.504C355.554 108.482 355.572 108.451 355.578 108.416L359.46 86.4124C359.464 86.3883 359.463 86.3635 359.457 86.3398C359.451 86.3162 359.439 86.2941 359.424 86.2754C359.408 86.2566 359.388 86.2415 359.366 86.2312C359.344 86.221 359.319 86.2157 359.295 86.2158H344.941" stroke="white" stroke-width="0.354159"/>
<path d="M344.941 86.2157L352.637 42.4487" stroke="white" stroke-width="0.354159"/>
<path d="M352.637 42.4487L352.771 42.3442" stroke="white" stroke-width="0.354159"/>
<path d="M352.771 42.3444L367.003 42.3958C367.066 42.3958 367.126 42.3738 367.174 42.3336C367.221 42.2934 367.253 42.2376 367.264 42.1762C368.249 36.5604 369.477 29.6142 370.945 21.3375C371.016 20.9361 371.035 20.5518 371.002 20.1847C371.001 20.1668 370.996 20.1494 370.987 20.1334C370.979 20.1175 370.968 20.1033 370.954 20.0918C370.94 20.0802 370.924 20.0715 370.907 20.0662C370.889 20.0609 370.871 20.059 370.853 20.0607C370.543 20.0902 370.272 20.1062 370.04 20.1085C365.578 20.1463 361.12 20.1263 356.665 20.0483" stroke="white" stroke-width="0.354159"/>
<path d="M356.665 20.0483C348.254 20.001 339.845 19.9886 331.437 20.0111C330.947 20.0123 330.464 20.0412 329.988 20.0978" stroke="white" stroke-width="0.354159"/>
<path d="M356.666 20.0483C356.608 20.2573 356.569 20.4214 356.55 20.5406C356.404 21.4544 356.244 22.4041 356.071 23.3898C355.005 29.4613 353.934 35.5328 352.86 41.6042C352.821 41.8238 352.641 42.0593 352.772 42.3444" stroke="white" stroke-width="0.354159"/>
<path d="M352.638 42.4487L326.264 42.4647" stroke="white" stroke-width="0.354159"/>
<path d="M326.273 42.3867C326.37 41.7928 326.468 41.212 326.566 40.6442C327.678 34.2493 328.798 27.8555 329.927 21.4629C330.014 20.9695 330.035 20.5144 329.989 20.0977" stroke="white" stroke-width="0.354159"/>
<path d="M344.941 86.2158L344.846 86.5841" stroke="white" stroke-width="0.354159"/>
<path d="M344.846 86.5841L344.822 86.3858C344.819 86.3605 344.808 86.3371 344.79 86.3191C344.772 86.3011 344.749 86.2897 344.724 86.2866C344.244 86.2288 343.916 86.1998 343.741 86.1998C335.802 86.2069 328.267 86.2075 321.134 86.2016C321.037 86.2016 320.617 86.2087 319.875 86.2229C319.445 86.2311 319.014 86.2223 318.582 86.1963" stroke="white" stroke-width="0.354159"/>
<path d="M344.845 86.584L341.01 108.544" stroke="white" stroke-width="0.354159"/>
<path d="M318.599 86.2139L314.594 108.544" stroke="white" stroke-width="0.354159"/>
<path d="M109.122 52.8911C109.07 53.0127 109.033 53.1402 109.009 53.2736C105.242 74.5774 103.187 86.1821 102.843 88.0874C102.782 88.4321 102.812 88.6795 102.935 88.8294C109.804 97.1651 115.166 103.682 119.021 108.379C119.064 108.431 119.117 108.472 119.178 108.5C119.239 108.529 119.305 108.544 119.372 108.544L125.748 108.542" stroke="white" stroke-width="0.354159"/>
<path d="M125.75 108.542L128.543 108.54" stroke="white" stroke-width="0.354159"/>
<path d="M128.541 108.54L154.71 108.538" stroke="white" stroke-width="0.354159"/>
<path d="M154.711 108.538L157.753 108.54" stroke="white" stroke-width="0.354159"/>
<path d="M157.752 108.54C159.648 108.55 161.527 108.55 163.388 108.542C164.063 108.538 164.665 107.865 165.163 107.441C169.893 103.404 177.27 97.1215 187.294 88.5922C187.93 88.0521 187.963 87.8201 188.1 87.0445C189.753 77.651 191.764 66.2494 194.135 52.8398C194.15 52.7548 194.158 52.55 194.16 52.2253" stroke="white" stroke-width="0.354159"/>
<path d="M194.16 52.2252C195.999 41.8862 197.844 31.4709 199.694 20.9796C199.732 20.76 199.718 20.4926 199.649 20.1774C199.644 20.1543 199.632 20.1336 199.613 20.1187C199.595 20.1039 199.572 20.0958 199.548 20.0959H173.645C173.579 20.0958 173.514 20.1192 173.463 20.162C173.412 20.2048 173.378 20.2642 173.367 20.3297C169.962 39.6349 166.551 58.9938 163.134 78.4065C163.121 78.4808 163.073 78.6071 162.99 78.7854" stroke="white" stroke-width="0.354159"/>
<path d="M162.991 78.7854C162.927 78.8539 162.886 78.9229 162.867 78.9926" stroke="white" stroke-width="0.354159"/>
<path d="M162.867 78.9927L143.861 95.1972" stroke="white" stroke-width="0.354159"/>
<path d="M143.861 95.197L143.742 95.135" stroke="white" stroke-width="0.354159"/>
<path d="M143.742 95.1352L130.998 79.4707" stroke="white" stroke-width="0.354159"/>
<path d="M130.998 79.4708L130.943 79.0989C130.933 79.0427 130.934 78.9851 130.945 78.9289L141.279 20.3421C141.284 20.3145 141.283 20.286 141.275 20.2589C141.268 20.2317 141.255 20.2064 141.236 20.1848C141.218 20.1632 141.195 20.1458 141.17 20.1339C141.144 20.1219 141.116 20.1156 141.088 20.1155H115.103C115.05 20.1154 114.999 20.134 114.958 20.168C114.917 20.202 114.889 20.2492 114.88 20.3014L109.123 52.8911" stroke="white" stroke-width="0.354159"/>
<path d="M130.998 79.4707C130.948 79.4719 130.877 79.4955 130.785 79.5415" stroke="white" stroke-width="0.354159"/>
<path d="M130.785 79.5415C130.816 79.3644 130.789 79.2363 130.704 79.1572C130.626 79.0852 130.584 79.0457 130.58 79.0386C130.066 78.3492 129.671 77.815 129.393 77.436C128.975 76.8623 128.46 76.3505 128.09 75.8388C127.716 75.3229 127.394 74.9185 127.123 74.6258C126.817 74.2952 126.154 73.4942 125.133 72.2228C124.547 71.4944 123.894 70.6887 123.173 69.8057C120.572 66.6241 117.246 62.559 113.196 57.6102C112.604 56.8877 112.274 56.481 112.204 56.3901C111.874 55.9616 111.529 55.5425 111.17 55.1329C110.642 54.5296 110.047 53.803 109.383 52.953C109.348 52.9082 109.31 52.8822 109.268 52.8751C109.22 52.868 109.171 52.8733 109.123 52.891" stroke="white" stroke-width="0.354159"/>
<path d="M130.786 79.5415C130.667 80.5355 130.579 81.1948 130.522 81.5195C128.924 90.5175 127.333 99.5249 125.75 108.542" stroke="white" stroke-width="0.354159"/>
<path d="M143.742 95.135C143.761 95.2389 143.737 95.3192 143.67 95.3758C135.594 102.263 131.001 106.2 129.891 107.187C129.426 107.601 128.937 107.987 128.423 108.343C128.409 108.353 128.398 108.366 128.391 108.382C128.384 108.397 128.381 108.414 128.384 108.431C128.386 108.448 128.393 108.464 128.403 108.477C128.414 108.491 128.428 108.501 128.444 108.506L128.542 108.54" stroke="white" stroke-width="0.354159"/>
<path d="M154.711 108.538L143.861 95.1973" stroke="white" stroke-width="0.354159"/>
<path d="M157.752 108.54C159.44 99.0109 161.122 89.4905 162.799 79.979C162.862 79.6225 162.885 79.2937 162.866 78.9927" stroke="white" stroke-width="0.354159"/>
<path d="M194.16 52.2253C184.438 60.5127 174.771 68.7793 165.158 77.0253C164.515 77.5755 163.881 78.1338 163.254 78.7005C163.213 78.7371 163.125 78.7654 162.99 78.7855" stroke="white" stroke-width="0.354159"/>
<path d="M72.9784 20.073L69.2739 41.1171L44.3535 41.1224L48.0633 20.0801L72.9784 20.073Z" fill="white"/>
<path d="M242.039 20.0871C242.052 20.4177 241.996 20.7464 241.871 21.0735C241.853 21.1194 241.84 21.1668 241.832 21.2151L238.096 42.2663C238.093 42.2815 238.088 42.296 238.08 42.3088L238.03 42.3797C237.606 42.3985 237.177 42.4086 236.741 42.4098C228.714 42.4275 220.688 42.4351 212.662 42.4328C212.289 42.4328 211.901 42.3909 211.5 42.3071L215.444 20.1278C215.448 20.1011 215.462 20.0769 215.483 20.0594C215.504 20.0419 215.53 20.0323 215.557 20.0322L242.039 20.0871Z" fill="white"/>
<path d="M356.666 20.0483C356.609 20.2572 356.57 20.4213 356.551 20.5405C356.405 21.4543 356.245 22.404 356.071 23.3898C355.005 29.4612 353.935 35.5327 352.861 41.6042C352.822 41.8237 352.641 42.0592 352.772 42.3443L352.638 42.4488L326.264 42.4648C326.267 42.4388 326.271 42.4128 326.274 42.3868C326.371 41.793 326.468 41.2122 326.566 40.6444C327.679 34.2495 328.799 27.8557 329.927 21.4631C330.015 20.9697 330.035 20.5146 329.989 20.0978C330.465 20.0412 330.948 20.0123 331.438 20.0111C339.846 19.9886 348.255 20.001 356.666 20.0483Z" fill="white"/>
<path d="M48.0622 20.0801L44.3524 41.1224C44.3465 41.1366 44.3406 41.1502 44.3347 41.1632L14.812 41.1472C14.7747 41.1473 14.7379 41.1392 14.7041 41.1234C14.6703 41.1076 14.6404 41.0846 14.6164 41.0559C14.5924 41.0272 14.575 40.9935 14.5653 40.9573C14.5557 40.9211 14.554 40.8831 14.5605 40.8462L18.1942 20.2395C18.2021 20.1949 18.2254 20.1545 18.26 20.1254C18.2946 20.0963 18.3384 20.0802 18.3837 20.0801H48.0622Z" fill="white"/>
<path d="M69.2734 41.1171L72.9779 20.073L102.614 20.0783C102.639 20.0781 102.663 20.0872 102.682 20.1038C102.701 20.1204 102.713 20.1435 102.717 20.1686C102.741 20.3433 102.728 20.5765 102.676 20.8681C102.564 21.4973 101.385 28.1862 99.1397 40.9347C99.1293 40.9928 99.0989 41.0454 99.0539 41.0833C99.0089 41.1212 98.9521 41.1419 98.8935 41.1419C88.5875 41.1372 78.7425 41.1366 69.3584 41.1401C69.3254 41.1685 69.297 41.1608 69.2734 41.1171Z" fill="white"/>
<path d="M130.998 79.4708C130.948 79.4719 130.877 79.4955 130.785 79.5416C130.816 79.3645 130.789 79.2364 130.704 79.1573C130.626 79.0853 130.584 79.0458 130.58 79.0387C130.066 78.3492 129.671 77.8151 129.393 77.4361C128.975 76.8624 128.46 76.3506 128.09 75.8388C127.716 75.323 127.394 74.9186 127.123 74.6259C126.817 74.2953 126.154 73.4943 125.133 72.2229C124.547 71.4945 123.894 70.6888 123.173 69.8057C120.572 66.6242 117.246 62.5591 113.196 57.6103C112.604 56.8878 112.274 56.4811 112.204 56.3902C111.874 55.9617 111.529 55.5426 111.17 55.1329C110.642 54.5297 110.047 53.8031 109.383 52.9531C109.348 52.9082 109.31 52.8823 109.268 52.8752C109.22 52.8681 109.171 52.8734 109.123 52.8911L114.88 20.3014C114.889 20.2492 114.917 20.202 114.958 20.168C114.999 20.134 115.05 20.1154 115.103 20.1155H141.088C141.116 20.1156 141.144 20.1219 141.17 20.1339C141.195 20.1458 141.218 20.1632 141.236 20.1848C141.255 20.2064 141.268 20.2317 141.275 20.2589C141.283 20.286 141.284 20.3145 141.279 20.3421L130.945 78.9289C130.934 78.9851 130.933 79.0427 130.943 79.0989L130.998 79.4708Z" fill="white"/>
<path d="M194.16 52.2252C184.438 60.5126 174.771 68.7792 165.158 77.0252C164.515 77.5754 163.881 78.1337 163.254 78.7004C163.213 78.737 163.125 78.7653 162.99 78.7854C163.073 78.6071 163.121 78.4808 163.134 78.4065C166.551 58.9938 169.962 39.6349 173.367 20.3297C173.378 20.2642 173.412 20.2048 173.463 20.162C173.514 20.1192 173.579 20.0958 173.645 20.0959H199.548C199.572 20.0958 199.595 20.1039 199.613 20.1187C199.632 20.1336 199.644 20.1543 199.649 20.1774C199.718 20.4926 199.732 20.76 199.694 20.9796C197.844 31.4709 195.999 41.8862 194.16 52.2252Z" fill="white"/>
<path d="M298.101 42.4118L290.053 42.4206C282.097 42.4183 274.141 42.4194 266.186 42.4242C266.06 42.4242 265.947 42.4631 265.848 42.541C265.758 42.469 265.632 42.4088 265.47 42.3604L265.237 41.8982C265.221 41.8688 265.204 41.8409 265.184 41.815C263.717 39.9332 261.865 37.6383 259.627 34.9302C257.694 32.5915 254.271 28.4148 249.356 22.4C248.405 21.2348 247.8 20.4569 247.543 20.0661L282.987 20.0608C283.057 20.0607 283.126 20.0763 283.188 20.1063C283.251 20.1364 283.307 20.1801 283.35 20.2343L298.349 38.6028C298.435 38.7086 298.485 38.8389 298.492 38.9747C298.55 40.0478 298.42 41.1935 298.101 42.4118Z" fill="white"/>
<path d="M329.989 20.0978C330.035 20.5145 330.014 20.9696 329.927 21.4631C328.798 27.8556 327.678 34.2494 326.566 40.6443C326.468 41.2122 326.371 41.793 326.274 42.3868L310.507 42.385C310.488 42.3851 310.47 42.381 310.453 42.3731C310.436 42.3652 310.421 42.3536 310.409 42.3393C310.397 42.3249 310.388 42.308 310.383 42.2899C310.378 42.2718 310.378 42.2529 310.381 42.2345L314.252 20.2855C314.26 20.2433 314.281 20.2049 314.313 20.1764C314.345 20.1479 314.385 20.1308 314.427 20.1279C316.488 19.965 318.472 20.112 320.483 20.1155C323.65 20.1226 326.818 20.1167 329.989 20.0978Z" fill="white"/>
<path d="M352.772 42.3444C352.641 42.0593 352.821 41.8238 352.86 41.6042C353.934 35.5328 355.005 29.4613 356.071 23.3898C356.244 22.4041 356.404 21.4544 356.55 20.5406C356.569 20.4214 356.608 20.2573 356.666 20.0483C361.12 20.1263 365.578 20.1463 370.04 20.1085C370.272 20.1062 370.543 20.0902 370.853 20.0607C370.871 20.059 370.889 20.0609 370.907 20.0662C370.924 20.0715 370.94 20.0802 370.954 20.0918C370.968 20.1033 370.979 20.1175 370.987 20.1334C370.996 20.1494 371.001 20.1668 371.002 20.1847C371.035 20.5518 371.016 20.9361 370.945 21.3375C369.477 29.6142 368.25 36.5604 367.264 42.1762C367.253 42.2376 367.221 42.2934 367.174 42.3336C367.126 42.3738 367.066 42.3958 367.003 42.3958L352.772 42.3444Z" fill="white"/>
<path d="M247.542 20.0659C247.799 20.4567 248.404 21.2346 249.355 22.3998C254.27 28.4146 257.693 32.5913 259.626 34.93C261.864 37.6381 263.716 39.9331 265.183 41.8148C265.203 41.8407 265.22 41.8686 265.236 41.898L265.47 42.3602L238.19 42.3868C238.141 42.3655 238.087 42.3632 238.029 42.3797L238.079 42.3089C238.087 42.296 238.092 42.2815 238.095 42.2664L241.831 21.2152C241.839 21.1669 241.852 21.1194 241.87 21.0735C241.995 20.7465 242.051 20.4177 242.038 20.0872L247.542 20.0659Z" fill="white"/>
<path d="M69.2732 41.1172L57.416 108.344C57.406 108.4 57.3766 108.451 57.3329 108.488C57.2891 108.525 57.2339 108.545 57.1769 108.546H32.5806C32.5583 108.546 32.5362 108.541 32.516 108.531C32.4958 108.522 32.4779 108.508 32.4635 108.491C32.4491 108.474 32.4387 108.453 32.4329 108.432C32.4272 108.41 32.4262 108.387 32.4301 108.365L44.3351 41.1632C44.341 41.1502 44.3469 41.1367 44.3528 41.1225L69.2732 41.1172Z" fill="white"/>
<path d="M238.03 42.3797C238.087 42.3632 238.141 42.3656 238.191 42.3868C238.07 42.4352 237.989 42.5781 237.948 42.8153C237.214 47.0263 236.544 50.8182 235.938 54.1909C235.734 55.3301 235.562 56.3962 235.423 57.389C235.228 58.7879 234.869 60.224 234.628 61.6407C234.528 62.2309 233.852 66.0547 232.602 73.1119C232.43 74.0858 232.254 75.1607 232.074 76.3365C231.857 77.7673 231.522 79.2335 231.281 80.6218C230.994 82.2663 229.361 91.5275 226.383 108.406C226.376 108.446 226.354 108.482 226.323 108.508C226.292 108.534 226.252 108.549 226.211 108.549H200.055C200.029 108.549 200.003 108.544 199.98 108.533C199.956 108.522 199.936 108.506 199.919 108.487C199.902 108.467 199.89 108.444 199.883 108.419C199.876 108.395 199.875 108.369 199.88 108.344L211.499 42.3071C211.901 42.3909 212.288 42.4329 212.661 42.4329C220.688 42.4352 228.714 42.4275 236.74 42.4098C237.176 42.4087 237.606 42.3986 238.03 42.3797Z" fill="white"/>
<path d="M298.1 42.4116L293.693 67.433C293.676 67.5357 293.622 67.6287 293.542 67.695L289.358 71.2065L274.766 53.4065C274.74 53.3745 274.703 53.3537 274.664 53.348L274.604 53.3392C274.625 53.3333 274.645 53.3268 274.665 53.3197C278.494 50.0532 282.349 46.7932 286.231 43.5396C286.687 43.1571 286.965 42.6985 287.576 42.6454C287.607 42.6427 287.637 42.6308 287.661 42.6112C287.685 42.5917 287.702 42.5653 287.711 42.5356C287.713 42.5273 287.715 42.522 287.716 42.5196C287.73 42.492 287.751 42.4688 287.778 42.4526C287.805 42.4363 287.835 42.4276 287.867 42.4276L290.052 42.4205L298.1 42.4116Z" fill="white"/>
<path d="M290.053 42.4204L287.867 42.4275C287.836 42.4275 287.805 42.4362 287.779 42.4525C287.752 42.4687 287.731 42.4919 287.717 42.5195C287.716 42.5219 287.714 42.5272 287.712 42.5355C287.703 42.5652 287.685 42.5916 287.661 42.6111C287.637 42.6307 287.608 42.6426 287.577 42.6453C286.966 42.6984 286.688 43.157 286.231 43.5395C282.35 46.7931 278.495 50.0531 274.666 53.3196L265.848 42.5408C265.947 42.4629 266.06 42.4239 266.186 42.4239C274.141 42.4192 282.097 42.418 290.053 42.4204Z" fill="white"/>
<path d="M352.638 42.4487L344.942 86.2157L344.846 86.584L344.822 86.3857C344.819 86.3605 344.808 86.337 344.79 86.319C344.772 86.301 344.749 86.2896 344.724 86.2865C344.244 86.2287 343.916 86.1998 343.741 86.1998C335.802 86.2068 328.267 86.2074 321.134 86.2015C321.037 86.2015 320.617 86.2086 319.875 86.2228C319.445 86.231 319.014 86.2222 318.582 86.1962L326.264 42.4647L352.638 42.4487Z" fill="white"/>
<path d="M194.16 52.2253C194.158 52.55 194.15 52.7548 194.135 52.8398C191.764 66.2494 189.753 77.651 188.1 87.0445C187.963 87.8201 187.93 88.0521 187.294 88.5922C177.27 97.1215 169.893 103.404 165.163 107.441C164.665 107.865 164.063 108.538 163.388 108.542C161.527 108.55 159.648 108.55 157.752 108.54C159.44 99.0109 161.122 89.4905 162.799 79.979C162.862 79.6225 162.885 79.2937 162.866 78.9927C162.885 78.923 162.926 78.854 162.99 78.7855C163.125 78.7654 163.212 78.7371 163.254 78.7005C163.881 78.1338 164.515 77.5755 165.157 77.0253C174.77 68.7793 184.438 60.5127 194.16 52.2253Z" fill="white"/>
<path d="M130.785 79.5417C130.665 80.5358 130.577 81.1951 130.521 81.5197C128.922 90.5177 127.332 99.5252 125.748 108.542L119.372 108.544C119.305 108.544 119.239 108.529 119.178 108.501C119.117 108.472 119.064 108.431 119.021 108.379C115.166 103.682 109.804 97.1653 102.935 88.8296C102.812 88.6796 102.782 88.4323 102.843 88.0876C103.187 86.1822 105.242 74.5776 109.009 53.2738C109.033 53.1404 109.07 53.0129 109.122 52.8913C109.171 52.8736 109.219 52.8683 109.268 52.8754C109.309 52.8824 109.347 52.9084 109.383 52.9533C110.046 53.8032 110.642 54.5299 111.169 55.1331C111.528 55.5428 111.873 55.9618 112.204 56.3904C112.273 56.4813 112.604 56.888 113.195 57.6105C117.246 62.5592 120.571 66.6244 123.172 69.8059C123.893 70.689 124.547 71.4947 125.132 72.2231C126.153 73.4945 126.817 74.2955 127.123 74.626C127.393 74.9188 127.715 75.3231 128.089 75.839C128.46 76.3508 128.975 76.8625 129.393 77.4363C129.67 77.8152 130.066 78.3494 130.579 79.0388C130.584 79.0459 130.625 79.0855 130.703 79.1575C130.788 79.2366 130.815 79.3647 130.785 79.5417Z" fill="white"/>
<path d="M274.605 53.3391L274.665 53.348C274.705 53.3536 274.741 53.3744 274.768 53.4064L289.359 71.2064C280.016 79.0936 274.157 84.0482 271.78 86.0705C271.527 86.2853 271.27 86.3934 271.01 86.3945C257.263 86.4087 245.94 86.4058 237.043 86.3857C236.637 86.3839 236.242 86.4477 235.858 86.4335C235.842 86.433 235.827 86.4279 235.813 86.4189C235.8 86.4098 235.79 86.3971 235.784 86.3824C235.778 86.3676 235.776 86.3514 235.779 86.3357C235.781 86.3199 235.789 86.3053 235.8 86.2936C236.173 85.8993 236.517 85.5682 236.834 85.3002C249.43 74.6542 262.02 64.0005 274.605 53.3391Z" fill="white"/>
<path d="M162.867 78.9927C162.886 79.2937 162.864 79.6225 162.8 79.979C161.124 89.4905 159.441 99.0109 157.753 108.54L154.711 108.538L143.861 95.1972L162.867 78.9927Z" fill="white"/>
<path d="M130.999 79.4709L143.743 95.1354C143.762 95.2393 143.738 95.3196 143.67 95.3762C135.594 102.263 131.002 106.201 129.892 107.187C129.427 107.602 128.937 107.987 128.424 108.344C128.41 108.353 128.399 108.367 128.392 108.382C128.385 108.398 128.382 108.415 128.384 108.432C128.387 108.449 128.394 108.465 128.404 108.478C128.415 108.491 128.429 108.501 128.445 108.507L128.543 108.54L125.75 108.542C127.333 99.5252 128.924 90.5178 130.522 81.5198C130.579 81.1951 130.667 80.5358 130.786 79.5418C130.878 79.4957 130.949 79.4721 130.999 79.4709Z" fill="white"/>
<path d="M318.599 86.2141L314.593 108.544L298.809 108.54C298.792 108.54 298.776 108.537 298.761 108.53C298.746 108.523 298.732 108.512 298.722 108.499C298.711 108.487 298.704 108.472 298.699 108.455C298.695 108.439 298.694 108.422 298.697 108.406L302.591 86.3345C302.596 86.3078 302.609 86.2835 302.63 86.266C302.651 86.2485 302.677 86.2389 302.704 86.2389L318.599 86.2141Z" fill="white"/>
<path d="M318.582 86.1963C319.014 86.2223 319.445 86.2311 319.874 86.2229C320.617 86.2087 321.037 86.2016 321.133 86.2016C328.266 86.2075 335.802 86.2069 343.741 86.1998C343.916 86.1998 344.243 86.2288 344.724 86.2866C344.749 86.2897 344.772 86.3011 344.789 86.3191C344.807 86.3371 344.818 86.3605 344.821 86.3858L344.846 86.5841L341.01 108.544H314.594L318.599 86.214C318.593 86.2081 318.587 86.2022 318.582 86.1963Z" fill="white"/>
<path d="M341.01 108.544L344.845 86.5842L344.941 86.2158H359.295C359.319 86.2157 359.344 86.221 359.366 86.2312C359.388 86.2415 359.408 86.2566 359.424 86.2754C359.439 86.2941 359.451 86.3162 359.457 86.3398C359.463 86.3635 359.464 86.3883 359.46 86.4124L355.578 108.416C355.572 108.451 355.554 108.482 355.528 108.504C355.501 108.526 355.468 108.539 355.433 108.538L341.01 108.544Z" fill="white"/>
<path d="M143.861 95.1972L154.71 108.538L128.542 108.54L128.444 108.507C128.428 108.501 128.414 108.491 128.403 108.478C128.393 108.464 128.386 108.448 128.384 108.432C128.381 108.415 128.384 108.398 128.391 108.382C128.398 108.366 128.409 108.353 128.423 108.344C128.937 107.987 129.426 107.602 129.891 107.187C131.001 106.2 135.594 102.263 143.67 95.3761C143.737 95.3194 143.761 95.2391 143.742 95.1353L143.861 95.1972Z" fill="white"/>
<path d="M165.279 140.799V126.333H168.373V140.799H165.279ZM166.726 135.193V132.823H175.024V135.193H166.726ZM166.726 128.704V126.333H175.486V128.704H166.726Z" fill="white"/>
<path d="M177.131 140.799V126.333H180.225V140.799H177.131Z" fill="white"/>
<path d="M182.232 140.799V126.333H186.23L192.66 139.111L191.675 139.353V126.333H194.689V140.799H190.691L184.261 128.021L185.246 127.779V140.799H182.232Z" fill="white"/>
<path d="M200.892 140.799V128.704H196.171V126.333H208.708V128.704H203.986V140.799H200.892Z" fill="white"/>
<path d="M210.192 140.799V126.333H213.286V140.799H210.192ZM211.639 140.799V138.428H220.962V140.799H211.639ZM211.639 134.571V132.24H220.258V134.571H211.639ZM211.639 128.704V126.333H220.721V128.704H211.639Z" fill="white"/>
<path d="M229.072 141C228.027 141 227.062 140.819 226.178 140.458C225.294 140.083 224.524 139.56 223.868 138.89C223.225 138.221 222.722 137.43 222.361 136.52C221.999 135.595 221.818 134.591 221.818 133.506C221.818 132.421 221.992 131.43 222.341 130.532C222.702 129.635 223.205 128.858 223.848 128.201C224.504 127.532 225.274 127.023 226.158 126.674C227.042 126.313 228.013 126.132 229.072 126.132C230.264 126.132 231.335 126.366 232.286 126.835C233.251 127.291 234.034 127.94 234.637 128.784C235.253 129.615 235.628 130.592 235.762 131.718H232.748C232.574 130.686 232.152 129.909 231.483 129.387C230.813 128.851 230.016 128.583 229.092 128.583C228.275 128.583 227.551 128.777 226.922 129.166C226.306 129.554 225.823 130.117 225.475 130.854C225.127 131.577 224.953 132.454 224.953 133.486C224.953 134.53 225.127 135.435 225.475 136.198C225.837 136.948 226.332 137.531 226.962 137.946C227.591 138.348 228.315 138.549 229.132 138.549C230.002 138.549 230.773 138.288 231.442 137.765C232.112 137.243 232.547 136.466 232.748 135.435H235.802C235.628 136.56 235.233 137.544 234.617 138.388C234.001 139.219 233.217 139.862 232.266 140.317C231.315 140.772 230.25 141 229.072 141Z" fill="white"/>
<path d="M237.289 140.799V126.333H240.383V140.799H237.289ZM246.652 140.799V126.333H249.746V140.799H246.652ZM238.736 132.079H248.059V134.45H238.736V132.079Z" fill="white"/>
<path d="M261.524 140.98C259.648 140.98 258.148 140.565 257.023 139.734C255.898 138.89 255.241 137.705 255.054 136.178H258.027C258.121 136.955 258.496 137.571 259.153 138.026C259.809 138.468 260.646 138.69 261.664 138.69C262.495 138.69 263.131 138.542 263.573 138.247C264.028 137.953 264.256 137.558 264.256 137.062C264.256 136.593 264.122 136.218 263.854 135.937C263.586 135.642 263.124 135.408 262.468 135.234L259.775 134.49C258.396 134.102 257.385 133.573 256.742 132.903C256.112 132.22 255.797 131.369 255.797 130.351C255.797 129.481 256.018 128.73 256.46 128.101C256.916 127.458 257.552 126.969 258.369 126.634C259.186 126.286 260.144 126.112 261.242 126.112C262.93 126.112 264.276 126.514 265.281 127.317C266.285 128.108 266.855 129.159 266.989 130.472H264.015C263.881 129.762 263.553 129.239 263.03 128.905C262.521 128.57 261.865 128.402 261.061 128.402C260.365 128.402 259.809 128.536 259.394 128.804C258.978 129.072 258.771 129.434 258.771 129.889C258.771 130.237 258.885 130.559 259.112 130.854C259.34 131.135 259.816 131.376 260.539 131.577L263.231 132.32C264.651 132.709 265.669 133.245 266.285 133.928C266.915 134.597 267.23 135.448 267.23 136.479C267.23 137.926 266.727 139.038 265.723 139.815C264.718 140.592 263.318 140.98 261.524 140.98Z" fill="white"/>
<path d="M275.695 141C274.624 141 273.633 140.819 272.722 140.458C271.824 140.096 271.041 139.587 270.371 138.931C269.715 138.261 269.199 137.471 268.824 136.56C268.462 135.635 268.281 134.617 268.281 133.506C268.281 132.032 268.596 130.746 269.226 129.648C269.855 128.536 270.726 127.672 271.838 127.056C272.963 126.44 274.242 126.132 275.675 126.132C277.135 126.132 278.421 126.44 279.533 127.056C280.645 127.672 281.515 128.536 282.145 129.648C282.788 130.76 283.109 132.052 283.109 133.526C283.109 134.624 282.922 135.635 282.547 136.56C282.185 137.471 281.669 138.261 281 138.931C280.343 139.587 279.56 140.096 278.649 140.458C277.751 140.819 276.767 141 275.695 141ZM275.675 138.549C276.519 138.549 277.263 138.335 277.906 137.906C278.548 137.477 279.051 136.888 279.412 136.138C279.787 135.374 279.975 134.49 279.975 133.486C279.975 132.494 279.794 131.63 279.433 130.894C279.071 130.157 278.569 129.588 277.926 129.186C277.283 128.784 276.533 128.583 275.675 128.583C274.831 128.583 274.088 128.784 273.445 129.186C272.802 129.588 272.3 130.157 271.938 130.894C271.59 131.617 271.416 132.481 271.416 133.486C271.416 134.504 271.597 135.394 271.958 136.158C272.32 136.908 272.822 137.497 273.465 137.926C274.108 138.341 274.845 138.549 275.675 138.549Z" fill="white"/>
<path d="M284.714 140.799V126.333H287.808V140.799H284.714ZM286.16 140.799V138.428H294.76V140.799H286.16Z" fill="white"/>
<path d="M301.631 141C299.568 141 298.021 140.438 296.989 139.312C295.971 138.174 295.462 136.52 295.462 134.35V126.333H298.557V134.892C298.557 136.151 298.831 137.075 299.38 137.665C299.93 138.254 300.686 138.549 301.651 138.549C302.615 138.549 303.372 138.254 303.921 137.665C304.47 137.075 304.745 136.158 304.745 134.912V126.333H307.839V134.39C307.839 136.533 307.323 138.174 306.292 139.312C305.261 140.438 303.707 141 301.631 141Z" fill="white"/>
<path d="M313.891 140.799V128.704H309.169V126.333H321.707V128.704H316.985V140.799H313.891Z" fill="white"/>
<path d="M323.191 140.799V126.333H326.285V140.799H323.191Z" fill="white"/>
<path d="M335.305 141C334.233 141 333.242 140.819 332.331 140.458C331.434 140.096 330.65 139.587 329.98 138.931C329.324 138.261 328.808 137.471 328.433 136.56C328.072 135.635 327.891 134.617 327.891 133.506C327.891 132.032 328.205 130.746 328.835 129.648C329.465 128.536 330.335 127.672 331.447 127.056C332.572 126.44 333.851 126.132 335.285 126.132C336.745 126.132 338.031 126.44 339.142 127.056C340.254 127.672 341.125 128.536 341.754 129.648C342.397 130.76 342.719 132.052 342.719 133.526C342.719 134.624 342.531 135.635 342.156 136.56C341.794 137.471 341.279 138.261 340.609 138.931C339.953 139.587 339.169 140.096 338.258 140.458C337.361 140.819 336.376 141 335.305 141ZM335.285 138.549C336.128 138.549 336.872 138.335 337.515 137.906C338.158 137.477 338.66 136.888 339.022 136.138C339.397 135.374 339.584 134.49 339.584 133.486C339.584 132.494 339.403 131.63 339.042 130.894C338.68 130.157 338.178 129.588 337.535 129.186C336.892 128.784 336.142 128.583 335.285 128.583C334.441 128.583 333.697 128.784 333.054 129.186C332.411 129.588 331.909 130.157 331.547 130.894C331.199 131.617 331.025 132.481 331.025 133.486C331.025 134.504 331.206 135.394 331.568 136.158C331.929 136.908 332.432 137.497 333.074 137.926C333.717 138.341 334.454 138.549 335.285 138.549Z" fill="white"/>
<path d="M344.323 140.799V126.333H348.321L354.751 139.111L353.766 139.353V126.333H356.78V140.799H352.782L346.352 128.021L347.337 127.779V140.799H344.323Z" fill="white"/>
<path d="M364.731 140.98C362.856 140.98 361.356 140.565 360.231 139.734C359.105 138.89 358.449 137.705 358.262 136.178H361.235C361.329 136.955 361.704 137.571 362.36 138.026C363.017 138.468 363.854 138.69 364.872 138.69C365.702 138.69 366.339 138.542 366.781 138.247C367.236 137.953 367.464 137.558 367.464 137.062C367.464 136.593 367.33 136.218 367.062 135.937C366.794 135.642 366.332 135.408 365.676 135.234L362.983 134.49C361.604 134.102 360.592 133.573 359.949 132.903C359.32 132.22 359.005 131.369 359.005 130.351C359.005 129.481 359.226 128.73 359.668 128.101C360.123 127.458 360.76 126.969 361.577 126.634C362.394 126.286 363.352 126.112 364.45 126.112C366.138 126.112 367.484 126.514 368.488 127.317C369.493 128.108 370.062 129.159 370.196 130.472H367.223C367.089 129.762 366.761 129.239 366.238 128.905C365.729 128.57 365.073 128.402 364.269 128.402C363.573 128.402 363.017 128.536 362.601 128.804C362.186 129.072 361.979 129.434 361.979 129.889C361.979 130.237 362.092 130.559 362.32 130.854C362.548 131.135 363.023 131.376 363.747 131.577L366.439 132.32C367.859 132.709 368.877 133.245 369.493 133.928C370.123 134.597 370.437 135.448 370.437 136.479C370.437 137.926 369.935 139.038 368.93 139.815C367.926 140.592 366.526 140.98 364.731 140.98Z" fill="white"/>
</svg>
