<svg width="380" height="160" viewBox="0 0 380 160" fill="none" xmlns="http://www.w3.org/2000/svg">
<path d="M48.0632 20.0801H18.3846C18.3394 20.0802 18.2956 20.0963 18.261 20.1254C18.2263 20.1545 18.2031 20.1949 18.1952 20.2395L14.5615 40.8462C14.555 40.8831 14.5567 40.9211 14.5663 40.9573C14.576 40.9935 14.5934 41.0272 14.6174 41.0559C14.6414 41.0846 14.6713 41.1076 14.7051 41.1234C14.7389 41.1392 14.7757 41.1473 14.8129 41.1472L44.3356 41.1632" stroke="#7FE3EF" stroke-width="0.354159"/>
<path d="M44.3351 41.163L32.4301 108.365C32.4262 108.387 32.4272 108.41 32.4329 108.431C32.4387 108.453 32.4491 108.473 32.4635 108.491C32.4779 108.508 32.4958 108.522 32.516 108.531C32.5362 108.541 32.5583 108.545 32.5806 108.545H57.1769C57.2339 108.545 57.2891 108.525 57.3329 108.488C57.3766 108.451 57.406 108.4 57.416 108.343L69.2732 41.1169" stroke="#CEF19B" stroke-width="0.354159"/>
<path d="M69.2734 41.1171C69.297 41.1608 69.3254 41.1685 69.3584 41.1401C78.7425 41.1366 88.5875 41.1372 98.8935 41.1419C98.9521 41.1419 99.0089 41.1212 99.0539 41.0833C99.0989 41.0454 99.1293 40.9928 99.1397 40.9347C101.385 28.1862 102.564 21.4973 102.676 20.8681C102.728 20.5765 102.741 20.3433 102.717 20.1686C102.713 20.1435 102.701 20.1204 102.682 20.1038C102.663 20.0872 102.639 20.0781 102.614 20.0783L72.9779 20.073" stroke="#7FE3EF" stroke-width="0.354159"/>
<path d="M72.9776 20.073L48.0625 20.0801" stroke="#B6EB95" stroke-width="0.354159"/>
<path d="M72.9779 20.073L69.2734 41.1171" stroke="#37CF84" stroke-width="0.354159"/>
<path d="M69.2729 41.1169L44.3525 41.1223" stroke="#86DD31" stroke-width="0.354159"/>
<path d="M44.3525 41.1224L48.0624 20.0801" stroke="#37CF84" stroke-width="0.354159"/>
<path d="M44.3527 41.1223C44.3468 41.1365 44.3409 41.1501 44.335 41.163" stroke="#4FD58B" stroke-width="0.354159"/>
<path d="M211.5 42.3071L199.881 108.344C199.876 108.369 199.877 108.395 199.884 108.419C199.891 108.444 199.903 108.467 199.92 108.487C199.937 108.506 199.957 108.522 199.981 108.533C200.004 108.544 200.03 108.549 200.056 108.549H226.212C226.253 108.549 226.293 108.534 226.324 108.508C226.355 108.482 226.377 108.446 226.384 108.406C229.362 91.5275 230.995 82.2663 231.282 80.6218C231.523 79.2335 231.858 77.7673 232.075 76.3365C232.255 75.1607 232.431 74.0858 232.603 73.1119C233.853 66.0547 234.528 62.2309 234.629 61.6407C234.87 60.224 235.229 58.7879 235.424 57.389C235.563 56.3962 235.735 55.3301 235.939 54.1909C236.545 50.8182 237.215 47.0263 237.949 42.8153C237.99 42.5781 238.071 42.4352 238.192 42.3868" stroke="#FED994" stroke-width="0.354159"/>
<path d="M238.191 42.3869L265.47 42.3604" stroke="#CEF19B" stroke-width="0.354159"/>
<path d="M265.471 42.3604C265.632 42.4088 265.758 42.469 265.848 42.541" stroke="#C6E495" stroke-width="0.354159"/>
<path d="M265.848 42.5408L274.666 53.3196" stroke="#CEC1E9" stroke-width="0.354159"/>
<path d="M274.666 53.3196C274.646 53.3267 274.626 53.3332 274.604 53.3391" stroke="#B7BBE6" stroke-width="0.354159"/>
<path d="M274.604 53.3391C262.019 64.0005 249.429 74.6542 236.833 85.3002C236.516 85.5682 236.172 85.8993 235.799 86.2936C235.788 86.3053 235.78 86.3199 235.778 86.3357C235.775 86.3514 235.777 86.3676 235.783 86.3824C235.789 86.3971 235.799 86.4098 235.812 86.4189C235.826 86.4279 235.841 86.433 235.857 86.4335C236.241 86.4477 236.636 86.3839 237.042 86.3857C245.939 86.4058 257.262 86.4087 271.009 86.3945C271.269 86.3934 271.526 86.2853 271.779 86.0705C274.156 84.0482 280.015 79.0936 289.358 71.2064" stroke="#7FE3EF" stroke-width="0.354159"/>
<path d="M289.358 71.2065L293.543 67.695C293.623 67.6287 293.676 67.5357 293.693 67.433L298.101 42.4116" stroke="#B7BBE6" stroke-width="0.354159"/>
<path d="M298.101 42.4115C298.42 41.1932 298.55 40.0475 298.492 38.9744C298.485 38.8387 298.435 38.7084 298.349 38.6025L283.35 20.2341C283.307 20.1799 283.251 20.1361 283.188 20.1061C283.126 20.0761 283.057 20.0605 282.987 20.0605L247.543 20.0659" stroke="#C6E495" stroke-width="0.354159"/>
<path d="M247.543 20.0659L242.039 20.0872" stroke="#CEF19B" stroke-width="0.354159"/>
<path d="M242.039 20.0871L215.557 20.0322C215.53 20.0323 215.504 20.0419 215.483 20.0594C215.462 20.0769 215.448 20.1011 215.444 20.1278L211.5 42.3071" stroke="#D1E980" stroke-width="0.354159"/>
<path d="M242.039 20.0872C242.052 20.4177 241.996 20.7465 241.871 21.0735C241.853 21.1194 241.84 21.1669 241.832 21.2152L238.096 42.2664C238.093 42.2815 238.088 42.296 238.08 42.3089L238.03 42.3797" stroke="#A1DB1C" stroke-width="0.354159"/>
<path d="M238.03 42.3797C237.606 42.3986 237.177 42.4087 236.741 42.4098C228.714 42.4275 220.688 42.4352 212.662 42.4329C212.289 42.4329 211.901 42.3909 211.5 42.3071" stroke="#D1C315" stroke-width="0.354159"/>
<path d="M238.191 42.3868C238.142 42.3656 238.088 42.3632 238.03 42.3797" stroke="#CECB30" stroke-width="0.354159"/>
<path d="M298.101 42.4116L290.053 42.4205" stroke="#7FA07C" stroke-width="0.354159"/>
<path d="M290.053 42.4204C282.097 42.418 274.141 42.4192 266.186 42.4239C266.06 42.4239 265.947 42.4629 265.848 42.5408" stroke="#96A67F" stroke-width="0.354159"/>
<path d="M265.47 42.3602L265.237 41.8981C265.221 41.8686 265.204 41.8407 265.184 41.8148C263.717 39.9331 261.865 37.6381 259.627 34.93C257.694 32.5913 254.271 28.4146 249.356 22.3998C248.405 21.2346 247.8 20.4567 247.543 20.0659" stroke="#96D631" stroke-width="0.354159"/>
<path d="M289.359 71.2064L274.767 53.4064C274.741 53.3744 274.704 53.3536 274.665 53.348L274.604 53.3391" stroke="#389FD5" stroke-width="0.354159"/>
<path d="M274.666 53.3197C278.494 50.0531 282.349 46.7931 286.231 43.5396C286.688 43.1571 286.966 42.6984 287.577 42.6453C287.608 42.6427 287.637 42.6308 287.661 42.6112C287.685 42.5916 287.703 42.5652 287.711 42.5355C287.714 42.5272 287.716 42.5219 287.717 42.5196C287.731 42.492 287.752 42.4688 287.779 42.4525C287.805 42.4362 287.836 42.4276 287.867 42.4275L290.052 42.4204" stroke="#877DCF" stroke-width="0.354159"/>
<path d="M329.989 20.0978C326.818 20.1167 323.65 20.1226 320.483 20.1155C318.472 20.112 316.488 19.965 314.427 20.1279C314.385 20.1308 314.345 20.1479 314.313 20.1764C314.281 20.2049 314.26 20.2433 314.252 20.2855L310.381 42.2345C310.378 42.2529 310.378 42.2718 310.383 42.2899C310.388 42.308 310.397 42.3249 310.409 42.3393C310.421 42.3536 310.436 42.3652 310.453 42.3731C310.47 42.381 310.488 42.3851 310.507 42.385L326.274 42.3868" stroke="#CEF19B" stroke-width="0.354159"/>
<path d="M326.274 42.3867C326.271 42.4127 326.267 42.4387 326.264 42.4646" stroke="#FECB85" stroke-width="0.354159"/>
<path d="M326.264 42.4646L318.582 86.1961" stroke="#FED994" stroke-width="0.354159"/>
<path d="M318.582 86.1963C318.588 86.2022 318.594 86.2081 318.6 86.214" stroke="#FECB85" stroke-width="0.354159"/>
<path d="M318.6 86.2139L302.705 86.2387C302.678 86.2387 302.652 86.2483 302.631 86.2658C302.61 86.2833 302.597 86.3075 302.592 86.3343L298.698 108.405C298.695 108.422 298.696 108.439 298.7 108.455C298.704 108.471 298.712 108.486 298.723 108.499C298.733 108.512 298.747 108.522 298.762 108.529C298.777 108.536 298.793 108.54 298.81 108.54L314.594 108.544" stroke="#F9B8B9" stroke-width="0.354159"/>
<path d="M314.594 108.544H341.01" stroke="#FECB85" stroke-width="0.354159"/>
<path d="M341.011 108.544L355.434 108.538C355.469 108.539 355.502 108.526 355.529 108.504C355.555 108.482 355.573 108.451 355.579 108.416L359.461 86.4124C359.465 86.3883 359.464 86.3635 359.458 86.3398C359.452 86.3162 359.44 86.2941 359.425 86.2754C359.409 86.2566 359.389 86.2415 359.367 86.2312C359.345 86.221 359.32 86.2157 359.296 86.2158H344.942" stroke="#F9B8B9" stroke-width="0.354159"/>
<path d="M344.941 86.2157L352.637 42.4487" stroke="#FED994" stroke-width="0.354159"/>
<path d="M352.638 42.4487L352.772 42.3442" stroke="#FECB85" stroke-width="0.354159"/>
<path d="M352.772 42.3444L367.004 42.3958C367.067 42.3958 367.127 42.3738 367.175 42.3336C367.222 42.2934 367.254 42.2376 367.265 42.1762C368.25 36.5604 369.478 29.6142 370.946 21.3375C371.017 20.9361 371.036 20.5518 371.003 20.1847C371.001 20.1668 370.997 20.1494 370.988 20.1334C370.98 20.1175 370.969 20.1033 370.955 20.0918C370.941 20.0802 370.925 20.0715 370.908 20.0662C370.89 20.0609 370.872 20.059 370.854 20.0607C370.544 20.0902 370.273 20.1062 370.041 20.1085C365.579 20.1463 361.121 20.1263 356.666 20.0483" stroke="#CEF19B" stroke-width="0.354159"/>
<path d="M356.666 20.0483C348.255 20.001 339.846 19.9886 331.438 20.0111C330.948 20.0123 330.465 20.0412 329.989 20.0978" stroke="#FECB85" stroke-width="0.354159"/>
<path d="M356.667 20.0483C356.609 20.2573 356.57 20.4214 356.551 20.5406C356.405 21.4544 356.245 22.4041 356.072 23.3898C355.006 29.4613 353.935 35.5328 352.861 41.6042C352.822 41.8238 352.642 42.0593 352.773 42.3444" stroke="#CEBD21" stroke-width="0.354159"/>
<path d="M352.638 42.4487L326.264 42.4647" stroke="#FEA51A" stroke-width="0.354159"/>
<path d="M326.274 42.3867C326.371 41.7928 326.469 41.212 326.567 40.6442C327.679 34.2493 328.799 27.8555 329.928 21.4629C330.015 20.9695 330.036 20.5144 329.99 20.0977" stroke="#CEBD21" stroke-width="0.354159"/>
<path d="M344.941 86.2158L344.846 86.5841" stroke="#F9924D" stroke-width="0.354159"/>
<path d="M344.846 86.5841L344.822 86.3858C344.819 86.3605 344.808 86.3371 344.79 86.3191C344.772 86.3011 344.749 86.2897 344.724 86.2866C344.244 86.2288 343.916 86.1998 343.741 86.1998C335.802 86.2069 328.267 86.2075 321.134 86.2016C321.037 86.2016 320.617 86.2087 319.875 86.2229C319.445 86.2311 319.014 86.2223 318.582 86.1963" stroke="#FEA51A" stroke-width="0.354159"/>
<path d="M344.846 86.584L341.011 108.544" stroke="#F9843F" stroke-width="0.354159"/>
<path d="M318.599 86.2139L314.594 108.544" stroke="#F9843F" stroke-width="0.354159"/>
<path d="M109.123 52.8911C109.071 53.0127 109.034 53.1402 109.01 53.2736C105.243 74.5774 103.188 86.1821 102.844 88.0874C102.783 88.4321 102.813 88.6795 102.936 88.8294C109.805 97.1651 115.167 103.682 119.022 108.379C119.065 108.431 119.118 108.472 119.179 108.5C119.24 108.529 119.306 108.544 119.373 108.544L125.749 108.542" stroke="#D1E980" stroke-width="0.354159"/>
<path d="M125.749 108.542L128.542 108.54" stroke="#FED994" stroke-width="0.354159"/>
<path d="M128.542 108.54L154.711 108.538" stroke="#FAB2A6" stroke-width="0.354159"/>
<path d="M154.711 108.538L157.753 108.54" stroke="#F9B8B9" stroke-width="0.354159"/>
<path d="M157.753 108.54C159.649 108.55 161.528 108.55 163.389 108.542C164.064 108.538 164.666 107.865 165.164 107.441C169.894 103.404 177.271 97.1215 187.295 88.5922C187.931 88.0521 187.964 87.8201 188.101 87.0445C189.754 77.651 191.765 66.2494 194.136 52.8398C194.151 52.7548 194.159 52.55 194.16 52.2253" stroke="#F3ABB0" stroke-width="0.354159"/>
<path d="M194.161 52.2252C196 41.8862 197.845 31.4709 199.694 20.9796C199.733 20.76 199.719 20.4926 199.65 20.1774C199.645 20.1543 199.633 20.1336 199.614 20.1187C199.596 20.1039 199.573 20.0958 199.549 20.0959H173.646C173.58 20.0958 173.515 20.1192 173.464 20.162C173.413 20.2048 173.379 20.2642 173.368 20.3297C169.963 39.6349 166.552 58.9938 163.135 78.4065C163.122 78.4808 163.074 78.6071 162.991 78.7854" stroke="#CEC1E9" stroke-width="0.354159"/>
<path d="M162.991 78.7854C162.927 78.8539 162.886 78.9229 162.867 78.9926" stroke="#F3ABB0" stroke-width="0.354159"/>
<path d="M162.867 78.9927L143.861 95.1972" stroke="#F9B8B9" stroke-width="0.354159"/>
<path d="M143.861 95.197L143.742 95.135" stroke="#FAB2A6" stroke-width="0.354159"/>
<path d="M143.742 95.1352L130.998 79.4707" stroke="#FED994" stroke-width="0.354159"/>
<path d="M130.998 79.4708L130.943 79.0989C130.933 79.0427 130.934 78.9851 130.945 78.9289L141.279 20.3421C141.284 20.3145 141.283 20.286 141.275 20.2589C141.268 20.2317 141.255 20.2064 141.236 20.1848C141.218 20.1632 141.195 20.1458 141.17 20.1339C141.144 20.1219 141.116 20.1156 141.088 20.1155H115.103C115.05 20.1154 114.999 20.134 114.958 20.168C114.917 20.202 114.889 20.2492 114.88 20.3014L109.123 52.8911" stroke="#CEF19B" stroke-width="0.354159"/>
<path d="M130.998 79.4707C130.948 79.4719 130.877 79.4955 130.785 79.5415" stroke="#CECB30" stroke-width="0.354159"/>
<path d="M130.785 79.5415C130.816 79.3644 130.789 79.2363 130.704 79.1572C130.626 79.0852 130.584 79.0457 130.58 79.0386C130.066 78.3492 129.671 77.815 129.393 77.436C128.975 76.8623 128.46 76.3505 128.09 75.8388C127.716 75.3229 127.394 74.9185 127.123 74.6258C126.817 74.2952 126.154 73.4942 125.133 72.2228C124.547 71.4944 123.894 70.6887 123.173 69.8057C120.572 66.6241 117.246 62.559 113.196 57.6102C112.604 56.8877 112.274 56.481 112.204 56.3901C111.874 55.9616 111.529 55.5425 111.17 55.1329C110.642 54.5296 110.047 53.803 109.383 52.953C109.348 52.9082 109.31 52.8822 109.268 52.8751C109.22 52.868 109.171 52.8733 109.123 52.891" stroke="#A1DB1C" stroke-width="0.354159"/>
<path d="M130.785 79.5415C130.666 80.5355 130.578 81.1948 130.521 81.5195C128.923 90.5175 127.332 99.5249 125.749 108.542" stroke="#D1C315" stroke-width="0.354159"/>
<path d="M143.742 95.135C143.761 95.2389 143.737 95.3192 143.67 95.3758C135.594 102.263 131.001 106.2 129.891 107.187C129.426 107.601 128.937 107.987 128.423 108.343C128.409 108.353 128.398 108.366 128.391 108.382C128.384 108.397 128.381 108.414 128.384 108.431C128.386 108.448 128.393 108.464 128.403 108.477C128.414 108.491 128.428 108.501 128.444 108.506L128.542 108.54" stroke="#FA8C3B" stroke-width="0.354159"/>
<path d="M154.711 108.538L143.861 95.1973" stroke="#F56B60" stroke-width="0.354159"/>
<path d="M157.753 108.54C159.441 99.0109 161.123 89.4905 162.8 79.979C162.863 79.6225 162.886 79.2937 162.867 78.9927" stroke="#EE646A" stroke-width="0.354159"/>
<path d="M194.161 52.2253C184.439 60.5127 174.772 68.7793 165.159 77.0253C164.516 77.5755 163.882 78.1338 163.255 78.7005C163.214 78.7371 163.126 78.7654 162.991 78.7855" stroke="#C36D9A" stroke-width="0.354159"/>
<path d="M72.9774 20.073L69.2729 41.1171L44.3525 41.1224L48.0624 20.0801L72.9774 20.073Z" fill="#6ED72A"/>
<path d="M242.039 20.0871C242.052 20.4177 241.996 20.7464 241.871 21.0735C241.853 21.1194 241.84 21.1668 241.832 21.2151L238.096 42.2663C238.093 42.2815 238.088 42.296 238.08 42.3088L238.03 42.3797C237.606 42.3985 237.177 42.4086 236.741 42.4098C228.714 42.4275 220.688 42.4351 212.662 42.4328C212.289 42.4328 211.901 42.3909 211.5 42.3071L215.444 20.1278C215.448 20.1011 215.462 20.0769 215.483 20.0594C215.504 20.0419 215.53 20.0323 215.557 20.0322L242.039 20.0871Z" fill="#A3D301"/>
<path d="M356.666 20.0483C356.609 20.2572 356.57 20.4213 356.551 20.5405C356.405 21.4543 356.245 22.404 356.071 23.3898C355.005 29.4612 353.935 35.5327 352.861 41.6042C352.822 41.8237 352.641 42.0592 352.772 42.3443L352.638 42.4488L326.264 42.4648C326.267 42.4388 326.271 42.4128 326.274 42.3868C326.371 41.793 326.468 41.2122 326.566 40.6444C327.679 34.2495 328.799 27.8557 329.927 21.4631C330.015 20.9697 330.035 20.5146 329.989 20.0978C330.465 20.0412 330.948 20.0123 331.438 20.0111C339.846 19.9886 348.255 20.001 356.666 20.0483Z" fill="#FE960B"/>
<path d="M48.0632 20.0801L44.3533 41.1224C44.3474 41.1366 44.3415 41.1502 44.3356 41.1632L14.8129 41.1472C14.7757 41.1473 14.7389 41.1392 14.7051 41.1234C14.6713 41.1076 14.6414 41.0846 14.6174 41.0559C14.5934 41.0272 14.576 40.9935 14.5663 40.9573C14.5567 40.9211 14.555 40.8831 14.5615 40.8462L18.1952 20.2395C18.2031 20.1949 18.2263 20.1545 18.261 20.1254C18.2956 20.0963 18.3394 20.0802 18.3846 20.0801H48.0632Z" fill="#00C7DE"/>
<path d="M69.2734 41.1171L72.9779 20.073L102.614 20.0783C102.639 20.0781 102.663 20.0872 102.682 20.1038C102.701 20.1204 102.713 20.1435 102.717 20.1686C102.741 20.3433 102.728 20.5765 102.676 20.8681C102.564 21.4973 101.385 28.1862 99.1397 40.9347C99.1293 40.9928 99.0989 41.0454 99.0539 41.0833C99.0089 41.1212 98.9521 41.1419 98.8935 41.1419C88.5875 41.1372 78.7425 41.1366 69.3584 41.1401C69.3254 41.1685 69.297 41.1608 69.2734 41.1171Z" fill="#00C7DE"/>
<path d="M130.998 79.4708C130.948 79.4719 130.877 79.4955 130.785 79.5416C130.816 79.3645 130.789 79.2364 130.704 79.1573C130.626 79.0853 130.584 79.0458 130.58 79.0387C130.066 78.3492 129.671 77.8151 129.393 77.4361C128.975 76.8624 128.46 76.3506 128.09 75.8388C127.716 75.323 127.394 74.9186 127.123 74.6259C126.817 74.2953 126.154 73.4943 125.133 72.2229C124.547 71.4945 123.894 70.6888 123.173 69.8057C120.572 66.6242 117.246 62.5591 113.196 57.6103C112.604 56.8878 112.274 56.4811 112.204 56.3902C111.874 55.9617 111.529 55.5426 111.17 55.1329C110.642 54.5297 110.047 53.8031 109.383 52.9531C109.348 52.9082 109.31 52.8823 109.268 52.8752C109.22 52.8681 109.171 52.8734 109.123 52.8911L114.88 20.3014C114.889 20.2492 114.917 20.202 114.958 20.168C114.999 20.134 115.05 20.1154 115.103 20.1155H141.088C141.116 20.1156 141.144 20.1219 141.17 20.1339C141.195 20.1458 141.218 20.1632 141.236 20.1848C141.255 20.2064 141.268 20.2317 141.275 20.2589C141.283 20.286 141.284 20.3145 141.279 20.3421L130.945 78.9289C130.934 78.9851 130.933 79.0427 130.943 79.0989L130.998 79.4708Z" fill="#9EE337"/>
<path d="M194.161 52.2252C184.439 60.5126 174.772 68.7792 165.159 77.0252C164.516 77.5754 163.882 78.1337 163.255 78.7004C163.214 78.737 163.126 78.7653 162.991 78.7854C163.074 78.6071 163.122 78.4808 163.135 78.4065C166.552 58.9938 169.963 39.6349 173.368 20.3297C173.379 20.2642 173.413 20.2048 173.464 20.162C173.515 20.1192 173.58 20.0958 173.646 20.0959H199.549C199.573 20.0958 199.596 20.1039 199.614 20.1187C199.633 20.1336 199.645 20.1543 199.65 20.1774C199.719 20.4926 199.733 20.76 199.694 20.9796C197.845 31.4709 196 41.8862 194.161 52.2252Z" fill="#9E83D2"/>
<path d="M298.101 42.4118L290.053 42.4206C282.097 42.4183 274.141 42.4194 266.186 42.4242C266.06 42.4242 265.947 42.4631 265.848 42.541C265.758 42.469 265.632 42.4088 265.47 42.3604L265.237 41.8982C265.221 41.8688 265.204 41.8409 265.184 41.815C263.717 39.9332 261.865 37.6383 259.627 34.9302C257.694 32.5915 254.271 28.4148 249.356 22.4C248.405 21.2348 247.8 20.4569 247.543 20.0661L282.987 20.0608C283.057 20.0607 283.126 20.0763 283.188 20.1063C283.251 20.1364 283.307 20.1801 283.35 20.2343L298.349 38.6028C298.435 38.7086 298.485 38.8389 298.492 38.9747C298.55 40.0478 298.42 41.1935 298.101 42.4118Z" fill="#8DC92B"/>
<path d="M329.989 20.0978C330.035 20.5145 330.014 20.9696 329.927 21.4631C328.798 27.8556 327.678 34.2494 326.566 40.6443C326.468 41.2122 326.371 41.793 326.274 42.3868L310.507 42.385C310.488 42.3851 310.47 42.381 310.453 42.3731C310.436 42.3652 310.421 42.3536 310.409 42.3393C310.397 42.3249 310.388 42.308 310.383 42.2899C310.378 42.2718 310.378 42.2529 310.381 42.2345L314.252 20.2855C314.26 20.2433 314.281 20.2049 314.313 20.1764C314.345 20.1479 314.385 20.1308 314.427 20.1279C316.488 19.965 318.472 20.112 320.483 20.1155C323.65 20.1226 326.818 20.1167 329.989 20.0978Z" fill="#9EE337"/>
<path d="M352.773 42.3444C352.642 42.0593 352.822 41.8238 352.861 41.6042C353.935 35.5328 355.006 29.4613 356.072 23.3898C356.245 22.4041 356.405 21.4544 356.551 20.5406C356.57 20.4214 356.609 20.2573 356.667 20.0483C361.121 20.1263 365.579 20.1463 370.041 20.1085C370.273 20.1062 370.544 20.0902 370.854 20.0607C370.872 20.059 370.89 20.0609 370.908 20.0662C370.925 20.0715 370.941 20.0802 370.955 20.0918C370.969 20.1033 370.98 20.1175 370.988 20.1334C370.997 20.1494 371.002 20.1668 371.003 20.1847C371.036 20.5518 371.017 20.9361 370.946 21.3375C369.478 29.6142 368.25 36.5604 367.265 42.1762C367.254 42.2376 367.222 42.2934 367.175 42.3336C367.127 42.3738 367.067 42.3958 367.004 42.3958L352.773 42.3444Z" fill="#9EE337"/>
<path d="M247.543 20.0659C247.8 20.4567 248.405 21.2346 249.356 22.3998C254.271 28.4146 257.694 32.5913 259.627 34.93C261.865 37.6381 263.717 39.9331 265.184 41.8148C265.204 41.8407 265.221 41.8686 265.237 41.898L265.471 42.3602L238.191 42.3868C238.142 42.3655 238.088 42.3632 238.03 42.3797L238.08 42.3089C238.088 42.296 238.093 42.2815 238.096 42.2664L241.832 21.2152C241.84 21.1669 241.853 21.1194 241.871 21.0735C241.996 20.7465 242.052 20.4177 242.039 20.0872L247.543 20.0659Z" fill="#9EE337"/>
<path d="M69.2732 41.1172L57.416 108.344C57.406 108.4 57.3766 108.451 57.3329 108.488C57.2891 108.525 57.2339 108.545 57.1769 108.546H32.5806C32.5583 108.546 32.5362 108.541 32.516 108.531C32.4958 108.522 32.4779 108.508 32.4635 108.491C32.4491 108.474 32.4387 108.453 32.4329 108.432C32.4272 108.41 32.4262 108.387 32.4301 108.365L44.3351 41.1632C44.341 41.1502 44.3469 41.1367 44.3528 41.1225L69.2732 41.1172Z" fill="#9EE337"/>
<path d="M238.031 42.3797C238.088 42.3632 238.142 42.3656 238.192 42.3868C238.071 42.4352 237.99 42.5781 237.949 42.8153C237.215 47.0263 236.545 50.8182 235.939 54.1909C235.735 55.3301 235.563 56.3962 235.424 57.389C235.229 58.7879 234.87 60.224 234.629 61.6407C234.528 62.2309 233.853 66.0547 232.603 73.1119C232.431 74.0858 232.255 75.1607 232.075 76.3365C231.858 77.7673 231.523 79.2335 231.282 80.6218C230.995 82.2663 229.362 91.5275 226.384 108.406C226.377 108.446 226.355 108.482 226.324 108.508C226.293 108.534 226.253 108.549 226.212 108.549H200.056C200.03 108.549 200.004 108.544 199.981 108.533C199.957 108.522 199.937 108.506 199.92 108.487C199.903 108.467 199.891 108.444 199.884 108.419C199.877 108.395 199.876 108.369 199.881 108.344L211.5 42.3071C211.902 42.3909 212.289 42.4329 212.662 42.4329C220.689 42.4352 228.715 42.4275 236.741 42.4098C237.177 42.4087 237.607 42.3986 238.031 42.3797Z" fill="#FEB328"/>
<path d="M298.101 42.4116L293.694 67.433C293.677 67.5357 293.623 67.6287 293.543 67.695L289.359 71.2065L274.767 53.4065C274.741 53.3745 274.704 53.3537 274.665 53.348L274.604 53.3392C274.626 53.3333 274.646 53.3268 274.666 53.3197C278.495 50.0532 282.35 46.7932 286.232 43.5396C286.688 43.1571 286.966 42.6985 287.577 42.6454C287.608 42.6427 287.638 42.6308 287.662 42.6112C287.686 42.5917 287.703 42.5653 287.712 42.5356C287.714 42.5273 287.716 42.522 287.717 42.5196C287.731 42.492 287.752 42.4688 287.779 42.4526C287.806 42.4363 287.836 42.4276 287.868 42.4276L290.053 42.4205L298.101 42.4116Z" fill="#7076CC"/>
<path d="M290.053 42.4204L287.867 42.4275C287.836 42.4275 287.805 42.4362 287.779 42.4525C287.752 42.4687 287.731 42.4919 287.717 42.5195C287.716 42.5219 287.714 42.5272 287.712 42.5355C287.703 42.5652 287.685 42.5916 287.661 42.6111C287.637 42.6307 287.608 42.6426 287.577 42.6453C286.966 42.6984 286.688 43.157 286.231 43.5395C282.35 46.7931 278.495 50.0531 274.666 53.3196L265.848 42.5408C265.947 42.4629 266.06 42.4239 266.186 42.4239C274.141 42.4192 282.097 42.418 290.053 42.4204Z" fill="#9E83D2"/>
<path d="M352.638 42.4487L344.942 86.2157L344.846 86.584L344.822 86.3857C344.819 86.3605 344.808 86.337 344.79 86.319C344.772 86.301 344.749 86.2896 344.724 86.2865C344.244 86.2287 343.916 86.1998 343.741 86.1998C335.802 86.2068 328.267 86.2074 321.134 86.2015C321.037 86.2015 320.617 86.2086 319.875 86.2228C319.445 86.231 319.014 86.2222 318.582 86.1962L326.264 42.4647L352.638 42.4487Z" fill="#FEB328"/>
<path d="M194.16 52.2253C194.159 52.55 194.151 52.7548 194.136 52.8398C191.765 66.2494 189.754 77.651 188.101 87.0445C187.964 87.8201 187.931 88.0521 187.295 88.5922C177.271 97.1215 169.894 103.404 165.164 107.441C164.666 107.865 164.064 108.538 163.389 108.542C161.528 108.55 159.649 108.55 157.753 108.54C159.441 99.0109 161.123 89.4905 162.8 79.979C162.863 79.6225 162.886 79.2937 162.867 78.9927C162.886 78.923 162.927 78.854 162.991 78.7855C163.126 78.7654 163.213 78.7371 163.255 78.7005C163.882 78.1338 164.516 77.5755 165.158 77.0253C174.771 68.7793 184.439 60.5127 194.16 52.2253Z" fill="#E75661"/>
<path d="M130.786 79.5417C130.666 80.5358 130.578 81.1951 130.522 81.5197C128.923 90.5177 127.332 99.5252 125.749 108.542L119.373 108.544C119.306 108.544 119.24 108.529 119.179 108.501C119.118 108.472 119.065 108.431 119.022 108.379C115.167 103.682 109.805 97.1653 102.936 88.8296C102.813 88.6796 102.783 88.4323 102.844 88.0876C103.188 86.1822 105.243 74.5776 109.01 53.2738C109.034 53.1404 109.071 53.0129 109.123 52.8913C109.172 52.8736 109.22 52.8683 109.269 52.8754C109.31 52.8824 109.348 52.9084 109.384 52.9533C110.047 53.8032 110.643 54.5299 111.17 55.1331C111.529 55.5428 111.874 55.9618 112.205 56.3904C112.274 56.4813 112.605 56.888 113.196 57.6105C117.247 62.5592 120.572 66.6244 123.173 69.8059C123.894 70.689 124.548 71.4947 125.133 72.2231C126.154 73.4945 126.818 74.2955 127.124 74.626C127.394 74.9188 127.716 75.3231 128.09 75.839C128.46 76.3508 128.976 76.8625 129.394 77.4363C129.671 77.8152 130.067 78.3494 130.58 79.0388C130.585 79.0459 130.626 79.0855 130.704 79.1575C130.789 79.2366 130.816 79.3647 130.786 79.5417Z" fill="#A3D301"/>
<path d="M274.604 53.3391L274.664 53.348C274.704 53.3536 274.741 53.3744 274.767 53.4064L289.358 71.2064C280.015 79.0936 274.156 84.0482 271.779 86.0705C271.526 86.2853 271.269 86.3934 271.009 86.3945C257.262 86.4087 245.939 86.4058 237.042 86.3857C236.636 86.3839 236.241 86.4477 235.857 86.4335C235.841 86.433 235.826 86.4279 235.812 86.4189C235.799 86.4098 235.789 86.3971 235.783 86.3824C235.777 86.3676 235.775 86.3514 235.778 86.3357C235.78 86.3199 235.788 86.3053 235.799 86.2936C236.172 85.8993 236.516 85.5682 236.833 85.3002C249.429 74.6542 262.019 64.0005 274.604 53.3391Z" fill="#00C7DE"/>
<path d="M162.867 78.9927C162.886 79.2937 162.864 79.6225 162.8 79.979C161.124 89.4905 159.441 99.0109 157.753 108.54L154.711 108.538L143.861 95.1972L162.867 78.9927Z" fill="#F47172"/>
<path d="M130.998 79.4709L143.742 95.1354C143.761 95.2393 143.737 95.3196 143.669 95.3762C135.593 102.263 131.001 106.201 129.891 107.187C129.426 107.602 128.936 107.987 128.423 108.344C128.409 108.353 128.398 108.367 128.391 108.382C128.384 108.398 128.381 108.415 128.383 108.432C128.386 108.449 128.393 108.465 128.403 108.478C128.414 108.491 128.428 108.501 128.444 108.507L128.542 108.54L125.749 108.542C127.332 99.5252 128.923 90.5178 130.521 81.5198C130.578 81.1951 130.666 80.5358 130.785 79.5418C130.877 79.4957 130.948 79.4721 130.998 79.4709Z" fill="#FEB328"/>
<path d="M318.6 86.2141L314.594 108.544L298.81 108.54C298.793 108.54 298.777 108.537 298.762 108.53C298.747 108.523 298.733 108.512 298.723 108.499C298.712 108.487 298.704 108.472 298.7 108.455C298.696 108.439 298.695 108.422 298.698 108.406L302.592 86.3345C302.597 86.3078 302.61 86.2835 302.631 86.266C302.652 86.2485 302.678 86.2389 302.705 86.2389L318.6 86.2141Z" fill="#F47172"/>
<path d="M318.582 86.1963C319.014 86.2223 319.445 86.2311 319.874 86.2229C320.617 86.2087 321.037 86.2016 321.133 86.2016C328.266 86.2075 335.802 86.2069 343.741 86.1998C343.916 86.1998 344.243 86.2288 344.724 86.2866C344.749 86.2897 344.772 86.3011 344.789 86.3191C344.807 86.3371 344.818 86.3605 344.821 86.3858L344.846 86.5841L341.01 108.544H314.594L318.599 86.214C318.593 86.2081 318.587 86.2022 318.582 86.1963Z" fill="#FE960B"/>
<path d="M341.011 108.544L344.846 86.5842L344.942 86.2158H359.296C359.32 86.2157 359.345 86.221 359.367 86.2312C359.389 86.2415 359.409 86.2566 359.425 86.2754C359.44 86.2941 359.452 86.3162 359.458 86.3398C359.464 86.3635 359.465 86.3883 359.461 86.4124L355.579 108.416C355.573 108.451 355.555 108.482 355.529 108.504C355.502 108.526 355.469 108.539 355.434 108.538L341.011 108.544Z" fill="#F47172"/>
<path d="M143.861 95.1972L154.71 108.538L128.542 108.54L128.444 108.507C128.428 108.501 128.414 108.491 128.403 108.478C128.393 108.464 128.386 108.448 128.384 108.432C128.381 108.415 128.384 108.398 128.391 108.382C128.398 108.366 128.409 108.353 128.423 108.344C128.937 107.987 129.426 107.602 129.891 107.187C131.001 106.2 135.594 102.263 143.67 95.3761C143.737 95.3194 143.761 95.2391 143.742 95.1353L143.861 95.1972Z" fill="#F5654D"/>
<path d="M165.279 140.799V126.333H168.373V140.799H165.279ZM166.726 135.193V132.823H175.024V135.193H166.726ZM166.726 128.704V126.333H175.486V128.704H166.726Z" fill="#8AC87C"/>
<path d="M177.131 140.799V126.333H180.225V140.799H177.131Z" fill="#8AC87C"/>
<path d="M182.232 140.799V126.333H186.23L192.66 139.111L191.675 139.353V126.333H194.689V140.799H190.691L184.261 128.021L185.246 127.779V140.799H182.232Z" fill="#8AC87C"/>
<path d="M200.892 140.799V128.704H196.171V126.333H208.708V128.704H203.986V140.799H200.892Z" fill="#8AC87C"/>
<path d="M210.192 140.799V126.333H213.286V140.799H210.192ZM211.639 140.799V138.428H220.962V140.799H211.639ZM211.639 134.571V132.24H220.258V134.571H211.639ZM211.639 128.704V126.333H220.721V128.704H211.639Z" fill="#8AC87C"/>
<path d="M229.072 141C228.027 141 227.062 140.819 226.178 140.458C225.294 140.083 224.524 139.56 223.868 138.89C223.225 138.221 222.722 137.43 222.361 136.52C221.999 135.595 221.818 134.591 221.818 133.506C221.818 132.421 221.992 131.43 222.341 130.532C222.702 129.635 223.205 128.858 223.848 128.201C224.504 127.532 225.274 127.023 226.158 126.674C227.042 126.313 228.013 126.132 229.072 126.132C230.264 126.132 231.335 126.366 232.286 126.835C233.251 127.291 234.034 127.94 234.637 128.784C235.253 129.615 235.628 130.592 235.762 131.718H232.748C232.574 130.686 232.152 129.909 231.483 129.387C230.813 128.851 230.016 128.583 229.092 128.583C228.275 128.583 227.551 128.777 226.922 129.166C226.306 129.554 225.823 130.117 225.475 130.854C225.127 131.577 224.953 132.454 224.953 133.486C224.953 134.53 225.127 135.435 225.475 136.198C225.837 136.948 226.332 137.531 226.962 137.946C227.591 138.348 228.315 138.549 229.132 138.549C230.002 138.549 230.773 138.288 231.442 137.765C232.112 137.243 232.547 136.466 232.748 135.435H235.802C235.628 136.56 235.233 137.544 234.617 138.388C234.001 139.219 233.217 139.862 232.266 140.317C231.315 140.772 230.25 141 229.072 141Z" fill="#8AC87C"/>
<path d="M237.289 140.799V126.333H240.383V140.799H237.289ZM246.652 140.799V126.333H249.746V140.799H246.652ZM238.736 132.079H248.059V134.45H238.736V132.079Z" fill="#8AC87C"/>
<path d="M261.524 140.98C259.648 140.98 258.148 140.565 257.023 139.734C255.898 138.89 255.241 137.705 255.054 136.178H258.027C258.121 136.955 258.496 137.571 259.153 138.026C259.809 138.468 260.646 138.69 261.664 138.69C262.495 138.69 263.131 138.542 263.573 138.247C264.028 137.953 264.256 137.558 264.256 137.062C264.256 136.593 264.122 136.218 263.854 135.937C263.586 135.642 263.124 135.408 262.468 135.234L259.775 134.49C258.396 134.102 257.385 133.573 256.742 132.903C256.112 132.22 255.797 131.369 255.797 130.351C255.797 129.481 256.018 128.73 256.46 128.101C256.916 127.458 257.552 126.969 258.369 126.634C259.186 126.286 260.144 126.112 261.242 126.112C262.93 126.112 264.276 126.514 265.281 127.317C266.285 128.108 266.855 129.159 266.989 130.472H264.015C263.881 129.762 263.553 129.239 263.03 128.905C262.521 128.57 261.865 128.402 261.061 128.402C260.365 128.402 259.809 128.536 259.394 128.804C258.978 129.072 258.771 129.434 258.771 129.889C258.771 130.237 258.885 130.559 259.112 130.854C259.34 131.135 259.816 131.376 260.539 131.577L263.231 132.32C264.651 132.709 265.669 133.245 266.285 133.928C266.915 134.597 267.23 135.448 267.23 136.479C267.23 137.926 266.727 139.038 265.723 139.815C264.718 140.592 263.318 140.98 261.524 140.98Z" fill="#8AC87C"/>
<path d="M275.695 141C274.624 141 273.633 140.819 272.722 140.458C271.824 140.096 271.041 139.587 270.371 138.931C269.715 138.261 269.199 137.471 268.824 136.56C268.462 135.635 268.281 134.617 268.281 133.506C268.281 132.032 268.596 130.746 269.226 129.648C269.855 128.536 270.726 127.672 271.838 127.056C272.963 126.44 274.242 126.132 275.675 126.132C277.135 126.132 278.421 126.44 279.533 127.056C280.645 127.672 281.515 128.536 282.145 129.648C282.788 130.76 283.109 132.052 283.109 133.526C283.109 134.624 282.922 135.635 282.547 136.56C282.185 137.471 281.669 138.261 281 138.931C280.343 139.587 279.56 140.096 278.649 140.458C277.751 140.819 276.767 141 275.695 141ZM275.675 138.549C276.519 138.549 277.263 138.335 277.906 137.906C278.548 137.477 279.051 136.888 279.412 136.138C279.787 135.374 279.975 134.49 279.975 133.486C279.975 132.494 279.794 131.63 279.433 130.894C279.071 130.157 278.569 129.588 277.926 129.186C277.283 128.784 276.533 128.583 275.675 128.583C274.831 128.583 274.088 128.784 273.445 129.186C272.802 129.588 272.3 130.157 271.938 130.894C271.59 131.617 271.416 132.481 271.416 133.486C271.416 134.504 271.597 135.394 271.958 136.158C272.32 136.908 272.822 137.497 273.465 137.926C274.108 138.341 274.845 138.549 275.675 138.549Z" fill="#8AC87C"/>
<path d="M284.714 140.799V126.333H287.808V140.799H284.714ZM286.16 140.799V138.428H294.76V140.799H286.16Z" fill="#8AC87C"/>
<path d="M301.631 141C299.568 141 298.021 140.438 296.989 139.312C295.971 138.174 295.462 136.52 295.462 134.35V126.333H298.557V134.892C298.557 136.151 298.831 137.075 299.38 137.665C299.93 138.254 300.686 138.549 301.651 138.549C302.615 138.549 303.372 138.254 303.921 137.665C304.47 137.075 304.745 136.158 304.745 134.912V126.333H307.839V134.39C307.839 136.533 307.323 138.174 306.292 139.312C305.261 140.438 303.707 141 301.631 141Z" fill="#8AC87C"/>
<path d="M313.891 140.799V128.704H309.169V126.333H321.707V128.704H316.985V140.799H313.891Z" fill="#8AC87C"/>
<path d="M323.191 140.799V126.333H326.285V140.799H323.191Z" fill="#8AC87C"/>
<path d="M335.305 141C334.233 141 333.242 140.819 332.331 140.458C331.434 140.096 330.65 139.587 329.98 138.931C329.324 138.261 328.808 137.471 328.433 136.56C328.072 135.635 327.891 134.617 327.891 133.506C327.891 132.032 328.205 130.746 328.835 129.648C329.465 128.536 330.335 127.672 331.447 127.056C332.572 126.44 333.851 126.132 335.285 126.132C336.745 126.132 338.031 126.44 339.142 127.056C340.254 127.672 341.125 128.536 341.754 129.648C342.397 130.76 342.719 132.052 342.719 133.526C342.719 134.624 342.531 135.635 342.156 136.56C341.794 137.471 341.279 138.261 340.609 138.931C339.953 139.587 339.169 140.096 338.258 140.458C337.361 140.819 336.376 141 335.305 141ZM335.285 138.549C336.128 138.549 336.872 138.335 337.515 137.906C338.158 137.477 338.66 136.888 339.022 136.138C339.397 135.374 339.584 134.49 339.584 133.486C339.584 132.494 339.403 131.63 339.042 130.894C338.68 130.157 338.178 129.588 337.535 129.186C336.892 128.784 336.142 128.583 335.285 128.583C334.441 128.583 333.697 128.784 333.054 129.186C332.411 129.588 331.909 130.157 331.547 130.894C331.199 131.617 331.025 132.481 331.025 133.486C331.025 134.504 331.206 135.394 331.568 136.158C331.929 136.908 332.432 137.497 333.074 137.926C333.717 138.341 334.454 138.549 335.285 138.549Z" fill="#8AC87C"/>
<path d="M344.323 140.799V126.333H348.321L354.751 139.111L353.766 139.353V126.333H356.78V140.799H352.782L346.352 128.021L347.337 127.779V140.799H344.323Z" fill="#8AC87C"/>
<path d="M364.731 140.98C362.856 140.98 361.356 140.565 360.231 139.734C359.105 138.89 358.449 137.705 358.262 136.178H361.235C361.329 136.955 361.704 137.571 362.36 138.026C363.017 138.468 363.854 138.69 364.872 138.69C365.702 138.69 366.339 138.542 366.781 138.247C367.236 137.953 367.464 137.558 367.464 137.062C367.464 136.593 367.33 136.218 367.062 135.937C366.794 135.642 366.332 135.408 365.676 135.234L362.983 134.49C361.604 134.102 360.592 133.573 359.949 132.903C359.32 132.22 359.005 131.369 359.005 130.351C359.005 129.481 359.226 128.73 359.668 128.101C360.123 127.458 360.76 126.969 361.577 126.634C362.394 126.286 363.352 126.112 364.45 126.112C366.138 126.112 367.484 126.514 368.488 127.317C369.493 128.108 370.062 129.159 370.196 130.472H367.223C367.089 129.762 366.761 129.239 366.238 128.905C365.729 128.57 365.073 128.402 364.269 128.402C363.573 128.402 363.017 128.536 362.601 128.804C362.186 129.072 361.979 129.434 361.979 129.889C361.979 130.237 362.092 130.559 362.32 130.854C362.548 131.135 363.023 131.376 363.747 131.577L366.439 132.32C367.859 132.709 368.877 133.245 369.493 133.928C370.123 134.597 370.437 135.448 370.437 136.479C370.437 137.926 369.935 139.038 368.93 139.815C367.926 140.592 366.526 140.98 364.731 140.98Z" fill="#8AC87C"/>
</svg>
