<svg width="380" height="160" viewBox="0 0 380 160" fill="none" xmlns="http://www.w3.org/2000/svg">
<path d="M340.056 61.0479L330.613 44.6108C329.684 42.9908 327.945 41.9832 326.069 41.9832H307.182C305.305 41.9832 303.586 42.9908 302.638 44.6108L293.194 61.0479C292.266 62.6679 292.266 64.683 293.194 66.3227L302.638 82.7598C303.566 84.3798 305.305 85.3874 307.182 85.3874H314.037L316.625 80.883H307.182C306.925 80.883 306.668 80.7447 306.53 80.5076L297.086 64.0705C296.948 63.8335 296.948 63.5569 297.086 63.3198L306.53 46.8827C306.668 46.6457 306.905 46.5074 307.182 46.5074H326.069C326.325 46.5074 326.582 46.6457 326.721 46.8827L336.164 63.3198C336.302 63.5569 336.302 63.8335 336.164 64.0705L330.672 73.6325H335.848L340.036 66.3227C340.965 64.7027 340.965 62.6876 340.036 61.0479H340.056Z" fill="white"/>
<path d="M323.396 92.6971L319.207 85.3874H314.031L319.523 94.9493C319.662 95.1864 319.662 95.463 319.523 95.7001L310.08 112.137C309.942 112.374 309.705 112.512 309.428 112.512H290.541C290.284 112.512 290.027 112.374 289.889 112.137L280.446 95.7001C280.307 95.463 280.307 95.1864 280.446 94.9493L289.889 78.5123C290.027 78.2752 290.265 78.1369 290.541 78.1369H299.985L297.396 73.6325H290.541C288.664 73.6325 286.946 74.6401 285.997 76.2601L276.554 92.6971C275.625 94.3171 275.625 96.3323 276.554 97.972L285.997 114.409C286.926 116.029 288.664 117.037 290.541 117.037H309.428C311.305 117.037 313.024 116.029 313.972 114.409L323.415 97.972C324.344 96.352 324.344 94.3369 323.415 92.6971H323.396Z" fill="white"/>
<path d="M356.687 92.6971L347.243 76.2601C346.315 74.6401 344.576 73.6325 342.7 73.6325H323.813C321.936 73.6325 320.217 74.6401 319.269 76.2601L314.014 85.4071H319.19L323.141 78.532C323.279 78.2949 323.516 78.1566 323.793 78.1566H342.68C342.937 78.1566 343.193 78.2949 343.332 78.532L352.775 94.9691C352.913 95.2062 352.913 95.4827 352.775 95.7198L343.332 112.157C343.193 112.394 342.956 112.532 342.68 112.532H323.793C323.536 112.532 323.279 112.394 323.141 112.157L319.17 105.302L316.582 109.806L319.249 114.409C320.178 116.029 321.916 117.037 323.793 117.037H342.68C344.557 117.037 346.275 116.029 347.224 114.409L356.667 97.972C357.596 96.352 357.596 94.3369 356.667 92.6971H356.687Z" fill="white"/>
<path d="M118.035 49.7671C101.025 49.7671 88.1836 62.4505 88.1836 79.3025C88.1836 96.1544 101.519 109.253 119.22 109.253C129.849 109.253 139.312 104.748 145.2 96.9052C145.536 96.4508 145.476 95.8186 145.042 95.4432L138.7 89.9708C138.463 89.7732 138.167 89.6744 137.87 89.7139C137.574 89.7535 137.297 89.9115 137.119 90.1683C133.465 95.3839 126.708 98.6239 119.537 98.6239C110.073 98.6239 102.783 93.191 100.59 84.6761H146.385C146.938 84.6761 147.412 84.2415 147.452 83.6883C147.551 82.4635 147.669 80.883 147.669 79.5198C147.669 62.5691 134.927 49.7869 118.035 49.7869V49.7671ZM117.936 60.3959C126.55 60.3959 133.465 65.8683 135.499 74.1461H100.472C102.527 65.8683 109.402 60.3959 117.936 60.3959Z" fill="white"/>
<path d="M81.2048 51.0513H70.8922C70.4575 51.0513 70.0624 51.3081 69.9044 51.7032L52.4202 93.0527L34.9558 51.7032C34.778 51.3081 34.4026 51.0513 33.968 51.0513H23.3392C22.9836 51.0513 22.6478 51.2291 22.4305 51.5452C22.2329 51.8415 22.1934 52.2366 22.3514 52.5725L46.3946 107.336C46.5724 107.732 46.9478 107.969 47.3824 107.969H57.1617C57.5963 107.969 57.9717 107.712 58.1495 107.336L82.1926 52.5725C82.3309 52.2366 82.3112 51.8613 82.1136 51.5452C81.9161 51.2488 81.5802 51.0513 81.2048 51.0513Z" fill="white"/>
<path d="M162.699 96.589V107.593C162.699 108.186 163.174 108.66 163.766 108.66H172.992C173.585 108.66 174.059 108.186 174.059 107.593V88.7656L162.68 96.589H162.699Z" fill="white"/>
<path d="M232.067 49.7671C231.633 49.7671 231.218 49.7671 230.803 49.7869L203.856 68.2983C202.512 71.7161 201.781 75.4896 201.781 79.5C201.781 96.4508 214.801 109.233 232.067 109.233C249.334 109.233 262.235 96.4508 262.235 79.5C262.235 62.5493 249.255 49.7671 232.067 49.7671ZM232.067 98.1893C221.478 98.1893 213.497 90.1486 213.497 79.5C213.497 68.8515 221.478 60.8108 232.067 60.8108C242.657 60.8108 250.539 68.8515 250.539 79.5C250.539 90.1486 242.597 98.1893 232.067 98.1893Z" fill="white"/>
<path d="M192.116 51.6242C185.201 51.6242 178.998 54.0937 174.098 58.1634V52.8491C174.098 52.2564 173.624 51.7822 173.031 51.7822H163.805C163.212 51.7822 162.738 52.2564 162.738 52.8491V86.7703L163.074 86.553L169.1 82.4239L174.177 78.9271C174.217 78.3739 174.256 77.8405 174.335 77.3071C174.335 77.3071 174.375 77.2874 174.394 77.2676C175.837 68.5749 182.988 62.3715 192.155 62.3715C193.933 62.3715 195.652 62.6086 197.252 63.063L207.782 55.8322C203.317 53.1652 197.983 51.6242 192.155 51.6242H192.116Z" fill="white"/>
</svg>
